Badami-Italic.ufo
<glyph name="exclam" format="2">
  <advance width="171"/>
  <unicode hex="0021"/>
  <outline>
    <contour>
      <point x="225" y="556" type="line"/>
      <point x="164" y="590" type="line"/>
      <point x="87" y="177" type="line"/>
      <point x="132" y="147" type="line"/>
    </contour>
    <contour>
      <point x="89" y="81" type="curve" smooth="yes"/>
      <point x="55" y="81"/>
      <point x="36" y="62"/>
      <point x="36" y="44" type="curve" smooth="yes"/>
      <point x="36" y="29"/>
      <point x="49" y="16"/>
      <point x="77" y="16" type="curve" smooth="yes"/>
      <point x="112" y="16"/>
      <point x="130" y="35"/>
      <point x="130" y="52" type="curve" smooth="yes"/>
      <point x="130" y="67"/>
      <point x="117" y="81"/>
    </contour>
  </outline>
</glyph>
<glyph name="quotedbl" format="2">
  <advance width="287"/>
  <unicode hex="0022"/>
  <outline>
    <contour>
      <point x="273" y="490" type="line"/>
      <point x="259" y="498" type="line"/>
      <point x="249" y="496"/>
      <point x="217" y="484"/>
      <point x="206" y="478" type="curve"/>
      <point x="199" y="296" type="line"/>
      <point x="209" y="296"/>
      <point x="221" y="298"/>
      <point x="228" y="302" type="curve"/>
    </contour>
    <contour>
      <point x="154" y="490" type="line"/>
      <point x="140" y="498" type="line"/>
      <point x="130" y="496"/>
      <point x="98" y="484"/>
      <point x="87" y="478" type="curve"/>
      <point x="80" y="296" type="line"/>
      <point x="90" y="296"/>
      <point x="101" y="298"/>
      <point x="109" y="302" type="curve"/>
    </contour>
  </outline>
</glyph>
<glyph name="numbersign" format="2">
  <advance width="299"/>
  <unicode hex="0023"/>
  <outline>
    <contour>
      <point x="332" y="328" type="curve"/>
      <point x="326" y="336" type="line"/>
      <point x="81" y="336" type="line"/>
      <point x="77" y="327"/>
      <point x="69" y="311"/>
      <point x="65" y="301" type="curve"/>
      <point x="72" y="293" type="line"/>
      <point x="316" y="293" type="line"/>
      <point x="320" y="300"/>
      <point x="329" y="318"/>
    </contour>
    <contour>
      <point x="316" y="442" type="line"/>
      <point x="308" y="450" type="line"/>
      <point x="299" y="446"/>
      <point x="285" y="443"/>
      <point x="275" y="436" type="curve"/>
      <point x="129" y="51" type="line"/>
      <point x="136" y="44" type="line"/>
      <point x="149" y="48"/>
      <point x="163" y="53"/>
      <point x="171" y="59" type="curve"/>
    </contour>
    <contour>
      <point x="218" y="442" type="line"/>
      <point x="210" y="450" type="line"/>
      <point x="200" y="446"/>
      <point x="186" y="443"/>
      <point x="176" y="436" type="curve"/>
      <point x="30" y="51" type="line"/>
      <point x="38" y="44" type="line"/>
      <point x="50" y="48"/>
      <point x="64" y="53"/>
      <point x="72" y="59" type="curve"/>
    </contour>
    <contour>
      <point x="284" y="198" type="curve"/>
      <point x="278" y="207" type="line"/>
      <point x="34" y="207" type="line"/>
      <point x="29" y="198"/>
      <point x="21" y="181"/>
      <point x="17" y="172" type="curve"/>
      <point x="24" y="163" type="line"/>
      <point x="269" y="163" type="line"/>
      <point x="273" y="171"/>
      <point x="281" y="189"/>
    </contour>
  </outline>
</glyph>
<glyph name="dollar" format="2">
  <advance width="301"/>
  <unicode hex="0024"/>
  <outline>
    <contour>
      <point x="206" y="492" type="line"/>
      <point x="198" y="500" type="line"/>
      <point x="185" y="496"/>
      <point x="190" y="497"/>
      <point x="177" y="489" type="curve"/>
      <point x="100" y="-53" type="line"/>
      <point x="107" y="-61" type="line"/>
      <point x="119" y="-58"/>
      <point x="121" y="-57"/>
      <point x="130" y="-50" type="curve"/>
    </contour>
    <contour>
      <point x="290" y="418" type="curve"/>
      <point x="268" y="435"/>
      <point x="236" y="450"/>
      <point x="201" y="450" type="curve" smooth="yes"/>
      <point x="111" y="450"/>
      <point x="48" y="385"/>
      <point x="48" y="324" type="curve" smooth="yes"/>
      <point x="48" y="290"/>
      <point x="68" y="253"/>
      <point x="130" y="223" type="curve" smooth="yes"/>
      <point x="200" y="190"/>
      <point x="224" y="163"/>
      <point x="224" y="125" type="curve" smooth="yes"/>
      <point x="224" y="73"/>
      <point x="176" y="32"/>
      <point x="120" y="32" type="curve" smooth="yes"/>
      <point x="64" y="32"/>
      <point x="43" y="88"/>
      <point x="32" y="88" type="curve" smooth="yes"/>
      <point x="19" y="88"/>
      <point x="-5" y="50"/>
      <point x="-5" y="39" type="curve" smooth="yes"/>
      <point x="-5" y="15"/>
      <point x="60" y="-11"/>
      <point x="95" y="-11" type="curve" smooth="yes"/>
      <point x="188" y="-11"/>
      <point x="270" y="65"/>
      <point x="270" y="153" type="curve" smooth="yes"/>
      <point x="270" y="205"/>
      <point x="240" y="234"/>
      <point x="166" y="272" type="curve" smooth="yes"/>
      <point x="104" y="303"/>
      <point x="91" y="327"/>
      <point x="91" y="347" type="curve" smooth="yes"/>
      <point x="91" y="378"/>
      <point x="123" y="414"/>
      <point x="172" y="414" type="curve" smooth="yes"/>
      <point x="200" y="414"/>
      <point x="228" y="394"/>
      <point x="244" y="372" type="curve"/>
      <point x="254" y="370" type="line"/>
      <point x="264" y="375"/>
      <point x="296" y="414"/>
    </contour>
  </outline>
</glyph>
<glyph name="percent" format="2">
  <advance width="467"/>
  <unicode hex="0025"/>
  <outline>
    <contour>
      <point x="229" y="339" type="curve"/>
      <point x="229" y="392"/>
      <point x="200" y="431"/>
      <point x="154" y="431" type="curve" smooth="yes"/>
      <point x="81" y="431"/>
      <point x="35" y="350"/>
      <point x="35" y="286" type="curve" smooth="yes"/>
      <point x="35" y="235"/>
      <point x="64" y="194"/>
      <point x="110" y="194" type="curve" smooth="yes"/>
      <point x="184" y="194"/>
      <point x="229" y="275"/>
    </contour>
    <contour>
      <point x="432" y="420" type="line"/>
      <point x="424" y="431" type="line"/>
      <point x="412" y="428"/>
      <point x="390" y="422"/>
      <point x="378" y="415" type="curve"/>
      <point x="36" y="0" type="line"/>
      <point x="43" y="-11" type="line"/>
      <point x="54" y="-8"/>
      <point x="81" y="-1"/>
      <point x="90" y="4" type="curve"/>
    </contour>
    <contour>
      <point x="433" y="134" type="curve"/>
      <point x="433" y="187"/>
      <point x="404" y="226"/>
      <point x="358" y="226" type="curve" smooth="yes"/>
      <point x="285" y="226"/>
      <point x="238" y="145"/>
      <point x="238" y="81" type="curve" smooth="yes"/>
      <point x="238" y="30"/>
      <point x="268" y="-10"/>
      <point x="314" y="-10" type="curve" smooth="yes"/>
      <point x="387" y="-10"/>
      <point x="433" y="69"/>
    </contour>
    <contour>
      <point x="176" y="343" type="curve"/>
      <point x="176" y="304"/>
      <point x="162" y="221"/>
      <point x="123" y="221" type="curve" smooth="yes"/>
      <point x="102" y="221"/>
      <point x="89" y="239"/>
      <point x="89" y="277" type="curve" smooth="yes"/>
      <point x="89" y="312"/>
      <point x="99" y="403"/>
      <point x="142" y="403" type="curve" smooth="yes"/>
      <point x="161" y="403"/>
      <point x="176" y="384"/>
    </contour>
    <contour>
      <point x="379" y="138" type="curve"/>
      <point x="379" y="99"/>
      <point x="366" y="17"/>
      <point x="327" y="17" type="curve" smooth="yes"/>
      <point x="306" y="17"/>
      <point x="293" y="34"/>
      <point x="293" y="72" type="curve" smooth="yes"/>
      <point x="293" y="107"/>
      <point x="303" y="198"/>
      <point x="346" y="198" type="curve" smooth="yes"/>
      <point x="364" y="198"/>
      <point x="379" y="179"/>
    </contour>
  </outline>
</glyph>
<glyph name="ampersand" format="2">
  <advance width="435"/>
  <unicode hex="0026"/>
  <outline>
    <contour>
      <point x="466" y="273" type="curve"/>
      <point x="460" y="287" type="line"/>
      <point x="314" y="287" type="line"/>
      <point x="304" y="283"/>
      <point x="293" y="274"/>
      <point x="287" y="268" type="curve"/>
      <point x="293" y="258" type="line"/>
      <point x="316" y="258"/>
      <point x="337" y="230"/>
      <point x="337" y="191" type="curve" smooth="yes"/>
      <point x="337" y="186"/>
      <point x="336" y="181"/>
      <point x="336" y="176" type="curve" smooth="yes"/>
      <point x="326" y="114"/>
      <point x="259" y="30"/>
      <point x="163" y="30" type="curve" smooth="yes"/>
      <point x="119" y="30"/>
      <point x="77" y="65"/>
      <point x="77" y="123" type="curve" smooth="yes"/>
      <point x="77" y="128"/>
      <point x="78" y="134"/>
      <point x="78" y="140" type="curve" smooth="yes"/>
      <point x="87" y="197"/>
      <point x="126" y="239"/>
      <point x="231" y="306" type="curve" smooth="yes"/>
      <point x="287" y="342"/>
      <point x="328" y="387"/>
      <point x="336" y="437" type="curve" smooth="yes"/>
      <point x="337" y="444"/>
      <point x="337" y="450"/>
      <point x="337" y="457" type="curve" smooth="yes"/>
      <point x="337" y="497"/>
      <point x="319" y="531"/>
      <point x="271" y="531" type="curve" smooth="yes"/>
      <point x="212" y="531"/>
      <point x="154" y="471"/>
      <point x="143" y="392" type="curve" smooth="yes"/>
      <point x="142" y="383"/>
      <point x="142" y="373"/>
      <point x="142" y="364" type="curve" smooth="yes"/>
      <point x="142" y="200"/>
      <point x="310" y="-11"/>
      <point x="340" y="-11" type="curve" smooth="yes"/>
      <point x="350" y="-11"/>
      <point x="377" y="-2"/>
      <point x="419" y="16" type="curve"/>
      <point x="418" y="32" type="line"/>
      <point x="410" y="30"/>
      <point x="404" y="29"/>
      <point x="398" y="29" type="curve" smooth="yes"/>
      <point x="382" y="29"/>
      <point x="370" y="35"/>
      <point x="359" y="46" type="curve" smooth="yes"/>
      <point x="292" y="114"/>
      <point x="187" y="272"/>
      <point x="187" y="390" type="curve" smooth="yes"/>
      <point x="187" y="398"/>
      <point x="187" y="406"/>
      <point x="188" y="413" type="curve" smooth="yes"/>
      <point x="194" y="452"/>
      <point x="213" y="491"/>
      <point x="248" y="491" type="curve" smooth="yes"/>
      <point x="277" y="491"/>
      <point x="290" y="472"/>
      <point x="290" y="445" type="curve" smooth="yes"/>
      <point x="290" y="439"/>
      <point x="288" y="432"/>
      <point x="287" y="425" type="curve" smooth="yes"/>
      <point x="283" y="393"/>
      <point x="260" y="358"/>
      <point x="200" y="324" type="curve" smooth="yes"/>
      <point x="99" y="266"/>
      <point x="33" y="198"/>
      <point x="24" y="132" type="curve" smooth="yes"/>
      <point x="23" y="123"/>
      <point x="23" y="114"/>
      <point x="23" y="106" type="curve" smooth="yes"/>
      <point x="23" y="31"/>
      <point x="73" y="-11"/>
      <point x="147" y="-11" type="curve" smooth="yes"/>
      <point x="268" y="-11"/>
      <point x="365" y="107"/>
      <point x="377" y="191" type="curve" smooth="yes"/>
      <point x="379" y="204"/>
      <point x="380" y="215"/>
      <point x="380" y="224" type="curve" smooth="yes"/>
      <point x="380" y="236"/>
      <point x="379" y="246"/>
      <point x="375" y="256" type="curve"/>
      <point x="390" y="255"/>
      <point x="414" y="249"/>
      <point x="429" y="241" type="curve"/>
      <point x="441" y="249"/>
      <point x="453" y="258"/>
    </contour>
  </outline>
</glyph>
<glyph name="quotesingle" format="2">
  <advance width="150"/>
  <unicode hex="0027"/>
  <outline>
    <contour>
      <point x="153" y="515" type="line"/>
      <point x="140" y="523" type="line"/>
      <point x="129" y="521"/>
      <point x="108" y="512"/>
      <point x="96" y="506" type="curve"/>
      <point x="84" y="314" type="line"/>
      <point x="95" y="314"/>
      <point x="103" y="315"/>
      <point x="111" y="320" type="curve"/>
    </contour>
  </outline>
</glyph>
<glyph name="parenright" format="2">
  <advance width="444"/>
  <unicode hex="0029"/>
  <outline>
    <contour>
      <point x="279" y="634" type="curve"/>
      <point x="253" y="611" type="line"/>
      <point x="301" y="565"/>
      <point x="357" y="492"/>
      <point x="357" y="374" type="curve" smooth="yes"/>
      <point x="357" y="343"/>
      <point x="353" y="307"/>
      <point x="344" y="265" type="curve" smooth="yes"/>
      <point x="313" y="120"/>
      <point x="242" y="11"/>
      <point x="106" y="-81" type="curve"/>
      <point x="122" y="-103" type="line"/>
      <point x="370" y="54"/>
      <point x="420" y="234"/>
      <point x="420" y="353" type="curve" smooth="yes"/>
      <point x="420" y="458"/>
      <point x="375" y="550"/>
    </contour>
  </outline>
</glyph>
<glyph name="asterisk" format="2">
  <advance width="254"/>
  <unicode hex="002A"/>
  <outline>
    <contour>
      <point x="98" y="247" type="line"/>
      <point x="107" y="249"/>
      <point x="131" y="259"/>
      <point x="141" y="265" type="curve"/>
      <point x="142" y="373" type="line"/>
      <point x="219" y="300" type="line"/>
      <point x="233" y="308" type="line"/>
      <point x="238" y="318"/>
      <point x="243" y="343"/>
      <point x="245" y="354" type="curve"/>
      <point x="157" y="395" type="line"/>
      <point x="265" y="441" type="line"/>
      <point x="268" y="457" type="line"/>
      <point x="263" y="464"/>
      <point x="245" y="478"/>
      <point x="237" y="484" type="curve"/>
      <point x="148" y="418" type="line"/>
      <point x="179" y="535" type="line"/>
      <point x="167" y="544" type="line"/>
      <point x="157" y="541"/>
      <point x="135" y="531"/>
      <point x="125" y="525" type="curve"/>
      <point x="123" y="417" type="line"/>
      <point x="46" y="490" type="line"/>
      <point x="32" y="482" type="line"/>
      <point x="28" y="473"/>
      <point x="23" y="447"/>
      <point x="20" y="436" type="curve"/>
      <point x="109" y="395" type="line"/>
      <point x="1" y="350" type="line"/>
      <point x="-2" y="333" type="line"/>
      <point x="2" y="326"/>
      <point x="20" y="311"/>
      <point x="28" y="305" type="curve"/>
      <point x="118" y="372" type="line"/>
      <point x="87" y="255" type="line"/>
    </contour>
  </outline>
</glyph>
<glyph name="plus" format="2">
  <advance width="281"/>
  <unicode hex="002B"/>
  <outline>
    <contour>
      <point x="184" y="318" type="line"/>
      <point x="176" y="327" type="line"/>
      <point x="166" y="325"/>
      <point x="148" y="319"/>
      <point x="139" y="316" type="curve"/>
      <point x="108" y="93" type="line"/>
      <point x="116" y="84" type="line"/>
      <point x="127" y="87"/>
      <point x="143" y="92"/>
      <point x="153" y="96" type="curve"/>
    </contour>
    <contour>
      <point x="263" y="218" type="curve"/>
      <point x="257" y="227" type="line"/>
      <point x="42" y="227" type="line"/>
      <point x="36" y="217"/>
      <point x="30" y="203"/>
      <point x="27" y="194" type="curve"/>
      <point x="34" y="185" type="line"/>
      <point x="249" y="185" type="line"/>
      <point x="254" y="193"/>
      <point x="260" y="208"/>
    </contour>
  </outline>
</glyph>
<glyph name="comma" format="2">
  <advance width="150"/>
  <unicode hex="002C"/>
  <outline>
    <contour>
      <point x="114" y="37" type="curve"/>
      <point x="114" y="65"/>
      <point x="107" y="74"/>
      <point x="90" y="83" type="curve"/>
      <point x="73" y="83"/>
      <point x="18" y="59"/>
      <point x="7" y="47" type="curve"/>
      <point x="9" y="28" type="line"/>
      <point x="37" y="31"/>
      <point x="47" y="14"/>
      <point x="47" y="-2" type="curve" smooth="yes"/>
      <point x="47" y="-28"/>
      <point x="29" y="-62"/>
      <point x="-5" y="-100" type="curve"/>
      <point x="8" y="-114" type="line"/>
      <point x="57" y="-84"/>
      <point x="114" y="-5"/>
    </contour>
  </outline>
</glyph>
<glyph name="hyphen" format="2">
  <advance width="399"/>
  <unicode hex="002D"/>
  <outline>
    <contour>
      <point x="372" y="169" type="line"/>
      <point x="344" y="233" type="line"/>
      <point x="112" y="233" type="line"/>
      <point x="140" y="169" type="line"/>
    </contour>
  </outline>
</glyph>
<glyph name="period" format="2">
  <advance width="171"/>
  <unicode hex="002E"/>
  <outline>
    <contour>
      <point x="89" y="81" type="curve" smooth="yes"/>
      <point x="55" y="81"/>
      <point x="36" y="62"/>
      <point x="36" y="44" type="curve" smooth="yes"/>
      <point x="36" y="29"/>
      <point x="49" y="16"/>
      <point x="77" y="16" type="curve" smooth="yes"/>
      <point x="112" y="16"/>
      <point x="130" y="35"/>
      <point x="130" y="52" type="curve" smooth="yes"/>
      <point x="130" y="67"/>
      <point x="117" y="81"/>
    </contour>
  </outline>
</glyph>
<glyph name="slash" format="2">
  <advance width="275"/>
  <unicode hex="002F"/>
  <outline>
    <contour>
      <point x="381" y="522" type="line"/>
      <point x="325" y="522" type="line"/>
      <point x="12" y="0" type="line"/>
      <point x="68" y="0" type="line"/>
    </contour>
  </outline>
</glyph>
<glyph name="one" format="2">
  <advance width="434"/>
  <unicode hex="0031"/>
  <outline>
    <contour>
      <point x="283" y="58" type="curve" smooth="yes"/>
      <point x="283" y="67"/>
      <point x="285" y="83"/>
      <point x="290" y="106" type="curve" smooth="yes"/>
      <point x="368" y="477" type="line"/>
      <point x="342" y="477" type="line"/>
      <point x="209" y="455" type="line"/>
      <point x="204" y="434" type="line"/>
      <point x="218" y="434" type="line" smooth="yes"/>
      <point x="267" y="434"/>
      <point x="280" y="427"/>
      <point x="280" y="402" type="curve" smooth="yes"/>
      <point x="280" y="395"/>
      <point x="280" y="395"/>
      <point x="273" y="358" type="curve" smooth="yes"/>
      <point x="220" y="108" type="line"/>
      <point x="207" y="39"/>
      <point x="203" y="31"/>
      <point x="116" y="21" type="curve"/>
      <point x="112" y="0" type="line"/>
      <point x="351" y="0" type="line"/>
      <point x="355" y="21" type="line"/>
      <point x="296" y="21"/>
      <point x="283" y="30"/>
    </contour>
  </outline>
</glyph>
<glyph name="three" format="2">
  <advance width="434"/>
  <unicode hex="0033"/>
  <outline>
    <contour>
      <point x="435" y="163" type="curve" smooth="yes"/>
      <point x="435" y="241"/>
      <point x="356" y="259"/>
      <point x="321" y="265" type="curve"/>
      <point x="340" y="270"/>
      <point x="354" y="273"/>
      <point x="363" y="276" type="curve" smooth="yes"/>
      <point x="459" y="308"/>
      <point x="460" y="388"/>
      <point x="460" y="391" type="curve" smooth="yes"/>
      <point x="460" y="486"/>
      <point x="334" y="489"/>
      <point x="317" y="489" type="curve" smooth="yes"/>
      <point x="216" y="489"/>
      <point x="132" y="418"/>
      <point x="132" y="364" type="curve" smooth="yes"/>
      <point x="132" y="348"/>
      <point x="141" y="328"/>
      <point x="164" y="328" type="curve" smooth="yes"/>
      <point x="190" y="328"/>
      <point x="205" y="340"/>
      <point x="210" y="363" type="curve" smooth="yes"/>
      <point x="211" y="368"/>
      <point x="210" y="373"/>
      <point x="206" y="402" type="curve"/>
      <point x="214" y="440"/>
      <point x="265" y="458"/>
      <point x="306" y="458" type="curve" smooth="yes"/>
      <point x="376" y="458"/>
      <point x="383" y="410"/>
      <point x="383" y="391" type="curve" smooth="yes"/>
      <point x="383" y="349"/>
      <point x="356" y="276"/>
      <point x="247" y="276" type="curve"/>
      <point x="214" y="277" type="line"/>
      <point x="207" y="245" type="line"/>
      <point x="254" y="248" type="line"/>
      <point x="341" y="248"/>
      <point x="356" y="200"/>
      <point x="356" y="168" type="curve" smooth="yes"/>
      <point x="356" y="121"/>
      <point x="326" y="20"/>
      <point x="210" y="20" type="curve" smooth="yes"/>
      <point x="147" y="20"/>
      <point x="113" y="47"/>
      <point x="120" y="76" type="curve"/>
      <point x="125" y="90" type="line"/>
      <point x="133" y="106" type="line"/>
      <point x="137" y="129"/>
      <point x="125" y="147"/>
      <point x="102" y="147" type="curve" smooth="yes"/>
      <point x="68" y="147"/>
      <point x="47" y="112"/>
      <point x="47" y="85" type="curve" smooth="yes"/>
      <point x="47" y="37"/>
      <point x="100" y="-12"/>
      <point x="199" y="-12" type="curve" smooth="yes"/>
      <point x="338" y="-12"/>
      <point x="435" y="72"/>
    </contour>
  </outline>
</glyph>
<glyph name="six" format="2">
  <advance width="434"/>
  <unicode hex="0036"/>
  <outline>
    <contour>
      <point x="449" y="183" type="curve" smooth="yes"/>
      <point x="449" y="264"/>
      <point x="383" y="304"/>
      <point x="309" y="304" type="curve" smooth="yes"/>
      <point x="231" y="304"/>
      <point x="183" y="263"/>
      <point x="161" y="239" type="curve"/>
      <point x="167" y="269" type="line" smooth="yes"/>
      <point x="174" y="299"/>
      <point x="213" y="455"/>
      <point x="341" y="455" type="curve" smooth="yes"/>
      <point x="381" y="455"/>
      <point x="409" y="441"/>
      <point x="403" y="415" type="curve" smooth="yes"/>
      <point x="402" y="408"/>
      <point x="401" y="403"/>
      <point x="401" y="400" type="curve" smooth="yes"/>
      <point x="401" y="374"/>
      <point x="413" y="361"/>
      <point x="437" y="361" type="curve" smooth="yes"/>
      <point x="478" y="361"/>
      <point x="482" y="395"/>
      <point x="482" y="407" type="curve" smooth="yes"/>
      <point x="482" y="457"/>
      <point x="411" y="489"/>
      <point x="350" y="489" type="curve" smooth="yes"/>
      <point x="278" y="489"/>
      <point x="216" y="460"/>
      <point x="163" y="402" type="curve" smooth="yes"/>
      <point x="72" y="303"/>
      <point x="69" y="149"/>
      <point x="69" y="146" type="curve" smooth="yes"/>
      <point x="69" y="0"/>
      <point x="183" y="-12"/>
      <point x="222" y="-12" type="curve" smooth="yes"/>
      <point x="350" y="-12"/>
      <point x="449" y="84"/>
    </contour>
    <contour>
      <point x="228" y="22" type="curve" smooth="yes"/>
      <point x="147" y="22"/>
      <point x="141" y="88"/>
      <point x="141" y="107" type="curve" smooth="yes"/>
      <point x="141" y="144"/>
      <point x="166" y="267"/>
      <point x="288" y="267" type="curve" smooth="yes"/>
      <point x="365" y="267"/>
      <point x="371" y="202"/>
      <point x="371" y="181" type="curve" smooth="yes"/>
      <point x="371" y="128"/>
      <point x="336" y="22"/>
    </contour>
  </outline>
</glyph>
<glyph name="seven" format="2">
  <advance width="434"/>
  <unicode hex="0037"/>
  <outline>
    <contour>
      <point x="274" y="418" type="curve" smooth="yes"/>
      <point x="447" y="418" type="line"/>
      <point x="223" y="234"/>
      <point x="140" y="49"/>
      <point x="121" y="0" type="curve"/>
      <point x="213" y="0" type="line"/>
      <point x="230" y="66"/>
      <point x="252" y="109"/>
      <point x="261" y="127" type="curve"/>
      <point x="331" y="238" type="line"/>
      <point x="394" y="327"/>
      <point x="448" y="384"/>
      <point x="502" y="433" type="curve"/>
      <point x="506" y="477" type="line"/>
      <point x="165" y="477" type="line"/>
      <point x="117" y="352" type="line"/>
      <point x="139" y="352" type="line"/>
      <point x="172" y="416"/>
      <point x="207" y="418"/>
    </contour>
  </outline>
</glyph>
<glyph name="eight" format="2">
  <advance width="434"/>
  <unicode hex="0038"/>
  <outline>
    <contour>
      <point x="441" y="167" type="curve" smooth="yes"/>
      <point x="441" y="224"/>
      <point x="394" y="252"/>
      <point x="341" y="270" type="curve"/>
      <point x="431" y="287"/>
      <point x="470" y="346"/>
      <point x="470" y="396" type="curve" smooth="yes"/>
      <point x="470" y="488"/>
      <point x="332" y="489"/>
      <point x="325" y="489" type="curve" smooth="yes"/>
      <point x="215" y="489"/>
      <point x="130" y="416"/>
      <point x="130" y="330" type="curve" smooth="yes"/>
      <point x="130" y="284"/>
      <point x="159" y="261"/>
      <point x="199" y="246" type="curve"/>
      <point x="114" y="227"/>
      <point x="55" y="167"/>
      <point x="55" y="99" type="curve" smooth="yes"/>
      <point x="55" y="20"/>
      <point x="136" y="-12"/>
      <point x="209" y="-12" type="curve" smooth="yes"/>
      <point x="353" y="-12"/>
      <point x="441" y="84"/>
    </contour>
    <contour>
      <point x="308" y="282" type="curve"/>
      <point x="266" y="296" type="line" smooth="yes"/>
      <point x="240" y="305"/>
      <point x="197" y="322"/>
      <point x="197" y="360" type="curve" smooth="yes"/>
      <point x="197" y="408"/>
      <point x="248" y="461"/>
      <point x="329" y="461" type="curve" smooth="yes"/>
      <point x="372" y="461"/>
      <point x="413" y="439"/>
      <point x="413" y="392" type="curve" smooth="yes"/>
      <point x="413" y="305"/>
      <point x="318" y="284"/>
    </contour>
    <contour>
      <point x="224" y="17" type="curve" smooth="yes"/>
      <point x="178" y="17"/>
      <point x="115" y="36"/>
      <point x="115" y="98" type="curve" smooth="yes"/>
      <point x="115" y="187"/>
      <point x="203" y="224"/>
      <point x="232" y="234" type="curve"/>
      <point x="300" y="211" type="line"/>
      <point x="343" y="198"/>
      <point x="373" y="175"/>
      <point x="373" y="137" type="curve" smooth="yes"/>
      <point x="373" y="70"/>
      <point x="304" y="17"/>
    </contour>
  </outline>
</glyph>
<glyph name="nine" format="2">
  <advance width="299"/>
  <unicode hex="0039"/>
  <outline>
    <contour>
      <point x="292" y="300" type="curve"/>
      <point x="292" y="389"/>
      <point x="247" y="430"/>
      <point x="191" y="430" type="curve" smooth="yes"/>
      <point x="102" y="430"/>
      <point x="35" y="333"/>
      <point x="35" y="252" type="curve" smooth="yes"/>
      <point x="35" y="196"/>
      <point x="69" y="152"/>
      <point x="129" y="152" type="curve" smooth="yes"/>
      <point x="177" y="152"/>
      <point x="217" y="186"/>
      <point x="243" y="228" type="curve"/>
      <point x="244" y="268" type="line"/>
      <point x="223" y="228"/>
      <point x="193" y="195"/>
      <point x="151" y="195" type="curve" smooth="yes"/>
      <point x="127" y="195"/>
      <point x="95" y="210"/>
      <point x="95" y="268" type="curve" smooth="yes"/>
      <point x="95" y="320"/>
      <point x="114" y="391"/>
      <point x="174" y="391" type="curve" smooth="yes"/>
      <point x="201" y="391"/>
      <point x="228" y="366"/>
      <point x="228" y="293" type="curve" smooth="yes"/>
      <point x="228" y="147"/>
      <point x="171" y="42"/>
      <point x="25" y="9" type="curve"/>
      <point x="28" y="-14" type="line"/>
      <point x="199" y="6"/>
      <point x="292" y="141"/>
    </contour>
  </outline>
</glyph>
<glyph name="colon" format="2">
  <advance width="150"/>
  <unicode hex="003A"/>
  <outline>
    <contour>
      <point x="84" y="236" type="curve" smooth="yes"/>
      <point x="119" y="236"/>
      <point x="140" y="271"/>
      <point x="140" y="300" type="curve"/>
      <point x="140" y="321"/>
      <point x="128" y="335"/>
      <point x="107" y="335" type="curve" smooth="yes"/>
      <point x="74" y="335"/>
      <point x="51" y="299"/>
      <point x="51" y="272" type="curve" smooth="yes"/>
      <point x="51" y="250"/>
      <point x="62" y="236"/>
    </contour>
    <contour>
      <point x="50" y="-10" type="curve" smooth="yes"/>
      <point x="85" y="-10"/>
      <point x="106" y="25"/>
      <point x="106" y="54" type="curve"/>
      <point x="106" y="74"/>
      <point x="94" y="89"/>
      <point x="73" y="89" type="curve" smooth="yes"/>
      <point x="40" y="89"/>
      <point x="16" y="53"/>
      <point x="16" y="25" type="curve" smooth="yes"/>
      <point x="16" y="3"/>
      <point x="28" y="-10"/>
    </contour>
  </outline>
</glyph>
<glyph name="less" format="2">
  <advance width="298"/>
  <unicode hex="003C"/>
  <outline>
    <contour>
      <point x="226" y="87" type="line"/>
      <point x="240" y="96"/>
      <point x="247" y="103"/>
      <point x="258" y="112" type="curve"/>
      <point x="253" y="125" type="line"/>
      <point x="87" y="197" type="line"/>
      <point x="271" y="267" type="line"/>
      <point x="275" y="276"/>
      <point x="282" y="297"/>
      <point x="286" y="306" type="curve"/>
      <point x="278" y="315" type="line"/>
      <point x="33" y="220" type="line"/>
      <point x="28" y="212"/>
      <point x="21" y="195"/>
      <point x="18" y="184" type="curve"/>
      <point x="26" y="173" type="line"/>
    </contour>
  </outline>
</glyph>
<glyph name="equal" format="2">
  <advance width="307"/>
  <unicode hex="003D"/>
  <outline>
    <contour>
      <point x="280" y="163" type="curve"/>
      <point x="273" y="172" type="line"/>
      <point x="33" y="172" type="line"/>
      <point x="28" y="162"/>
      <point x="21" y="148"/>
      <point x="18" y="138" type="curve"/>
      <point x="25" y="130" type="line"/>
      <point x="265" y="130" type="line"/>
      <point x="270" y="138"/>
      <point x="277" y="153"/>
    </contour>
    <contour>
      <point x="294" y="273" type="curve"/>
      <point x="288" y="281" type="line"/>
      <point x="47" y="281" type="line"/>
      <point x="42" y="272"/>
      <point x="36" y="258"/>
      <point x="32" y="248" type="curve"/>
      <point x="39" y="239" type="line"/>
      <point x="280" y="239" type="line"/>
      <point x="284" y="247"/>
      <point x="291" y="263"/>
    </contour>
  </outline>
</glyph>
<glyph name="greater" format="2">
  <advance width="298"/>
  <unicode hex="003E"/>
  <outline>
    <contour>
      <point x="269" y="229" type="line"/>
      <point x="69" y="315" type="line"/>
      <point x="55" y="307"/>
      <point x="48" y="300"/>
      <point x="38" y="291" type="curve"/>
      <point x="42" y="277" type="line"/>
      <point x="208" y="206" type="line"/>
      <point x="24" y="135" type="line"/>
      <point x="20" y="127"/>
      <point x="13" y="106"/>
      <point x="10" y="97" type="curve"/>
      <point x="17" y="87" type="line"/>
      <point x="263" y="183" type="line"/>
      <point x="268" y="192"/>
      <point x="274" y="208"/>
      <point x="277" y="219" type="curve"/>
    </contour>
  </outline>
</glyph>
<glyph name="question" format="2">
  <advance width="291"/>
  <unicode hex="003F"/>
  <outline>
    <contour>
      <point x="291" y="413" type="curve"/>
      <point x="291" y="460"/>
      <point x="261" y="498"/>
      <point x="200" y="498" type="curve" smooth="yes"/>
      <point x="112" y="498"/>
      <point x="54" y="436"/>
      <point x="54" y="377" type="curve"/>
      <point x="62" y="365" type="line"/>
      <point x="82" y="367"/>
      <point x="102" y="372"/>
      <point x="123" y="382" type="curve"/>
      <point x="121" y="389"/>
      <point x="120" y="396"/>
      <point x="120" y="402" type="curve" smooth="yes"/>
      <point x="120" y="437"/>
      <point x="139" y="463"/>
      <point x="170" y="463" type="curve" smooth="yes"/>
      <point x="206" y="463"/>
      <point x="225" y="436"/>
      <point x="225" y="393" type="curve" smooth="yes"/>
      <point x="225" y="308"/>
      <point x="118" y="263"/>
      <point x="114" y="171" type="curve" smooth="yes"/>
      <point x="112" y="130" type="line"/>
      <point x="120" y="123" type="line"/>
      <point x="132" y="126"/>
      <point x="141" y="132"/>
      <point x="150" y="138" type="curve"/>
      <point x="154" y="170" type="line" smooth="yes"/>
      <point x="166" y="266"/>
      <point x="291" y="292"/>
    </contour>
    <contour>
      <point x="162" y="54" type="curve"/>
      <point x="162" y="74"/>
      <point x="150" y="89"/>
      <point x="129" y="89" type="curve" smooth="yes"/>
      <point x="96" y="89"/>
      <point x="73" y="53"/>
      <point x="73" y="25" type="curve" smooth="yes"/>
      <point x="73" y="3"/>
      <point x="85" y="-10"/>
      <point x="106" y="-10" type="curve" smooth="yes"/>
      <point x="141" y="-10"/>
      <point x="162" y="25"/>
    </contour>
  </outline>
</glyph>
<glyph name="at" format="2">
  <advance width="583"/>
  <unicode hex="0040"/>
  <outline>
    <contour>
      <point x="549" y="201" type="curve"/>
      <point x="576" y="384"/>
      <point x="481" y="488"/>
      <point x="351" y="488" type="curve" smooth="yes"/>
      <point x="191" y="488"/>
      <point x="53" y="335"/>
      <point x="30" y="170" type="curve" smooth="yes"/>
      <point x="3" y="-17"/>
      <point x="105" y="-137"/>
      <point x="267" y="-137" type="curve" smooth="yes"/>
      <point x="362" y="-137"/>
      <point x="438" y="-87"/>
      <point x="476" y="-50" type="curve"/>
      <point x="470" y="-30" type="line"/>
      <point x="439" y="-54"/>
      <point x="364" y="-93"/>
      <point x="291" y="-93" type="curve" smooth="yes"/>
      <point x="158" y="-93"/>
      <point x="59" y="7"/>
      <point x="83" y="184" type="curve" smooth="yes"/>
      <point x="102" y="316"/>
      <point x="196" y="444"/>
      <point x="332" y="444" type="curve" smooth="yes"/>
      <point x="440" y="444"/>
      <point x="531" y="351"/>
      <point x="506" y="186" type="curve" smooth="yes"/>
      <point x="493" y="103"/>
      <point x="437" y="34"/>
      <point x="413" y="34" type="curve" smooth="yes"/>
      <point x="401" y="34"/>
      <point x="390" y="46"/>
      <point x="390" y="102" type="curve" smooth="yes"/>
      <point x="390" y="123"/>
      <point x="401" y="208"/>
      <point x="416" y="278" type="curve" smooth="yes"/>
      <point x="422" y="311"/>
      <point x="427" y="316"/>
      <point x="443" y="329" type="curve"/>
      <point x="436" y="342" type="line"/>
      <point x="403" y="327"/>
      <point x="371" y="304"/>
      <point x="366" y="281" type="curve" smooth="yes"/>
      <point x="361" y="253"/>
      <point x="339" y="131"/>
      <point x="339" y="102" type="curve" smooth="yes"/>
      <point x="339" y="5"/>
      <point x="358" y="-15"/>
      <point x="375" y="-15" type="curve" smooth="yes"/>
      <point x="433" y="-15"/>
      <point x="532" y="74"/>
    </contour>
    <contour>
      <point x="425" y="308" type="curve"/>
      <point x="407" y="310"/>
      <point x="381" y="342"/>
      <point x="348" y="342" type="curve" smooth="yes"/>
      <point x="317" y="342"/>
      <point x="279" y="326"/>
      <point x="253" y="308" type="curve" smooth="yes"/>
      <point x="184" y="261"/>
      <point x="155" y="188"/>
      <point x="155" y="111" type="curve" smooth="yes"/>
      <point x="155" y="20"/>
      <point x="200" y="-15"/>
      <point x="233" y="-15" type="curve" smooth="yes"/>
      <point x="274" y="-15"/>
      <point x="316" y="57"/>
      <point x="340" y="102" type="curve"/>
      <point x="350" y="167" type="line"/>
      <point x="322" y="108"/>
      <point x="281" y="35"/>
      <point x="256" y="35" type="curve" smooth="yes"/>
      <point x="228" y="35"/>
      <point x="205" y="75"/>
      <point x="205" y="138" type="curve" smooth="yes"/>
      <point x="205" y="196"/>
      <point x="244" y="304"/>
      <point x="311" y="304" type="curve" smooth="yes"/>
      <point x="350" y="304"/>
      <point x="377" y="264"/>
      <point x="390" y="264" type="curve" smooth="yes"/>
      <point x="402" y="264"/>
      <point x="404" y="294"/>
    </contour>
  </outline>
</glyph>
<glyph name="A" format="2">
  <advance width="405"/>
  <unicode hex="0041"/>
  <anchor x="182" y="0" name="H"/>
  <anchor x="244" y="460" name="U"/>
  <outline>
    <contour>
      <point x="144" y="188" type="line"/>
      <point x="223" y="369" type="line"/>
      <point x="255" y="188" type="line"/>
    </contour>
    <contour>
      <point x="261" y="153" type="line"/>
      <point x="281" y="42" type="line" smooth="yes"/>
      <point x="284" y="27"/>
      <point x="270" y="20"/>
      <point x="237" y="18" type="curve"/>
      <point x="235" y="0" type="line"/>
      <point x="378" y="0" type="line"/>
      <point x="380" y="18" type="line"/>
      <point x="351" y="22"/>
      <point x="345" y="29"/>
      <point x="342" y="42" type="curve" smooth="yes"/>
      <point x="266" y="459" type="line"/>
      <point x="250" y="452"/>
      <point x="224" y="439"/>
      <point x="208" y="425" type="curve"/>
      <point x="41" y="42" type="line" smooth="yes"/>
      <point x="35" y="28"/>
      <point x="18" y="24"/>
      <point x="-11" y="18" type="curve"/>
      <point x="-13" y="0" type="line"/>
      <point x="121" y="0" type="line"/>
      <point x="123" y="18" type="line"/>
      <point x="88" y="23"/>
      <point x="75" y="27"/>
      <point x="81" y="42" type="curve" smooth="yes"/>
      <point x="129" y="153" type="line"/>
    </contour>
  </outline>
</glyph>
<glyph name="B" format="2">
  <advance width="362"/>
  <unicode hex="0042"/>
  <outline>
    <contour>
      <point x="336" y="142" type="curve"/>
      <point x="336" y="198"/>
      <point x="302" y="242"/>
      <point x="253" y="252" type="curve"/>
      <point x="301" y="270"/>
      <point x="334" y="314"/>
      <point x="334" y="362" type="curve" smooth="yes"/>
      <point x="334" y="417"/>
      <point x="286" y="449"/>
      <point x="205" y="449" type="curve" smooth="yes"/>
      <point x="140" y="449"/>
      <point x="91" y="440"/>
      <point x="48" y="427" type="curve"/>
      <point x="48" y="403" type="line"/>
      <point x="83" y="411"/>
      <point x="119" y="418"/>
      <point x="194" y="418" type="curve" smooth="yes"/>
      <point x="226" y="418"/>
      <point x="269" y="399"/>
      <point x="269" y="344" type="curve" smooth="yes"/>
      <point x="269" y="273"/>
      <point x="211" y="254"/>
      <point x="151" y="254" type="curve" smooth="yes"/>
      <point x="119" y="254" type="line"/>
      <point x="118" y="216" type="line"/>
      <point x="136" y="221"/>
      <point x="156" y="224"/>
      <point x="184" y="224" type="curve" smooth="yes"/>
      <point x="247" y="224"/>
      <point x="271" y="177"/>
      <point x="271" y="130" type="curve" smooth="yes"/>
      <point x="271" y="74"/>
      <point x="234" y="21"/>
      <point x="175" y="21" type="curve" smooth="yes"/>
      <point x="152" y="21"/>
      <point x="123" y="25"/>
      <point x="107" y="37" type="curve"/>
      <point x="21" y="0" type="line"/>
      <point x="58" y="-3"/>
      <point x="134" y="-10"/>
      <point x="164" y="-10" type="curve"/>
      <point x="257" y="-10"/>
      <point x="336" y="52"/>
    </contour>
    <contour>
      <point x="165" y="437" type="line"/>
      <point x="104" y="437" type="line"/>
      <point x="49" y="39" type="line" smooth="yes"/>
      <point x="48" y="33"/>
      <point x="30" y="24"/>
      <point x="1" y="18" type="curve"/>
      <point x="0" y="0" type="line"/>
      <point x="151" y="0" type="line"/>
      <point x="153" y="18" type="line"/>
      <point x="124" y="24"/>
      <point x="109" y="34"/>
      <point x="110" y="39" type="curve" smooth="yes"/>
    </contour>
  </outline>
</glyph>
<glyph name="C" format="2">
  <advance width="364"/>
  <unicode hex="0043"/>
  <anchor x="170" y="0" name="H"/>
  <anchor x="251" y="483" name="U"/>
  <outline>
    <contour>
      <point x="372" y="435" type="curve" smooth="yes"/>
      <point x="350" y="455"/>
      <point x="316" y="472"/>
      <point x="268" y="472" type="curve" smooth="yes"/>
      <point x="222" y="472"/>
      <point x="180" y="455"/>
      <point x="145" y="427" type="curve" smooth="yes"/>
      <point x="62" y="362"/>
      <point x="27" y="260"/>
      <point x="27" y="168" type="curve" smooth="yes"/>
      <point x="27" y="54"/>
      <point x="93" y="-9"/>
      <point x="167" y="-9" type="curve" smooth="yes"/>
      <point x="213" y="-9"/>
      <point x="262" y="10"/>
      <point x="328" y="77" type="curve"/>
      <point x="326" y="82"/>
      <point x="321" y="90"/>
      <point x="317" y="93" type="curve"/>
      <point x="263" y="50"/>
      <point x="226" y="35"/>
      <point x="198" y="35" type="curve" smooth="yes"/>
      <point x="147" y="35"/>
      <point x="83" y="82"/>
      <point x="83" y="188" type="curve" smooth="yes"/>
      <point x="83" y="250"/>
      <point x="107" y="354"/>
      <point x="168" y="402" type="curve" smooth="yes"/>
      <point x="188" y="417"/>
      <point x="215" y="428"/>
      <point x="234" y="428" type="curve" smooth="yes"/>
      <point x="274" y="428"/>
      <point x="302" y="411"/>
      <point x="322" y="390" type="curve"/>
      <point x="333" y="387" type="line"/>
      <point x="346" y="398"/>
      <point x="376" y="431"/>
    </contour>
  </outline>
</glyph>
<glyph name="D" format="2">
  <advance width="400"/>
  <unicode hex="0044"/>
  <anchor x="234" y="460" name="U"/>
  <outline>
    <contour>
      <point x="387" y="260" type="curve" smooth="yes"/>
      <point x="387" y="375"/>
      <point x="325" y="449"/>
      <point x="207" y="449" type="curve" smooth="yes"/>
      <point x="160" y="449"/>
      <point x="102" y="444"/>
      <point x="49" y="431" type="curve"/>
      <point x="49" y="405" type="line"/>
      <point x="100" y="412" type="line"/>
      <point x="49" y="39" type="line" smooth="yes"/>
      <point x="49" y="33"/>
      <point x="30" y="24"/>
      <point x="1" y="18" type="curve"/>
      <point x="0" y="0" type="line"/>
      <point x="171" y="0" type="line" smooth="yes"/>
      <point x="309" y="0"/>
      <point x="387" y="137"/>
    </contour>
    <contour>
      <point x="183" y="418" type="curve" smooth="yes"/>
      <point x="275" y="418"/>
      <point x="320" y="352"/>
      <point x="320" y="253" type="curve" smooth="yes"/>
      <point x="320" y="155"/>
      <point x="264" y="31"/>
      <point x="163" y="31" type="curve" smooth="yes"/>
      <point x="121" y="31"/>
      <point x="111" y="37"/>
      <point x="113" y="51" type="curve" smooth="yes"/>
      <point x="162" y="417" type="line"/>
      <point x="169" y="417"/>
      <point x="176" y="418"/>
    </contour>
  </outline>
</glyph>
<glyph name="E" format="2">
  <advance width="346"/>
  <unicode hex="0045"/>
  <anchor x="150" y="0" name="H"/>
  <anchor x="216" y="483" name="U"/>
  <outline>
    <contour>
      <point x="342" y="452" type="curve"/>
      <point x="333" y="461" type="line"/>
      <point x="157" y="461" type="line"/>
      <point x="143" y="428" type="line"/>
      <point x="282" y="428" type="line" smooth="yes"/>
      <point x="299" y="428"/>
      <point x="306" y="414"/>
      <point x="302" y="369" type="curve"/>
      <point x="317" y="369" type="line"/>
      <point x="326" y="388"/>
      <point x="338" y="427"/>
    </contour>
    <contour>
      <point x="282" y="258" type="curve"/>
      <point x="275" y="269" type="line"/>
      <point x="125" y="269" type="line"/>
      <point x="113" y="239" type="line"/>
      <point x="159" y="239" type="line" smooth="yes"/>
      <point x="214" y="239"/>
      <point x="231" y="236"/>
      <point x="246" y="219" type="curve"/>
      <point x="257" y="228"/>
      <point x="272" y="245"/>
    </contour>
    <contour>
      <point x="313" y="89" type="curve"/>
      <point x="299" y="95" type="line"/>
      <point x="272" y="38"/>
      <point x="259" y="32"/>
      <point x="218" y="32" type="curve" smooth="yes"/>
      <point x="174" y="32" type="line" smooth="yes"/>
      <point x="116" y="32"/>
      <point x="107" y="41"/>
      <point x="109" y="56" type="curve" smooth="yes"/>
      <point x="160" y="430" type="line" smooth="yes"/>
      <point x="161" y="437"/>
      <point x="180" y="442"/>
      <point x="211" y="445" type="curve"/>
      <point x="213" y="461" type="line"/>
      <point x="63" y="461" type="line"/>
      <point x="61" y="445" type="line"/>
      <point x="93" y="438"/>
      <point x="108" y="428"/>
      <point x="107" y="422" type="curve" smooth="yes"/>
      <point x="53" y="38" type="line" smooth="yes"/>
      <point x="53" y="31"/>
      <point x="32" y="22"/>
      <point x="2" y="15" type="curve"/>
      <point x="0" y="0" type="line"/>
      <point x="287" y="0" type="line"/>
      <point x="292" y="14"/>
      <point x="303" y="47"/>
    </contour>
  </outline>
</glyph>
<glyph name="F" format="2">
  <advance width="326"/>
  <unicode hex="0046"/>
  <anchor x="207" y="483" name="U"/>
  <outline>
    <contour>
      <point x="345" y="452" type="curve"/>
      <point x="336" y="461" type="line"/>
      <point x="157" y="461" type="line"/>
      <point x="143" y="428" type="line"/>
      <point x="285" y="428" type="line" smooth="yes"/>
      <point x="302" y="428"/>
      <point x="309" y="414"/>
      <point x="306" y="369" type="curve"/>
      <point x="321" y="369" type="line"/>
      <point x="329" y="388"/>
      <point x="341" y="427"/>
    </contour>
    <contour>
      <point x="264" y="258" type="curve"/>
      <point x="256" y="269" type="line"/>
      <point x="125" y="269" type="line"/>
      <point x="113" y="239" type="line"/>
      <point x="159" y="239" type="line" smooth="yes"/>
      <point x="191" y="239"/>
      <point x="212" y="236"/>
      <point x="228" y="219" type="curve"/>
      <point x="239" y="228"/>
      <point x="254" y="245"/>
    </contour>
    <contour>
      <point x="213" y="461" type="line"/>
      <point x="63" y="461" type="line"/>
      <point x="61" y="445" type="line"/>
      <point x="93" y="438"/>
      <point x="108" y="428"/>
      <point x="107" y="422" type="curve" smooth="yes"/>
      <point x="53" y="38" type="line" smooth="yes"/>
      <point x="53" y="31"/>
      <point x="32" y="22"/>
      <point x="2" y="15" type="curve"/>
      <point x="0" y="0" type="line"/>
      <point x="160" y="0" type="line"/>
      <point x="162" y="15" type="line"/>
      <point x="120" y="24"/>
      <point x="105" y="32"/>
      <point x="106" y="38" type="curve" smooth="yes"/>
      <point x="160" y="430" type="line" smooth="yes"/>
      <point x="161" y="437"/>
      <point x="180" y="442"/>
      <point x="211" y="445" type="curve"/>
    </contour>
  </outline>
</glyph>
<glyph name="G" format="2">
  <advance width="379"/>
  <unicode hex="0047"/>
  <outline>
    <contour>
      <point x="377" y="207" type="line"/>
      <point x="208" y="207" type="line"/>
      <point x="206" y="188" type="line"/>
      <point x="276" y="178"/>
      <point x="282" y="170"/>
      <point x="281" y="160" type="curve" smooth="yes"/>
      <point x="266" y="56" type="line"/>
      <point x="250" y="44"/>
      <point x="226" y="37"/>
      <point x="204" y="37" type="curve" smooth="yes"/>
      <point x="150" y="37"/>
      <point x="87" y="82"/>
      <point x="87" y="181" type="curve" smooth="yes"/>
      <point x="87" y="246"/>
      <point x="116" y="337"/>
      <point x="159" y="374" type="curve" smooth="yes"/>
      <point x="184" y="394"/>
      <point x="210" y="407"/>
      <point x="229" y="407" type="curve" smooth="yes"/>
      <point x="272" y="407"/>
      <point x="300" y="392"/>
      <point x="321" y="362" type="curve"/>
      <point x="334" y="359" type="line"/>
      <point x="347" y="369"/>
      <point x="380" y="409"/>
      <point x="374" y="414" type="curve"/>
      <point x="351" y="437"/>
      <point x="306" y="449"/>
      <point x="277" y="449" type="curve" smooth="yes"/>
      <point x="218" y="449"/>
      <point x="169" y="429"/>
      <point x="130" y="397" type="curve" smooth="yes"/>
      <point x="67" y="347"/>
      <point x="24" y="255"/>
      <point x="24" y="166" type="curve" smooth="yes"/>
      <point x="24" y="54"/>
      <point x="98" y="-10"/>
      <point x="177" y="-10" type="curve" smooth="yes"/>
      <point x="215" y="-10"/>
      <point x="254" y="-1"/>
      <point x="324" y="55" type="curve"/>
      <point x="326" y="73"/>
      <point x="335" y="135"/>
      <point x="338" y="160" type="curve" smooth="yes"/>
      <point x="340" y="170"/>
      <point x="350" y="181"/>
      <point x="375" y="188" type="curve"/>
    </contour>
  </outline>
</glyph>
<glyph name="H" format="2">
  <advance width="438"/>
  <unicode hex="0048"/>
  <anchor x="77" y="0" name="H"/>
  <anchor x="261" y="460" name="U"/>
  <outline>
    <contour>
      <point x="457" y="439" type="line"/>
      <point x="305" y="439" type="line"/>
      <point x="303" y="420" type="line"/>
      <point x="332" y="414"/>
      <point x="346" y="404"/>
      <point x="345" y="399" type="curve" smooth="yes"/>
      <point x="295" y="39" type="line" smooth="yes"/>
      <point x="295" y="33"/>
      <point x="277" y="24"/>
      <point x="247" y="18" type="curve"/>
      <point x="245" y="0" type="line"/>
      <point x="396" y="0" type="line"/>
      <point x="399" y="18" type="line"/>
      <point x="369" y="24"/>
      <point x="355" y="34"/>
      <point x="356" y="39" type="curve" smooth="yes"/>
      <point x="406" y="399" type="line" smooth="yes"/>
      <point x="407" y="405"/>
      <point x="425" y="414"/>
      <point x="454" y="420" type="curve"/>
    </contour>
    <contour>
      <point x="330" y="247" type="line"/>
      <point x="130" y="247" type="line"/>
      <point x="124" y="212" type="line"/>
      <point x="325" y="212" type="line"/>
    </contour>
    <contour>
      <point x="211" y="439" type="line"/>
      <point x="59" y="439" type="line"/>
      <point x="57" y="420" type="line"/>
      <point x="87" y="414"/>
      <point x="100" y="404"/>
      <point x="99" y="399" type="curve" smooth="yes"/>
      <point x="50" y="39" type="line" smooth="yes"/>
      <point x="49" y="33"/>
      <point x="31" y="24"/>
      <point x="1" y="18" type="curve"/>
      <point x="0" y="0" type="line"/>
      <point x="150" y="0" type="line"/>
      <point x="153" y="18" type="line"/>
      <point x="123" y="24"/>
      <point x="109" y="34"/>
      <point x="110" y="39" type="curve"/>
      <point x="159" y="399" type="line"/>
      <point x="161" y="405"/>
      <point x="179" y="414"/>
      <point x="208" y="420" type="curve"/>
    </contour>
  </outline>
</glyph>
<glyph name="I" format="2">
  <advance width="209"/>
  <unicode hex="0049"/>
  <anchor x="82" y="0" name="H"/>
  <anchor x="148" y="483" name="U"/>
  <outline>
    <contour>
      <point x="221" y="461" type="line"/>
      <point x="71" y="461" type="line"/>
      <point x="68" y="445" type="line"/>
      <point x="99" y="438"/>
      <point x="114" y="428"/>
      <point x="113" y="422" type="curve" smooth="yes"/>
      <point x="61" y="38" type="line" smooth="yes"/>
      <point x="60" y="31"/>
      <point x="40" y="22"/>
      <point x="9" y="15" type="curve"/>
      <point x="7" y="0" type="line"/>
      <point x="157" y="0" type="line"/>
      <point x="159" y="15" type="line"/>
      <point x="128" y="22"/>
      <point x="113" y="32"/>
      <point x="113" y="38" type="curve" smooth="yes"/>
      <point x="167" y="422" type="line" smooth="yes"/>
      <point x="168" y="429"/>
      <point x="188" y="438"/>
      <point x="218" y="445" type="curve"/>
    </contour>
  </outline>
</glyph>
<glyph name="J" format="2">
  <advance width="211"/>
  <unicode hex="004A"/>
  <anchor x="157" y="483" name="U"/>
  <outline>
    <contour>
      <point x="230" y="461" type="line"/>
      <point x="62" y="461" type="line"/>
      <point x="61" y="445" type="line"/>
      <point x="113" y="437"/>
      <point x="124" y="428"/>
      <point x="123" y="422" type="curve" smooth="yes"/>
      <point x="72" y="48" type="line" smooth="yes"/>
      <point x="56" y="-65"/>
      <point x="19" y="-94"/>
      <point x="-3" y="-94" type="curve" smooth="yes"/>
      <point x="-33" y="-94"/>
      <point x="-42" y="-73"/>
      <point x="-52" y="-73" type="curve" smooth="yes"/>
      <point x="-64" y="-73"/>
      <point x="-96" y="-100"/>
      <point x="-96" y="-110" type="curve" smooth="yes"/>
      <point x="-96" y="-118"/>
      <point x="-72" y="-139"/>
      <point x="-45" y="-139" type="curve" smooth="yes"/>
      <point x="-28" y="-139"/>
      <point x="10" y="-126"/>
      <point x="36" y="-105" type="curve" smooth="yes"/>
      <point x="76" y="-74"/>
      <point x="112" y="-40"/>
      <point x="128" y="75" type="curve" smooth="yes"/>
      <point x="176" y="422" type="line" smooth="yes"/>
      <point x="177" y="429"/>
      <point x="197" y="438"/>
      <point x="228" y="445" type="curve"/>
    </contour>
  </outline>
</glyph>
<glyph name="K" format="2">
  <advance width="403"/>
  <unicode hex="004B"/>
  <anchor x="73" y="0" name="H"/>
  <anchor x="260" y="483" name="U"/>
  <outline>
    <contour>
      <point x="425" y="461" type="line"/>
      <point x="284" y="461" type="line"/>
      <point x="282" y="445" type="line"/>
      <point x="316" y="442"/>
      <point x="327" y="438"/>
      <point x="302" y="413" type="curve"/>
      <point x="132" y="235" type="line"/>
      <point x="175" y="235" type="line"/>
      <point x="362" y="422" type="line" smooth="yes"/>
      <point x="378" y="438"/>
      <point x="392" y="441"/>
      <point x="422" y="445" type="curve"/>
    </contour>
    <contour>
      <point x="394" y="40" type="curve"/>
      <point x="387" y="53" type="line"/>
      <point x="342" y="35"/>
      <point x="327" y="36"/>
      <point x="313" y="57" type="curve"/>
      <point x="172" y="264" type="line"/>
      <point x="132" y="235" type="line"/>
      <point x="267" y="18" type="line" smooth="yes"/>
      <point x="279" y="0"/>
      <point x="287" y="-5"/>
      <point x="302" y="-5" type="curve" smooth="yes"/>
      <point x="321" y="-5"/>
      <point x="357" y="12"/>
    </contour>
    <contour>
      <point x="213" y="461" type="line"/>
      <point x="63" y="461" type="line"/>
      <point x="61" y="445" type="line"/>
      <point x="93" y="438"/>
      <point x="108" y="428"/>
      <point x="107" y="422" type="curve" smooth="yes"/>
      <point x="53" y="38" type="line" smooth="yes"/>
      <point x="53" y="31"/>
      <point x="32" y="22"/>
      <point x="2" y="15" type="curve"/>
      <point x="0" y="0" type="line"/>
      <point x="150" y="0" type="line"/>
      <point x="152" y="15" type="line"/>
      <point x="121" y="22"/>
      <point x="105" y="32"/>
      <point x="107" y="38" type="curve"/>
      <point x="159" y="422" type="line"/>
      <point x="161" y="429"/>
      <point x="180" y="438"/>
      <point x="211" y="445" type="curve"/>
    </contour>
  </outline>
</glyph>
<glyph name="L" format="2">
  <advance width="336"/>
  <unicode hex="004C"/>
  <anchor x="151" y="0" name="H"/>
  <anchor x="203" y="483" name="U"/>
  <outline>
    <contour>
      <point x="310" y="89" type="curve"/>
      <point x="296" y="95" type="line"/>
      <point x="269" y="38"/>
      <point x="256" y="32"/>
      <point x="215" y="32" type="curve" smooth="yes"/>
      <point x="168" y="32" type="line" smooth="yes"/>
      <point x="120" y="32"/>
      <point x="107" y="38"/>
      <point x="109" y="56" type="curve" smooth="yes"/>
      <point x="159" y="422" type="line"/>
      <point x="161" y="429"/>
      <point x="180" y="438"/>
      <point x="211" y="445" type="curve"/>
      <point x="213" y="461" type="line"/>
      <point x="63" y="461" type="line"/>
      <point x="61" y="445" type="line"/>
      <point x="93" y="438"/>
      <point x="108" y="428"/>
      <point x="107" y="422" type="curve" smooth="yes"/>
      <point x="53" y="38" type="line" smooth="yes"/>
      <point x="53" y="31"/>
      <point x="32" y="22"/>
      <point x="2" y="15" type="curve"/>
      <point x="0" y="0" type="line"/>
      <point x="283" y="0" type="line"/>
      <point x="289" y="14"/>
      <point x="300" y="47"/>
    </contour>
  </outline>
</glyph>
<glyph name="M" format="2">
  <advance width="538"/>
  <unicode hex="004D"/>
  <anchor x="423" y="0" name="H"/>
  <anchor x="313" y="460" name="U"/>
  <outline>
    <contour>
      <point x="502" y="18" type="line"/>
      <point x="472" y="24"/>
      <point x="457" y="34"/>
      <point x="457" y="39" type="curve" smooth="yes"/>
      <point x="501" y="419" type="line"/>
      <point x="443" y="400" type="line"/>
      <point x="401" y="39" type="line" smooth="yes"/>
      <point x="401" y="33"/>
      <point x="380" y="24"/>
      <point x="351" y="18" type="curve"/>
      <point x="348" y="0" type="line"/>
      <point x="500" y="0" type="line"/>
    </contour>
    <contour>
      <point x="547" y="439" type="line"/>
      <point x="451" y="439" type="line" smooth="yes"/>
      <point x="442" y="439"/>
      <point x="439" y="435"/>
      <point x="425" y="410" type="curve" smooth="yes"/>
      <point x="258" y="91" type="line" smooth="yes"/>
      <point x="250" y="76"/>
      <point x="249" y="58"/>
      <point x="251" y="0" type="curve"/>
      <point x="252" y="0" type="line"/>
      <point x="443" y="365" type="line" smooth="yes"/>
      <point x="458" y="394"/>
      <point x="517" y="420"/>
      <point x="545" y="420" type="curve"/>
    </contour>
    <contour>
      <point x="269" y="92" type="curve"/>
      <point x="181" y="410" type="line"/>
      <point x="174" y="435"/>
      <point x="172" y="439"/>
      <point x="164" y="439" type="curve" smooth="yes"/>
      <point x="65" y="439" type="line"/>
      <point x="63" y="420" type="line"/>
      <point x="86" y="420"/>
      <point x="123" y="409"/>
      <point x="134" y="367" type="curve" smooth="yes"/>
      <point x="232" y="0" type="line"/>
      <point x="251" y="0" type="line"/>
      <point x="269" y="58"/>
      <point x="273" y="77"/>
    </contour>
    <contour>
      <point x="148" y="422" type="line"/>
      <point x="106" y="413" type="line"/>
      <point x="52" y="39" type="line" smooth="yes"/>
      <point x="51" y="33"/>
      <point x="34" y="24"/>
      <point x="4" y="18" type="curve"/>
      <point x="1" y="0" type="line"/>
      <point x="132" y="0" type="line"/>
      <point x="134" y="18" type="line"/>
      <point x="104" y="24"/>
      <point x="91" y="34"/>
      <point x="92" y="39" type="curve" smooth="yes"/>
    </contour>
  </outline>
</glyph>
<glyph name="N" format="2">
  <advance width="453"/>
  <unicode hex="004E"/>
  <anchor x="344" y="0" name="H"/>
  <anchor x="269" y="483" name="U"/>
  <outline>
    <contour>
      <point x="473" y="461" type="line"/>
      <point x="340" y="461" type="line"/>
      <point x="338" y="445" type="line"/>
      <point x="372" y="440"/>
      <point x="384" y="428"/>
      <point x="383" y="422" type="curve" smooth="yes"/>
      <point x="338" y="94" type="line"/>
      <point x="161" y="432" type="line" smooth="yes"/>
      <point x="146" y="460"/>
      <point x="146" y="461"/>
      <point x="125" y="461" type="curve" smooth="yes"/>
      <point x="60" y="461" type="line"/>
      <point x="57" y="445" type="line"/>
      <point x="78" y="442"/>
      <point x="93" y="437"/>
      <point x="105" y="422" type="curve"/>
      <point x="52" y="38" type="line" smooth="yes"/>
      <point x="51" y="31"/>
      <point x="35" y="20"/>
      <point x="2" y="15" type="curve"/>
      <point x="0" y="0" type="line"/>
      <point x="133" y="0" type="line"/>
      <point x="135" y="15" type="line"/>
      <point x="102" y="20"/>
      <point x="90" y="31"/>
      <point x="91" y="38" type="curve" smooth="yes"/>
      <point x="136" y="367" type="line"/>
      <point x="318" y="16" type="line" smooth="yes"/>
      <point x="329" y="-5"/>
      <point x="341" y="-8"/>
      <point x="362" y="-11" type="curve"/>
      <point x="422" y="422" type="line" smooth="yes"/>
      <point x="423" y="431"/>
      <point x="439" y="440"/>
      <point x="471" y="445" type="curve"/>
    </contour>
  </outline>
</glyph>
<glyph name="O" format="2">
  <advance width="408"/>
  <unicode hex="004F"/>
  <anchor x="183" y="0" name="H"/>
  <anchor x="256" y="483" name="U"/>
  <outline>
    <contour>
      <point x="397" y="283" type="curve"/>
      <point x="397" y="386"/>
      <point x="354" y="472"/>
      <point x="258" y="472" type="curve" smooth="yes"/>
      <point x="188" y="472"/>
      <point x="135" y="427"/>
      <point x="94" y="372" type="curve" smooth="yes"/>
      <point x="54" y="320"/>
      <point x="32" y="239"/>
      <point x="32" y="177" type="curve" smooth="yes"/>
      <point x="32" y="75"/>
      <point x="78" y="-11"/>
      <point x="172" y="-11" type="curve" smooth="yes"/>
      <point x="237" y="-11"/>
      <point x="288" y="30"/>
      <point x="329" y="82" type="curve" smooth="yes"/>
      <point x="373" y="138"/>
      <point x="397" y="214"/>
    </contour>
    <contour>
      <point x="342" y="276" type="curve"/>
      <point x="342" y="183"/>
      <point x="302" y="36"/>
      <point x="188" y="36" type="curve" smooth="yes"/>
      <point x="128" y="36"/>
      <point x="88" y="103"/>
      <point x="88" y="194" type="curve" smooth="yes"/>
      <point x="88" y="287"/>
      <point x="131" y="426"/>
      <point x="242" y="426" type="curve" smooth="yes"/>
      <point x="306" y="426"/>
      <point x="342" y="359"/>
    </contour>
  </outline>
</glyph>
<glyph name="P" format="2">
  <advance width="347"/>
  <unicode hex="0050"/>
  <outline>
    <contour>
      <point x="353" y="328" type="curve"/>
      <point x="353" y="408"/>
      <point x="294" y="449"/>
      <point x="199" y="449" type="curve" smooth="yes"/>
      <point x="139" y="449"/>
      <point x="89" y="441"/>
      <point x="48" y="427" type="curve"/>
      <point x="48" y="402" type="line"/>
      <point x="99" y="414"/>
      <point x="137" y="418"/>
      <point x="179" y="418" type="curve" smooth="yes"/>
      <point x="238" y="418"/>
      <point x="291" y="393"/>
      <point x="291" y="315" type="curve" smooth="yes"/>
      <point x="291" y="254"/>
      <point x="252" y="214"/>
      <point x="192" y="214" type="curve" smooth="yes"/>
      <point x="177" y="214"/>
      <point x="162" y="219"/>
      <point x="147" y="226" type="curve"/>
      <point x="151" y="196" type="line"/>
      <point x="164" y="189"/>
      <point x="183" y="184"/>
      <point x="201" y="184" type="curve" smooth="yes"/>
      <point x="284" y="184"/>
      <point x="353" y="249"/>
    </contour>
    <contour>
      <point x="165" y="435" type="line"/>
      <point x="104" y="435" type="line"/>
      <point x="49" y="39" type="line" smooth="yes"/>
      <point x="49" y="33"/>
      <point x="30" y="24"/>
      <point x="1" y="18" type="curve"/>
      <point x="0" y="0" type="line"/>
      <point x="161" y="0" type="line"/>
      <point x="163" y="18" type="line"/>
      <point x="120" y="26"/>
      <point x="110" y="34"/>
      <point x="111" y="39" type="curve" smooth="yes"/>
    </contour>
  </outline>
</glyph>
<glyph name="Q" format="2">
  <advance width="415"/>
  <unicode hex="0051"/>
  <anchor x="249" y="483" name="U"/>
  <outline>
    <contour>
      <point x="397" y="283" type="curve"/>
      <point x="397" y="386"/>
      <point x="354" y="472"/>
      <point x="258" y="472" type="curve" smooth="yes"/>
      <point x="188" y="472"/>
      <point x="135" y="427"/>
      <point x="94" y="372" type="curve" smooth="yes"/>
      <point x="55" y="319"/>
      <point x="32" y="239"/>
      <point x="32" y="177" type="curve" smooth="yes"/>
      <point x="32" y="75"/>
      <point x="78" y="-11"/>
      <point x="172" y="-11" type="curve" smooth="yes"/>
      <point x="237" y="-11"/>
      <point x="288" y="30"/>
      <point x="329" y="82" type="curve" smooth="yes"/>
      <point x="374" y="138"/>
      <point x="397" y="214"/>
    </contour>
    <contour>
      <point x="404" y="-42" type="curve"/>
      <point x="396" y="-30" type="line"/>
      <point x="366" y="-51"/>
      <point x="354" y="-58"/>
      <point x="343" y="-58" type="curve" smooth="yes"/>
      <point x="302" y="-58"/>
      <point x="258" y="2"/>
      <point x="209" y="17" type="curve" smooth="yes"/>
      <point x="198" y="21"/>
      <point x="149" y="7"/>
      <point x="149" y="7" type="curve"/>
      <point x="216" y="-5"/>
      <point x="265" y="-108"/>
      <point x="333" y="-108" type="curve" smooth="yes"/>
      <point x="347" y="-108"/>
      <point x="376" y="-85"/>
    </contour>
    <contour>
      <point x="342" y="276" type="curve"/>
      <point x="342" y="183"/>
      <point x="302" y="36"/>
      <point x="188" y="36" type="curve" smooth="yes"/>
      <point x="128" y="36"/>
      <point x="88" y="103"/>
      <point x="88" y="194" type="curve" smooth="yes"/>
      <point x="88" y="287"/>
      <point x="131" y="426"/>
      <point x="242" y="426" type="curve" smooth="yes"/>
      <point x="306" y="426"/>
      <point x="342" y="359"/>
    </contour>
  </outline>
</glyph>
<glyph name="R" format="2">
  <advance width="394"/>
  <unicode hex="0052"/>
  <anchor x="73" y="0" name="H"/>
  <anchor x="226" y="483" name="U"/>
  <outline>
    <contour>
      <point x="347" y="355" type="curve" smooth="yes"/>
      <point x="347" y="431"/>
      <point x="290" y="472"/>
      <point x="204" y="472" type="curve" smooth="yes"/>
      <point x="138" y="472"/>
      <point x="95" y="462"/>
      <point x="51" y="449" type="curve"/>
      <point x="51" y="427" type="line"/>
      <point x="95" y="437"/>
      <point x="138" y="441"/>
      <point x="188" y="441" type="curve" smooth="yes"/>
      <point x="235" y="441"/>
      <point x="294" y="417"/>
      <point x="294" y="344" type="curve" smooth="yes"/>
      <point x="294" y="276"/>
      <point x="239" y="242"/>
      <point x="177" y="242" type="curve" smooth="yes"/>
      <point x="162" y="242"/>
      <point x="146" y="245"/>
      <point x="131" y="249" type="curve"/>
      <point x="128" y="222" type="line"/>
      <point x="144" y="218"/>
      <point x="169" y="215"/>
      <point x="186" y="215" type="curve" smooth="yes"/>
      <point x="307" y="215"/>
      <point x="347" y="312"/>
    </contour>
    <contour>
      <point x="394" y="39" type="curve"/>
      <point x="387" y="53" type="line"/>
      <point x="337" y="35"/>
      <point x="327" y="35"/>
      <point x="309" y="67" type="curve" smooth="yes"/>
      <point x="218" y="228" type="line"/>
      <point x="170" y="224" type="line"/>
      <point x="257" y="42" type="line" smooth="yes"/>
      <point x="276" y="2"/>
      <point x="288" y="-5"/>
      <point x="305" y="-5" type="curve" smooth="yes"/>
      <point x="318" y="-5"/>
      <point x="356" y="14"/>
    </contour>
    <contour>
      <point x="165" y="461" type="line"/>
      <point x="111" y="461" type="line"/>
      <point x="53" y="38" type="line" smooth="yes"/>
      <point x="53" y="31"/>
      <point x="32" y="22"/>
      <point x="2" y="15" type="curve"/>
      <point x="0" y="0" type="line"/>
      <point x="150" y="0" type="line"/>
      <point x="152" y="15" type="line"/>
      <point x="121" y="22"/>
      <point x="105" y="32"/>
      <point x="107" y="38" type="curve"/>
    </contour>
  </outline>
</glyph>
<glyph name="S" format="2">
  <advance width="322"/>
  <unicode hex="0053"/>
  <outline>
    <contour>
      <point x="314" y="417" type="curve" smooth="yes"/>
      <point x="292" y="435"/>
      <point x="260" y="449"/>
      <point x="223" y="449" type="curve" smooth="yes"/>
      <point x="130" y="449"/>
      <point x="69" y="385"/>
      <point x="69" y="323" type="curve" smooth="yes"/>
      <point x="69" y="287"/>
      <point x="85" y="251"/>
      <point x="146" y="221" type="curve" smooth="yes"/>
      <point x="217" y="188"/>
      <point x="238" y="161"/>
      <point x="238" y="122" type="curve" smooth="yes"/>
      <point x="238" y="72"/>
      <point x="197" y="35"/>
      <point x="144" y="35" type="curve" smooth="yes"/>
      <point x="88" y="35"/>
      <point x="67" y="95"/>
      <point x="55" y="95" type="curve" smooth="yes"/>
      <point x="42" y="95"/>
      <point x="13" y="53"/>
      <point x="13" y="40" type="curve" smooth="yes"/>
      <point x="13" y="15"/>
      <point x="81" y="-10"/>
      <point x="120" y="-10" type="curve" smooth="yes"/>
      <point x="216" y="-10"/>
      <point x="295" y="65"/>
      <point x="295" y="152" type="curve" smooth="yes"/>
      <point x="295" y="204"/>
      <point x="266" y="234"/>
      <point x="193" y="272" type="curve" smooth="yes"/>
      <point x="131" y="304"/>
      <point x="121" y="326"/>
      <point x="121" y="347" type="curve" smooth="yes"/>
      <point x="121" y="377"/>
      <point x="147" y="411"/>
      <point x="196" y="411" type="curve" smooth="yes"/>
      <point x="224" y="411"/>
      <point x="250" y="392"/>
      <point x="264" y="364" type="curve"/>
      <point x="278" y="362" type="line"/>
      <point x="288" y="367"/>
      <point x="320" y="413"/>
    </contour>
  </outline>
</glyph>
<glyph name="T" format="2">
  <advance width="390"/>
  <unicode hex="0054"/>
  <anchor x="168" y="0" name="H"/>
  <anchor x="234" y="483" name="U"/>
  <outline>
    <contour>
      <point x="409" y="452" type="curve"/>
      <point x="401" y="461" type="line"/>
      <point x="250" y="461" type="line"/>
      <point x="243" y="428" type="line"/>
      <point x="347" y="428" type="line" smooth="yes"/>
      <point x="367" y="428"/>
      <point x="371" y="414"/>
      <point x="373" y="365" type="curve"/>
      <point x="388" y="365" type="line"/>
      <point x="396" y="390"/>
      <point x="405" y="428"/>
    </contour>
    <contour>
      <point x="211" y="428" type="line"/>
      <point x="213" y="461" type="line"/>
      <point x="63" y="461" type="line"/>
      <point x="54" y="437"/>
      <point x="44" y="396"/>
      <point x="41" y="371" type="curve"/>
      <point x="54" y="364" type="line"/>
      <point x="81" y="421"/>
      <point x="89" y="428"/>
      <point x="102" y="428" type="curve" smooth="yes"/>
    </contour>
    <contour>
      <point x="252" y="15" type="line"/>
      <point x="213" y="24"/>
      <point x="200" y="35"/>
      <point x="201" y="42" type="curve" smooth="yes"/>
      <point x="254" y="430" type="line" smooth="yes"/>
      <point x="254" y="437"/>
      <point x="274" y="442"/>
      <point x="305" y="445" type="curve"/>
      <point x="307" y="461" type="line"/>
      <point x="157" y="461" type="line"/>
      <point x="155" y="445" type="line"/>
      <point x="186" y="442"/>
      <point x="202" y="436"/>
      <point x="201" y="430" type="curve" smooth="yes"/>
      <point x="147" y="42" type="line" smooth="yes"/>
      <point x="146" y="34"/>
      <point x="131" y="24"/>
      <point x="89" y="15" type="curve"/>
      <point x="87" y="0" type="line"/>
      <point x="250" y="0" type="line"/>
    </contour>
  </outline>
</glyph>
<glyph name="U" format="2">
  <advance width="449"/>
  <unicode hex="0055"/>
  <anchor x="212" y="0" name="H"/>
  <anchor x="277" y="483" name="U"/>
  <outline>
    <contour>
      <point x="470" y="461" type="line"/>
      <point x="333" y="461" type="line"/>
      <point x="331" y="445" type="line"/>
      <point x="362" y="438"/>
      <point x="375" y="428"/>
      <point x="375" y="422" type="curve" smooth="yes"/>
      <point x="341" y="171" type="line" smooth="yes"/>
      <point x="331" y="98"/>
      <point x="286" y="31"/>
      <point x="222" y="31" type="curve" smooth="yes"/>
      <point x="158" y="31"/>
      <point x="125" y="77"/>
      <point x="125" y="145" type="curve" smooth="yes"/>
      <point x="125" y="158"/>
      <point x="125" y="172"/>
      <point x="127" y="186" type="curve" smooth="yes"/>
      <point x="159" y="422" type="line" smooth="yes"/>
      <point x="160" y="429"/>
      <point x="180" y="438"/>
      <point x="211" y="445" type="curve"/>
      <point x="213" y="461" type="line"/>
      <point x="63" y="461" type="line"/>
      <point x="61" y="445" type="line"/>
      <point x="93" y="438"/>
      <point x="108" y="428"/>
      <point x="107" y="422" type="curve" smooth="yes"/>
      <point x="71" y="169" type="line" smooth="yes"/>
      <point x="69" y="154"/>
      <point x="68" y="140"/>
      <point x="68" y="127" type="curve" smooth="yes"/>
      <point x="68" y="38"/>
      <point x="123" y="-11"/>
      <point x="203" y="-11" type="curve" smooth="yes"/>
      <point x="300" y="-11"/>
      <point x="368" y="59"/>
      <point x="386" y="187" type="curve" smooth="yes"/>
      <point x="419" y="422" type="line" smooth="yes"/>
      <point x="420" y="429"/>
      <point x="437" y="438"/>
      <point x="468" y="445" type="curve"/>
    </contour>
  </outline>
</glyph>
<glyph name="V" format="2">
  <advance width="444"/>
  <unicode hex="0056"/>
  <anchor x="203" y="0" name="H"/>
  <anchor x="268" y="483" name="U"/>
  <outline>
    <contour>
      <point x="477" y="461" type="line"/>
      <point x="339" y="461" type="line"/>
      <point x="336" y="445" type="line"/>
      <point x="372" y="440"/>
      <point x="388" y="435"/>
      <point x="381" y="421" type="curve" smooth="yes"/>
      <point x="220" y="71" type="line"/>
      <point x="150" y="421" type="line" smooth="yes"/>
      <point x="147" y="436"/>
      <point x="161" y="443"/>
      <point x="196" y="445" type="curve"/>
      <point x="198" y="461" type="line"/>
      <point x="53" y="461" type="line"/>
      <point x="50" y="445" type="line"/>
      <point x="79" y="441"/>
      <point x="91" y="434"/>
      <point x="93" y="421" type="curve" smooth="yes"/>
      <point x="181" y="-11" type="line"/>
      <point x="193" y="-8"/>
      <point x="227" y="0"/>
      <point x="236" y="21" type="curve" smooth="yes"/>
      <point x="420" y="421" type="line"/>
      <point x="426" y="435"/>
      <point x="444" y="439"/>
      <point x="475" y="445" type="curve"/>
    </contour>
  </outline>
</glyph>
<glyph name="W" format="2">
  <advance width="575"/>
  <unicode hex="0057"/>
  <anchor x="333" y="483" name="U"/>
  <outline>
    <contour>
      <point x="611" y="461" type="line"/>
      <point x="470" y="461" type="line"/>
      <point x="468" y="445" type="line"/>
      <point x="498" y="440"/>
      <point x="519" y="434"/>
      <point x="515" y="422" type="curve" smooth="yes"/>
      <point x="408" y="93" type="line"/>
      <point x="342" y="461" type="line"/>
      <point x="322" y="461" type="line"/>
      <point x="162" y="93" type="line"/>
      <point x="140" y="420" type="line" smooth="yes"/>
      <point x="140" y="430"/>
      <point x="147" y="440"/>
      <point x="190" y="445" type="curve"/>
      <point x="192" y="461" type="line"/>
      <point x="49" y="461" type="line"/>
      <point x="47" y="445" type="line"/>
      <point x="78" y="439"/>
      <point x="89" y="432"/>
      <point x="90" y="420" type="curve" smooth="yes"/>
      <point x="116" y="-11" type="line"/>
      <point x="128" y="-8"/>
      <point x="161" y="0"/>
      <point x="171" y="21" type="curve" smooth="yes"/>
      <point x="311" y="346" type="line"/>
      <point x="372" y="-11" type="line"/>
      <point x="384" y="-8"/>
      <point x="415" y="0"/>
      <point x="422" y="21" type="curve" smooth="yes"/>
      <point x="554" y="422" type="line" smooth="yes"/>
      <point x="557" y="432"/>
      <point x="571" y="436"/>
      <point x="609" y="445" type="curve"/>
    </contour>
  </outline>
</glyph>
<glyph name="X" format="2">
  <advance width="428"/>
  <unicode hex="0058"/>
  <anchor x="261" y="483" name="U"/>
  <outline>
    <contour>
      <point x="440" y="461" type="line"/>
      <point x="289" y="461" type="line"/>
      <point x="287" y="445" type="line"/>
      <point x="326" y="442"/>
      <point x="343" y="437"/>
      <point x="327" y="414" type="curve" smooth="yes"/>
      <point x="230" y="276" type="line"/>
      <point x="245" y="234" type="line"/>
      <point x="372" y="414" type="line" smooth="yes"/>
      <point x="387" y="435"/>
      <point x="405" y="441"/>
      <point x="437" y="445" type="curve"/>
    </contour>
    <contour>
      <point x="399" y="15" type="line"/>
      <point x="374" y="19"/>
      <point x="360" y="25"/>
      <point x="350" y="46" type="curve" smooth="yes"/>
      <point x="168" y="414" type="line" smooth="yes"/>
      <point x="157" y="436"/>
      <point x="170" y="441"/>
      <point x="208" y="445" type="curve"/>
      <point x="210" y="461" type="line"/>
      <point x="60" y="461" type="line"/>
      <point x="57" y="445" type="line"/>
      <point x="87" y="440"/>
      <point x="95" y="436"/>
      <point x="107" y="414" type="curve"/>
      <point x="288" y="46" type="line"/>
      <point x="298" y="27"/>
      <point x="288" y="20"/>
      <point x="249" y="15" type="curve"/>
      <point x="246" y="0" type="line"/>
      <point x="397" y="0" type="line"/>
    </contour>
    <contour>
      <point x="216" y="206" type="line"/>
      <point x="199" y="248" type="line"/>
      <point x="60" y="46" type="line"/>
      <point x="46" y="26"/>
      <point x="24" y="17"/>
      <point x="-5" y="15" type="curve"/>
      <point x="-7" y="0" type="line"/>
      <point x="143" y="0" type="line"/>
      <point x="145" y="15" type="line"/>
      <point x="105" y="18"/>
      <point x="90" y="24"/>
      <point x="105" y="46" type="curve" smooth="yes"/>
    </contour>
  </outline>
</glyph>
<glyph name="Y" format="2">
  <advance width="419"/>
  <unicode hex="0059"/>
  <anchor x="251" y="483" name="U"/>
  <outline>
    <contour>
      <point x="440" y="461" type="line"/>
      <point x="309" y="461" type="line"/>
      <point x="306" y="445" type="line"/>
      <point x="339" y="440"/>
      <point x="350" y="435"/>
      <point x="342" y="421" type="curve" smooth="yes"/>
      <point x="228" y="248" type="line"/>
      <point x="217" y="296"/>
      <point x="173" y="404"/>
      <point x="140" y="453" type="curve" smooth="yes"/>
      <point x="135" y="462"/>
      <point x="128" y="467"/>
      <point x="122" y="467" type="curve" smooth="yes"/>
      <point x="103" y="467"/>
      <point x="63" y="458"/>
      <point x="37" y="452" type="curve"/>
      <point x="40" y="436" type="line"/>
      <point x="75" y="440"/>
      <point x="85" y="437"/>
      <point x="95" y="422" type="curve" smooth="yes"/>
      <point x="131" y="368"/>
      <point x="179" y="249"/>
      <point x="192" y="179" type="curve"/>
      <point x="228" y="179" type="line"/>
      <point x="383" y="421" type="line" smooth="yes"/>
      <point x="391" y="434"/>
      <point x="407" y="439"/>
      <point x="438" y="445" type="curve"/>
    </contour>
    <contour>
      <point x="270" y="15" type="line"/>
      <point x="230" y="24"/>
      <point x="218" y="35"/>
      <point x="218" y="42" type="curve" smooth="yes"/>
      <point x="245" y="233" type="line"/>
      <point x="191" y="233" type="line"/>
      <point x="165" y="42" type="line" smooth="yes"/>
      <point x="165" y="35"/>
      <point x="149" y="24"/>
      <point x="107" y="15" type="curve"/>
      <point x="105" y="0" type="line"/>
      <point x="268" y="0" type="line"/>
    </contour>
  </outline>
</glyph>
<glyph name="Z" format="2">
  <advance width="361"/>
  <unicode hex="005A"/>
  <outline>
    <contour>
      <point x="363" y="422" type="line"/>
      <point x="356" y="439" type="line"/>
      <point x="151" y="439" type="line" smooth="yes"/>
      <point x="127" y="439"/>
      <point x="113" y="439"/>
      <point x="91" y="447" type="curve"/>
      <point x="64" y="333" type="line"/>
      <point x="86" y="328" type="line"/>
      <point x="102" y="379"/>
      <point x="127" y="402"/>
      <point x="141" y="402" type="curve" smooth="yes"/>
      <point x="281" y="402" type="line"/>
      <point x="9" y="16" type="line"/>
      <point x="16" y="0" type="line"/>
      <point x="312" y="0" type="line"/>
      <point x="317" y="27"/>
      <point x="326" y="81"/>
      <point x="331" y="111" type="curve"/>
      <point x="311" y="117" type="line"/>
      <point x="287" y="57"/>
      <point x="273" y="38"/>
      <point x="255" y="38" type="curve" smooth="yes"/>
      <point x="93" y="38" type="line"/>
    </contour>
  </outline>
</glyph>
<glyph name="bracketleft" format="2">
  <advance width="227"/>
  <unicode hex="005B"/>
  <outline>
    <contour>
      <point x="269" y="547" type="curve"/>
      <point x="259" y="557" type="line"/>
      <point x="115" y="557" type="line"/>
      <point x="20" y="-117" type="line"/>
      <point x="167" y="-117" type="line"/>
      <point x="171" y="-109"/>
      <point x="178" y="-93"/>
      <point x="181" y="-84" type="curve"/>
      <point x="170" y="-73" type="line"/>
      <point x="81" y="-73" type="line"/>
      <point x="163" y="515" type="line"/>
      <point x="254" y="515" type="line"/>
      <point x="258" y="520"/>
      <point x="266" y="536"/>
    </contour>
  </outline>
</glyph>
<glyph name="backslash" format="2">
  <advance width="299"/>
  <unicode hex="005C"/>
  <outline>
    <contour>
      <point x="249" y="-113" type="line"/>
      <point x="108" y="567" type="line"/>
      <point x="95" y="576"/>
      <point x="80" y="581"/>
      <point x="66" y="585" type="curve"/>
      <point x="53" y="577" type="line"/>
      <point x="195" y="-104" type="line"/>
      <point x="203" y="-110"/>
      <point x="226" y="-119"/>
      <point x="236" y="-123" type="curve"/>
    </contour>
  </outline>
</glyph>
<glyph name="bracketright" format="2">
  <advance width="222"/>
  <unicode hex="005D"/>
  <outline>
    <contour>
      <point x="220" y="557" type="line"/>
      <point x="74" y="557" type="line"/>
      <point x="70" y="550"/>
      <point x="63" y="535"/>
      <point x="60" y="525" type="curve"/>
      <point x="71" y="515" type="line"/>
      <point x="160" y="515" type="line"/>
      <point x="77" y="-73" type="line"/>
      <point x="-14" y="-73" type="line"/>
      <point x="-17" y="-79"/>
      <point x="-24" y="-95"/>
      <point x="-28" y="-106" type="curve"/>
      <point x="-17" y="-117" type="line"/>
      <point x="126" y="-117" type="line"/>
    </contour>
  </outline>
</glyph>
<glyph name="underscore" format="2">
  <advance width="259"/>
  <unicode hex="005F"/>
  <outline>
    <contour>
      <point x="247" y="-55" type="curve"/>
      <point x="240" y="-45" type="line"/>
      <point x="-19" y="-45" type="line"/>
      <point x="-25" y="-55"/>
      <point x="-32" y="-69"/>
      <point x="-35" y="-78" type="curve"/>
      <point x="-28" y="-89" type="line"/>
      <point x="232" y="-89" type="line"/>
      <point x="236" y="-80"/>
      <point x="244" y="-65"/>
    </contour>
  </outline>
</glyph>
<glyph name="grave" format="2">
  <advance width="221"/>
  <unicode hex="0060"/>
  <anchor x="192" y="501" name="U"/>
  <outline>
    <contour>
      <point x="206" y="383" type="curve"/>
      <point x="156" y="534" type="line"/>
      <point x="143" y="534"/>
      <point x="116" y="532"/>
      <point x="104" y="530" type="curve"/>
      <point x="92" y="517" type="line"/>
      <point x="184" y="375" type="line"/>
      <point x="192" y="376"/>
      <point x="197" y="377"/>
    </contour>
  </outline>
</glyph>
<glyph name="a" format="2">
  <advance width="337"/>
  <unicode hex="0061"/>
  <anchor x="134" y="0" name="H"/>
  <anchor x="201" y="366" name="U"/>
  <outline>
    <contour>
      <point x="329" y="24" type="curve"/>
      <point x="325" y="38" type="line"/>
      <point x="306" y="30"/>
      <point x="293" y="27"/>
      <point x="283" y="27" type="curve" smooth="yes"/>
      <point x="272" y="27"/>
      <point x="265" y="46"/>
      <point x="265" y="102" type="curve" smooth="yes"/>
      <point x="265" y="123"/>
      <point x="276" y="208"/>
      <point x="291" y="278" type="curve" smooth="yes"/>
      <point x="298" y="311"/>
      <point x="302" y="316"/>
      <point x="319" y="329" type="curve"/>
      <point x="312" y="342" type="line"/>
      <point x="279" y="327"/>
      <point x="247" y="304"/>
      <point x="242" y="281" type="curve" smooth="yes"/>
      <point x="237" y="253"/>
      <point x="214" y="131"/>
      <point x="214" y="102" type="curve" smooth="yes"/>
      <point x="214" y="5"/>
      <point x="230" y="-15"/>
      <point x="248" y="-15" type="curve" smooth="yes"/>
      <point x="262" y="-15"/>
      <point x="287" y="-2"/>
    </contour>
    <contour>
      <point x="296" y="309" type="curve"/>
      <point x="279" y="312"/>
      <point x="253" y="342"/>
      <point x="220" y="342" type="curve" smooth="yes"/>
      <point x="190" y="342"/>
      <point x="151" y="326"/>
      <point x="125" y="308" type="curve" smooth="yes"/>
      <point x="56" y="261"/>
      <point x="19" y="188"/>
      <point x="19" y="111" type="curve" smooth="yes"/>
      <point x="19" y="20"/>
      <point x="65" y="-15"/>
      <point x="97" y="-15" type="curve" smooth="yes"/>
      <point x="138" y="-15"/>
      <point x="191" y="57"/>
      <point x="216" y="102" type="curve"/>
      <point x="225" y="167" type="line"/>
      <point x="198" y="108"/>
      <point x="146" y="35"/>
      <point x="121" y="35" type="curve" smooth="yes"/>
      <point x="92" y="35"/>
      <point x="69" y="75"/>
      <point x="69" y="138" type="curve" smooth="yes"/>
      <point x="69" y="196"/>
      <point x="116" y="304"/>
      <point x="183" y="304" type="curve" smooth="yes"/>
      <point x="223" y="304"/>
      <point x="252" y="264"/>
      <point x="265" y="264" type="curve" smooth="yes"/>
      <point x="278" y="264"/>
      <point x="276" y="295"/>
    </contour>
  </outline>
</glyph>
<glyph name="b" format="2">
  <advance width="340"/>
  <unicode hex="0062"/>
  <outline>
    <contour>
      <point x="317" y="212" type="curve"/>
      <point x="318" y="286"/>
      <point x="287" y="326"/>
      <point x="248" y="326" type="curve" smooth="yes"/>
      <point x="216" y="326"/>
      <point x="150" y="294"/>
      <point x="97" y="185" type="curve"/>
      <point x="103" y="148" type="line"/>
      <point x="139" y="225"/>
      <point x="195" y="274"/>
      <point x="212" y="274" type="curve" smooth="yes"/>
      <point x="235" y="274"/>
      <point x="257" y="243"/>
      <point x="257" y="184" type="curve" smooth="yes"/>
      <point x="257" y="153"/>
      <point x="252" y="112"/>
      <point x="231" y="80" type="curve" smooth="yes"/>
      <point x="217" y="59"/>
      <point x="195" y="36"/>
      <point x="165" y="36" type="curve" smooth="yes"/>
      <point x="137" y="37"/>
      <point x="105" y="70"/>
      <point x="105" y="94" type="curve" smooth="yes"/>
      <point x="105" y="155"/>
      <point x="159" y="435"/>
      <point x="159" y="501" type="curve" smooth="yes"/>
      <point x="159" y="522"/>
      <point x="155" y="530"/>
      <point x="141" y="530" type="curve" smooth="yes"/>
      <point x="128" y="530"/>
      <point x="75" y="511"/>
      <point x="35" y="493" type="curve"/>
      <point x="40" y="476" type="line"/>
      <point x="40" y="476"/>
      <point x="65" y="485"/>
      <point x="74" y="485" type="curve" smooth="yes"/>
      <point x="82" y="485"/>
      <point x="92" y="483"/>
      <point x="92" y="462" type="curve" smooth="yes"/>
      <point x="92" y="405"/>
      <point x="41" y="127"/>
      <point x="41" y="78" type="curve" smooth="yes"/>
      <point x="42" y="33"/>
      <point x="100" y="-14"/>
      <point x="130" y="-14" type="curve" smooth="yes"/>
      <point x="188" y="-14"/>
      <point x="236" y="23"/>
      <point x="267" y="65" type="curve" smooth="yes"/>
      <point x="301" y="111"/>
      <point x="317" y="163"/>
    </contour>
  </outline>
</glyph>
<glyph name="c" format="2">
  <advance width="291"/>
  <unicode hex="0063"/>
  <anchor x="129" y="0" name="H"/>
  <anchor x="194" y="366" name="U"/>
  <outline>
    <contour>
      <point x="297" y="298" type="curve"/>
      <point x="282" y="303"/>
      <point x="258" y="342"/>
      <point x="216" y="342" type="curve" smooth="yes"/>
      <point x="186" y="342"/>
      <point x="143" y="326"/>
      <point x="116" y="308" type="curve" smooth="yes"/>
      <point x="45" y="260"/>
      <point x="19" y="183"/>
      <point x="19" y="117" type="curve" smooth="yes"/>
      <point x="19" y="15"/>
      <point x="75" y="-15"/>
      <point x="108" y="-15" type="curve" smooth="yes"/>
      <point x="143" y="-15"/>
      <point x="186" y="-3"/>
      <point x="262" y="65" type="curve"/>
      <point x="260" y="69"/>
      <point x="254" y="76"/>
      <point x="251" y="80" type="curve"/>
      <point x="198" y="38"/>
      <point x="162" y="27"/>
      <point x="144" y="27" type="curve" smooth="yes"/>
      <point x="102" y="27"/>
      <point x="72" y="68"/>
      <point x="72" y="131" type="curve" smooth="yes"/>
      <point x="72" y="199"/>
      <point x="108" y="304"/>
      <point x="174" y="304" type="curve" smooth="yes"/>
      <point x="206" y="304"/>
      <point x="227" y="264"/>
      <point x="237" y="264" type="curve" smooth="yes"/>
      <point x="250" y="264"/>
      <point x="277" y="283"/>
    </contour>
  </outline>
</glyph>
<glyph name="d" format="2">
  <advance width="354"/>
  <unicode hex="0064"/>
  <anchor x="142" y="0" name="H"/>
  <anchor x="221" y="600" name="U"/>
  <outline>
    <contour>
      <point x="338" y="24" type="curve"/>
      <point x="333" y="38" type="line"/>
      <point x="316" y="30"/>
      <point x="303" y="28"/>
      <point x="291" y="28" type="curve" smooth="yes"/>
      <point x="279" y="28"/>
      <point x="274" y="53"/>
      <point x="274" y="109" type="curve" smooth="yes"/>
      <point x="274" y="175"/>
      <point x="334" y="450"/>
      <point x="334" y="526" type="curve" smooth="yes"/>
      <point x="334" y="548"/>
      <point x="327" y="556"/>
      <point x="314" y="556" type="curve" smooth="yes"/>
      <point x="302" y="556"/>
      <point x="257" y="540"/>
      <point x="216" y="521" type="curve"/>
      <point x="220" y="507" type="line"/>
      <point x="233" y="511"/>
      <point x="253" y="517"/>
      <point x="259" y="517" type="curve" smooth="yes"/>
      <point x="268" y="517"/>
      <point x="276" y="515"/>
      <point x="276" y="492" type="curve" smooth="yes"/>
      <point x="276" y="424"/>
      <point x="222" y="154"/>
      <point x="222" y="109" type="curve" smooth="yes"/>
      <point x="222" y="14"/>
      <point x="236" y="-15"/>
      <point x="254" y="-15" type="curve" smooth="yes"/>
      <point x="271" y="-15"/>
      <point x="296" y="-2"/>
    </contour>
    <contour>
      <point x="297" y="296" type="line"/>
      <point x="269" y="296"/>
      <point x="244" y="342"/>
      <point x="216" y="342" type="curve" smooth="yes"/>
      <point x="186" y="342"/>
      <point x="148" y="325"/>
      <point x="121" y="308" type="curve" smooth="yes"/>
      <point x="52" y="262"/>
      <point x="19" y="192"/>
      <point x="19" y="115" type="curve" smooth="yes"/>
      <point x="19" y="24"/>
      <point x="68" y="-15"/>
      <point x="101" y="-15" type="curve" smooth="yes"/>
      <point x="143" y="-15"/>
      <point x="190" y="42"/>
      <point x="223" y="104" type="curve"/>
      <point x="234" y="169" type="line"/>
      <point x="197" y="95"/>
      <point x="155" y="35"/>
      <point x="126" y="35" type="curve" smooth="yes"/>
      <point x="98" y="35"/>
      <point x="69" y="75"/>
      <point x="69" y="138" type="curve" smooth="yes"/>
      <point x="69" y="196"/>
      <point x="112" y="304"/>
      <point x="179" y="304" type="curve" smooth="yes"/>
      <point x="225" y="304"/>
      <point x="254" y="241"/>
      <point x="272" y="241" type="curve"/>
    </contour>
  </outline>
</glyph>
<glyph name="e" format="2">
  <advance width="287"/>
  <unicode hex="0065"/>
  <anchor x="128" y="0" name="H"/>
  <anchor x="181" y="348" name="U"/>
  <outline>
    <contour>
      <point x="270" y="265" type="curve"/>
      <point x="270" y="295"/>
      <point x="249" y="326"/>
      <point x="205" y="326" type="curve" smooth="yes"/>
      <point x="174" y="326"/>
      <point x="138" y="309"/>
      <point x="116" y="292" type="curve" smooth="yes"/>
      <point x="56" y="244"/>
      <point x="20" y="178"/>
      <point x="20" y="105" type="curve" smooth="yes"/>
      <point x="20" y="17"/>
      <point x="76" y="-14"/>
      <point x="109" y="-14" type="curve" smooth="yes"/>
      <point x="145" y="-14"/>
      <point x="185" y="0"/>
      <point x="262" y="67" type="curve"/>
      <point x="260" y="70"/>
      <point x="254" y="82"/>
      <point x="249" y="84" type="curve"/>
      <point x="193" y="39"/>
      <point x="157" y="30"/>
      <point x="137" y="30" type="curve" smooth="yes"/>
      <point x="110" y="30"/>
      <point x="80" y="73"/>
      <point x="80" y="134" type="curve" smooth="yes"/>
      <point x="80" y="185"/>
      <point x="107" y="238"/>
      <point x="137" y="267" type="curve" smooth="yes"/>
      <point x="150" y="280"/>
      <point x="167" y="286"/>
      <point x="174" y="286" type="curve" smooth="yes"/>
      <point x="189" y="286"/>
      <point x="204" y="275"/>
      <point x="204" y="248" type="curve" smooth="yes"/>
      <point x="204" y="213"/>
      <point x="191" y="185"/>
      <point x="53" y="133" type="curve"/>
      <point x="55" y="104" type="line"/>
      <point x="247" y="170"/>
      <point x="270" y="224"/>
    </contour>
  </outline>
</glyph>
<glyph name="f" format="2">
  <advance width="204"/>
  <unicode hex="0066"/>
  <anchor x="-18" y="-164" name="H"/>
  <anchor x="212" y="600" name="U"/>
  <outline>
    <contour>
      <point x="239" y="321" type="curve"/>
      <point x="231" y="331" type="line"/>
      <point x="56" y="331" type="line"/>
      <point x="19" y="309" type="line"/>
      <point x="24" y="298" type="line"/>
      <point x="136" y="298" type="line" smooth="yes"/>
      <point x="173" y="298"/>
      <point x="187" y="295"/>
      <point x="192" y="281" type="curve"/>
      <point x="202" y="287"/>
      <point x="229" y="307"/>
    </contour>
    <contour>
      <point x="330" y="513" type="curve"/>
      <point x="315" y="518"/>
      <point x="289" y="556"/>
      <point x="246" y="556" type="curve" smooth="yes"/>
      <point x="216" y="556"/>
      <point x="194" y="541"/>
      <point x="168" y="522" type="curve" smooth="yes"/>
      <point x="105" y="476"/>
      <point x="93" y="408"/>
      <point x="83" y="329" type="curve" smooth="yes"/>
      <point x="51" y="50" type="line" smooth="yes"/>
      <point x="42" y="-29"/>
      <point x="12" y="-127"/>
      <point x="-36" y="-154" type="curve"/>
      <point x="-27" y="-177" type="line"/>
      <point x="45" y="-133"/>
      <point x="95" y="-36"/>
      <point x="108" y="70" type="curve" smooth="yes"/>
      <point x="140" y="348" type="line" smooth="yes"/>
      <point x="147" y="410"/>
      <point x="163" y="518"/>
      <point x="218" y="518" type="curve" smooth="yes"/>
      <point x="246" y="518"/>
      <point x="257" y="477"/>
      <point x="269" y="477" type="curve" smooth="yes"/>
      <point x="281" y="477"/>
      <point x="309" y="498"/>
    </contour>
  </outline>
</glyph>
<glyph name="g" format="2">
  <advance width="333"/>
  <unicode hex="0067"/>
  <anchor x="113" y="-164" name="H"/>
  <anchor x="188" y="366" name="U"/>
  <outline>
    <contour>
      <point x="296" y="308" type="curve"/>
      <point x="279" y="310"/>
      <point x="253" y="342"/>
      <point x="220" y="342" type="curve" smooth="yes"/>
      <point x="190" y="342"/>
      <point x="153" y="326"/>
      <point x="125" y="308" type="curve" smooth="yes"/>
      <point x="53" y="260"/>
      <point x="18" y="188"/>
      <point x="18" y="111" type="curve" smooth="yes"/>
      <point x="18" y="20"/>
      <point x="65" y="-15"/>
      <point x="97" y="-15" type="curve" smooth="yes"/>
      <point x="140" y="-15"/>
      <point x="196" y="62"/>
      <point x="227" y="123" type="curve"/>
      <point x="234" y="193" type="line"/>
      <point x="203" y="110"/>
      <point x="144" y="35"/>
      <point x="123" y="35" type="curve" smooth="yes"/>
      <point x="94" y="35"/>
      <point x="69" y="75"/>
      <point x="69" y="138" type="curve" smooth="yes"/>
      <point x="69" y="196"/>
      <point x="116" y="304"/>
      <point x="183" y="304" type="curve" smooth="yes"/>
      <point x="224" y="304"/>
      <point x="249" y="265"/>
      <point x="262" y="265" type="curve" smooth="yes"/>
      <point x="274" y="265"/>
      <point x="276" y="294"/>
    </contour>
    <contour>
      <point x="321" y="329" type="curve"/>
      <point x="313" y="342" type="line"/>
      <point x="281" y="327"/>
      <point x="247" y="298"/>
      <point x="239" y="246" type="curve" smooth="yes"/>
      <point x="220" y="131"/>
      <point x="232" y="79"/>
      <point x="214" y="-17" type="curve" smooth="yes"/>
      <point x="200" y="-98"/>
      <point x="174" y="-142"/>
      <point x="127" y="-142" type="curve" smooth="yes"/>
      <point x="58" y="-142"/>
      <point x="46" y="-93"/>
      <point x="34" y="-93" type="curve" smooth="yes"/>
      <point x="28" y="-93"/>
      <point x="-1" y="-122"/>
      <point x="-1" y="-138" type="curve" smooth="yes"/>
      <point x="-1" y="-156"/>
      <point x="58" y="-183"/>
      <point x="99" y="-183" type="curve" smooth="yes"/>
      <point x="175" y="-183"/>
      <point x="250" y="-101"/>
      <point x="268" y="0" type="curve" smooth="yes"/>
      <point x="282" y="75"/>
      <point x="276" y="147"/>
      <point x="291" y="263" type="curve" smooth="yes"/>
      <point x="296" y="298"/>
      <point x="305" y="316"/>
    </contour>
  </outline>
</glyph>
<glyph name="h" format="2">
  <advance width="370"/>
  <unicode hex="0068"/>
  <anchor x="57" y="0" name="H"/>
  <anchor x="240" y="578" name="U"/>
  <outline>
    <contour>
      <point x="354" y="26" type="curve"/>
      <point x="349" y="39" type="line"/>
      <point x="331" y="32"/>
      <point x="317" y="27"/>
      <point x="303" y="27" type="curve" smooth="yes"/>
      <point x="297" y="27"/>
      <point x="290" y="32"/>
      <point x="290" y="49" type="curve" smooth="yes"/>
      <point x="290" y="90"/>
      <point x="321" y="227"/>
      <point x="321" y="278" type="curve" smooth="yes"/>
      <point x="321" y="325"/>
      <point x="309" y="342"/>
      <point x="279" y="342" type="curve" smooth="yes"/>
      <point x="235" y="342"/>
      <point x="180" y="318"/>
      <point x="123" y="248" type="curve"/>
      <point x="132" y="301"/>
      <point x="161" y="491"/>
      <point x="161" y="526" type="curve" smooth="yes"/>
      <point x="161" y="548"/>
      <point x="153" y="556"/>
      <point x="140" y="556" type="curve" smooth="yes"/>
      <point x="127" y="556"/>
      <point x="82" y="540"/>
      <point x="41" y="521" type="curve"/>
      <point x="45" y="507" type="line"/>
      <point x="55" y="510"/>
      <point x="79" y="517"/>
      <point x="87" y="517" type="curve" smooth="yes"/>
      <point x="95" y="517"/>
      <point x="102" y="515"/>
      <point x="102" y="492" type="curve" smooth="yes"/>
      <point x="102" y="430"/>
      <point x="49" y="101"/>
      <point x="31" y="-3" type="curve"/>
      <point x="43" y="-15" type="line"/>
      <point x="55" y="-8"/>
      <point x="83" y="3"/>
      <point x="95" y="9" type="curve"/>
      <point x="95" y="30"/>
      <point x="96" y="56"/>
      <point x="104" y="110" type="curve" smooth="yes"/>
      <point x="110" y="153"/>
      <point x="118" y="190"/>
      <point x="132" y="213" type="curve" smooth="yes"/>
      <point x="169" y="275"/>
      <point x="227" y="305"/>
      <point x="239" y="305" type="curve" smooth="yes"/>
      <point x="261" y="305"/>
      <point x="265" y="293"/>
      <point x="265" y="256" type="curve" smooth="yes"/>
      <point x="265" y="223"/>
      <point x="234" y="53"/>
      <point x="234" y="27" type="curve" smooth="yes"/>
      <point x="234" y="1"/>
      <point x="246" y="-15"/>
      <point x="261" y="-15" type="curve" smooth="yes"/>
      <point x="281" y="-15"/>
      <point x="309" y="0"/>
    </contour>
  </outline>
</glyph>
<glyph name="i" format="2">
  <advance width="184"/>
  <unicode hex="0069"/>
  <anchor x="76" y="0" name="H"/>
  <anchor x="130" y="366" name="U"/>
  <outline>
    <contour>
      <point x="176" y="462" type="curve"/>
      <point x="176" y="478"/>
      <point x="167" y="488"/>
      <point x="152" y="488" type="curve" smooth="yes"/>
      <point x="125" y="488"/>
      <point x="107" y="456"/>
      <point x="107" y="430" type="curve" smooth="yes"/>
      <point x="107" y="414"/>
      <point x="116" y="405"/>
      <point x="131" y="405" type="curve" smooth="yes"/>
      <point x="159" y="405"/>
      <point x="176" y="435"/>
    </contour>
    <contour>
      <point x="166" y="26" type="curve"/>
      <point x="161" y="39" type="line"/>
      <point x="140" y="31"/>
      <point x="128" y="27"/>
      <point x="113" y="27" type="curve" smooth="yes"/>
      <point x="105" y="27"/>
      <point x="102" y="34"/>
      <point x="102" y="49" type="curve" smooth="yes"/>
      <point x="102" y="92"/>
      <point x="140" y="269"/>
      <point x="140" y="312" type="curve" smooth="yes"/>
      <point x="140" y="334"/>
      <point x="135" y="342"/>
      <point x="122" y="342" type="curve" smooth="yes"/>
      <point x="109" y="342"/>
      <point x="66" y="326"/>
      <point x="25" y="307" type="curve"/>
      <point x="30" y="294" type="line"/>
      <point x="43" y="297"/>
      <point x="61" y="302"/>
      <point x="67" y="302" type="curve" smooth="yes"/>
      <point x="76" y="302"/>
      <point x="82" y="300"/>
      <point x="82" y="278" type="curve" smooth="yes"/>
      <point x="82" y="242"/>
      <point x="45" y="71"/>
      <point x="45" y="27" type="curve" smooth="yes"/>
      <point x="45" y="1"/>
      <point x="56" y="-15"/>
      <point x="72" y="-15" type="curve" smooth="yes"/>
      <point x="94" y="-15"/>
      <point x="120" y="0"/>
    </contour>
  </outline>
</glyph>
<glyph name="j" format="2">
  <advance width="182"/>
  <unicode hex="006A"/>
  <anchor x="117" y="348" name="U"/>
  <outline>
    <contour>
      <point x="168" y="440" type="curve"/>
      <point x="168" y="455"/>
      <point x="159" y="466"/>
      <point x="141" y="466" type="curve" smooth="yes"/>
      <point x="110" y="466"/>
      <point x="92" y="434"/>
      <point x="92" y="410" type="curve" smooth="yes"/>
      <point x="92" y="394"/>
      <point x="101" y="383"/>
      <point x="119" y="383" type="curve" smooth="yes"/>
      <point x="149" y="383"/>
      <point x="168" y="414"/>
    </contour>
    <contour>
      <point x="139" y="303" type="curve" smooth="yes"/>
      <point x="139" y="322"/>
      <point x="132" y="326"/>
      <point x="119" y="326" type="curve" smooth="yes"/>
      <point x="106" y="326"/>
      <point x="56" y="307"/>
      <point x="17" y="289" type="curve"/>
      <point x="23" y="273" type="line"/>
      <point x="34" y="276"/>
      <point x="51" y="281"/>
      <point x="57" y="281" type="curve" smooth="yes"/>
      <point x="65" y="281"/>
      <point x="71" y="279"/>
      <point x="71" y="258" type="curve" smooth="yes"/>
      <point x="71" y="244"/>
      <point x="64" y="179"/>
      <point x="62" y="157" type="curve" smooth="yes"/>
      <point x="59" y="130"/>
      <point x="54" y="72"/>
      <point x="42" y="3" type="curve" smooth="yes"/>
      <point x="28" y="-83"/>
      <point x="8" y="-127"/>
      <point x="-30" y="-127" type="curve" smooth="yes"/>
      <point x="-68" y="-127"/>
      <point x="-85" y="-97"/>
      <point x="-93" y="-97" type="curve" smooth="yes"/>
      <point x="-103" y="-97"/>
      <point x="-135" y="-133"/>
      <point x="-135" y="-145" type="curve" smooth="yes"/>
      <point x="-135" y="-154"/>
      <point x="-98" y="-174"/>
      <point x="-68" y="-174" type="curve" smooth="yes"/>
      <point x="-48" y="-174"/>
      <point x="-12" y="-166"/>
      <point x="12" y="-146" type="curve" smooth="yes"/>
      <point x="52" y="-115"/>
      <point x="94" y="-70"/>
      <point x="108" y="25" type="curve" smooth="yes"/>
      <point x="117" y="81"/>
      <point x="122" y="134"/>
      <point x="125" y="164" type="curve" smooth="yes"/>
      <point x="128" y="194"/>
      <point x="139" y="288"/>
    </contour>
  </outline>
</glyph>
<glyph name="k" format="2">
  <advance width="329"/>
  <unicode hex="006B"/>
  <anchor x="62" y="0" name="H"/>
  <anchor x="225" y="578" name="U"/>
  <outline>
    <contour>
      <point x="329" y="317" type="curve"/>
      <point x="329" y="334"/>
      <point x="324" y="340"/>
      <point x="301" y="340" type="curve" smooth="yes"/>
      <point x="270" y="340"/>
      <point x="245" y="332"/>
      <point x="216" y="328" type="curve"/>
      <point x="218" y="314" type="line"/>
      <point x="244" y="314"/>
      <point x="257" y="312"/>
      <point x="257" y="305" type="curve" smooth="yes"/>
      <point x="257" y="294"/>
      <point x="232" y="275"/>
      <point x="193" y="245" type="curve" smooth="yes"/>
      <point x="113" y="184" type="line"/>
      <point x="136" y="171" type="line"/>
      <point x="212" y="217" type="line" smooth="yes"/>
      <point x="285" y="261"/>
      <point x="329" y="303"/>
    </contour>
    <contour>
      <point x="161" y="518" type="curve" smooth="yes"/>
      <point x="161" y="553"/>
      <point x="153" y="556"/>
      <point x="139" y="556" type="curve" smooth="yes"/>
      <point x="127" y="556"/>
      <point x="81" y="540"/>
      <point x="40" y="521" type="curve"/>
      <point x="45" y="507" type="line"/>
      <point x="55" y="510"/>
      <point x="77" y="517"/>
      <point x="85" y="517" type="curve" smooth="yes"/>
      <point x="96" y="517"/>
      <point x="102" y="515"/>
      <point x="102" y="491" type="curve" smooth="yes"/>
      <point x="102" y="417"/>
      <point x="38" y="53"/>
      <point x="31" y="-3" type="curve"/>
      <point x="44" y="-15" type="line"/>
      <point x="56" y="-9"/>
      <point x="85" y="4"/>
      <point x="98" y="9" type="curve"/>
      <point x="84" y="60"/>
      <point x="161" y="424"/>
    </contour>
    <contour>
      <point x="325" y="24" type="curve"/>
      <point x="319" y="37" type="line"/>
      <point x="311" y="32"/>
      <point x="295" y="27"/>
      <point x="277" y="27" type="curve" smooth="yes"/>
      <point x="244" y="27"/>
      <point x="196" y="181"/>
      <point x="153" y="206" type="curve"/>
      <point x="113" y="184" type="line"/>
      <point x="153" y="156"/>
      <point x="198" y="-14"/>
      <point x="251" y="-14" type="curve" smooth="yes"/>
      <point x="269" y="-14"/>
      <point x="293" y="-2"/>
    </contour>
  </outline>
</glyph>
<glyph name="l" format="2">
  <advance width="176"/>
  <unicode hex="006C"/>
  <anchor x="65" y="0" name="H"/>
  <anchor x="140" y="600" name="U"/>
  <outline>
    <contour>
      <point x="159" y="26" type="curve"/>
      <point x="155" y="39" type="line"/>
      <point x="133" y="31"/>
      <point x="119" y="27"/>
      <point x="108" y="27" type="curve" smooth="yes"/>
      <point x="100" y="27"/>
      <point x="95" y="32"/>
      <point x="95" y="49" type="curve" smooth="yes"/>
      <point x="95" y="116"/>
      <point x="158" y="450"/>
      <point x="158" y="526" type="curve" smooth="yes"/>
      <point x="158" y="548"/>
      <point x="150" y="556"/>
      <point x="136" y="556" type="curve" smooth="yes"/>
      <point x="123" y="556"/>
      <point x="79" y="540"/>
      <point x="38" y="521" type="curve"/>
      <point x="43" y="507" type="line"/>
      <point x="56" y="511"/>
      <point x="75" y="517"/>
      <point x="81" y="517" type="curve" smooth="yes"/>
      <point x="90" y="517"/>
      <point x="100" y="515"/>
      <point x="100" y="492" type="curve" smooth="yes"/>
      <point x="100" y="424"/>
      <point x="37" y="77"/>
      <point x="37" y="28" type="curve" smooth="yes"/>
      <point x="37" y="0"/>
      <point x="50" y="-15"/>
      <point x="63" y="-15" type="curve" smooth="yes"/>
      <point x="88" y="-15"/>
      <point x="111" y="-3"/>
    </contour>
  </outline>
</glyph>
<glyph name="m" format="2">
  <advance width="540"/>
  <unicode hex="006D"/>
  <anchor x="429" y="0" name="H"/>
  <anchor x="297" y="366" name="U"/>
  <outline>
    <contour>
      <point x="517" y="26" type="curve"/>
      <point x="513" y="39" type="line"/>
      <point x="493" y="32"/>
      <point x="481" y="28"/>
      <point x="467" y="28" type="curve" smooth="yes"/>
      <point x="458" y="28"/>
      <point x="453" y="32"/>
      <point x="453" y="49" type="curve" smooth="yes"/>
      <point x="453" y="90"/>
      <point x="485" y="222"/>
      <point x="485" y="278" type="curve" smooth="yes"/>
      <point x="485" y="325"/>
      <point x="467" y="342"/>
      <point x="438" y="342" type="curve" smooth="yes"/>
      <point x="402" y="342"/>
      <point x="365" y="317"/>
      <point x="308" y="251" type="curve"/>
      <point x="309" y="262"/>
      <point x="309" y="269"/>
      <point x="309" y="278" type="curve" smooth="yes"/>
      <point x="309" y="310"/>
      <point x="299" y="342"/>
      <point x="263" y="342" type="curve" smooth="yes"/>
      <point x="223" y="342"/>
      <point x="181" y="317"/>
      <point x="123" y="248" type="curve"/>
      <point x="125" y="266"/>
      <point x="128" y="290"/>
      <point x="128" y="300" type="curve" smooth="yes"/>
      <point x="128" y="335"/>
      <point x="126" y="342"/>
      <point x="111" y="342" type="curve" smooth="yes"/>
      <point x="99" y="342"/>
      <point x="56" y="326"/>
      <point x="15" y="308" type="curve"/>
      <point x="19" y="294" type="line"/>
      <point x="19" y="294"/>
      <point x="49" y="303"/>
      <point x="58" y="303" type="curve" smooth="yes"/>
      <point x="66" y="303"/>
      <point x="72" y="300"/>
      <point x="72" y="278" type="curve" smooth="yes"/>
      <point x="72" y="236"/>
      <point x="51" y="99"/>
      <point x="31" y="-3" type="curve"/>
      <point x="43" y="-15" type="line"/>
      <point x="55" y="-8"/>
      <point x="83" y="2"/>
      <point x="95" y="9" type="curve"/>
      <point x="95" y="32"/>
      <point x="96" y="63"/>
      <point x="104" y="108" type="curve" smooth="yes"/>
      <point x="112" y="155"/>
      <point x="119" y="188"/>
      <point x="139" y="220" type="curve" smooth="yes"/>
      <point x="176" y="280"/>
      <point x="219" y="305"/>
      <point x="232" y="305" type="curve" smooth="yes"/>
      <point x="246" y="305"/>
      <point x="254" y="293"/>
      <point x="254" y="256" type="curve" smooth="yes"/>
      <point x="254" y="220"/>
      <point x="234" y="95"/>
      <point x="212" y="-3" type="curve"/>
      <point x="224" y="-15" type="line"/>
      <point x="236" y="-8"/>
      <point x="264" y="2"/>
      <point x="278" y="9" type="curve"/>
      <point x="276" y="32"/>
      <point x="278" y="63"/>
      <point x="284" y="108" type="curve" smooth="yes"/>
      <point x="292" y="154"/>
      <point x="296" y="186"/>
      <point x="318" y="219" type="curve" smooth="yes"/>
      <point x="357" y="279"/>
      <point x="397" y="305"/>
      <point x="415" y="305" type="curve" smooth="yes"/>
      <point x="424" y="305"/>
      <point x="431" y="293"/>
      <point x="431" y="263" type="curve" smooth="yes"/>
      <point x="431" y="214"/>
      <point x="397" y="53"/>
      <point x="397" y="27" type="curve" smooth="yes"/>
      <point x="397" y="1"/>
      <point x="408" y="-15"/>
      <point x="422" y="-15" type="curve" smooth="yes"/>
      <point x="443" y="-15"/>
      <point x="472" y="0"/>
    </contour>
  </outline>
</glyph>
<glyph name="n" format="2">
  <advance width="370"/>
  <unicode hex="006E"/>
  <anchor x="263" y="0" name="H"/>
  <anchor x="213" y="366" name="U"/>
  <outline>
    <contour>
      <point x="356" y="26" type="curve"/>
      <point x="350" y="39" type="line"/>
      <point x="330" y="31"/>
      <point x="316" y="27"/>
      <point x="305" y="27" type="curve" smooth="yes"/>
      <point x="296" y="27"/>
      <point x="291" y="32"/>
      <point x="291" y="49" type="curve" smooth="yes"/>
      <point x="291" y="90"/>
      <point x="324" y="228"/>
      <point x="324" y="279" type="curve" smooth="yes"/>
      <point x="324" y="326"/>
      <point x="308" y="342"/>
      <point x="277" y="342" type="curve" smooth="yes"/>
      <point x="234" y="342"/>
      <point x="179" y="314"/>
      <point x="125" y="248" type="curve"/>
      <point x="127" y="260"/>
      <point x="129" y="291"/>
      <point x="129" y="301" type="curve" smooth="yes"/>
      <point x="129" y="336"/>
      <point x="128" y="342"/>
      <point x="115" y="342" type="curve" smooth="yes"/>
      <point x="103" y="342"/>
      <point x="58" y="326"/>
      <point x="17" y="308" type="curve"/>
      <point x="22" y="294" type="line"/>
      <point x="31" y="296"/>
      <point x="54" y="303"/>
      <point x="61" y="303" type="curve" smooth="yes"/>
      <point x="70" y="303"/>
      <point x="75" y="301"/>
      <point x="75" y="279" type="curve" smooth="yes"/>
      <point x="75" y="244"/>
      <point x="53" y="93"/>
      <point x="33" y="-3" type="curve"/>
      <point x="45" y="-15" type="line"/>
      <point x="57" y="-9"/>
      <point x="85" y="3"/>
      <point x="98" y="9" type="curve"/>
      <point x="97" y="38"/>
      <point x="98" y="66"/>
      <point x="106" y="110" type="curve" smooth="yes"/>
      <point x="114" y="157"/>
      <point x="122" y="188"/>
      <point x="135" y="212" type="curve" smooth="yes"/>
      <point x="172" y="274"/>
      <point x="227" y="306"/>
      <point x="240" y="306" type="curve" smooth="yes"/>
      <point x="261" y="306"/>
      <point x="268" y="293"/>
      <point x="268" y="256" type="curve" smooth="yes"/>
      <point x="268" y="223"/>
      <point x="235" y="53"/>
      <point x="235" y="27" type="curve" smooth="yes"/>
      <point x="235" y="1"/>
      <point x="245" y="-15"/>
      <point x="262" y="-15" type="curve" smooth="yes"/>
      <point x="281" y="-15"/>
      <point x="312" y="0"/>
    </contour>
  </outline>
</glyph>
<glyph name="o" format="2">
  <advance width="316"/>
  <unicode hex="006F"/>
  <anchor x="136" y="0" name="H"/>
  <anchor x="184" y="366" name="U"/>
  <outline>
    <contour>
      <point x="296" y="204" type="curve"/>
      <point x="296" y="285"/>
      <point x="267" y="342"/>
      <point x="191" y="342" type="curve" smooth="yes"/>
      <point x="161" y="342"/>
      <point x="129" y="327"/>
      <point x="105" y="307" type="curve" smooth="yes"/>
      <point x="40" y="256"/>
      <point x="19" y="195"/>
      <point x="19" y="125" type="curve" smooth="yes"/>
      <point x="19" y="45"/>
      <point x="58" y="-15"/>
      <point x="126" y="-15" type="curve" smooth="yes"/>
      <point x="156" y="-15"/>
      <point x="187" y="2"/>
      <point x="213" y="23" type="curve" smooth="yes"/>
      <point x="267" y="68"/>
      <point x="296" y="139"/>
    </contour>
    <contour>
      <point x="244" y="184" type="curve"/>
      <point x="244" y="124"/>
      <point x="218" y="26"/>
      <point x="151" y="26" type="curve" smooth="yes"/>
      <point x="106" y="26"/>
      <point x="72" y="80"/>
      <point x="72" y="146" type="curve" smooth="yes"/>
      <point x="72" y="208"/>
      <point x="95" y="299"/>
      <point x="165" y="299" type="curve" smooth="yes"/>
      <point x="216" y="299"/>
      <point x="244" y="258"/>
    </contour>
  </outline>
</glyph>
<glyph name="p" format="2">
  <advance width="343"/>
  <unicode hex="0070"/>
  <anchor x="30" y="-156" name="H"/>
  <anchor x="199" y="348" name="U"/>
  <outline>
    <contour>
      <point x="317" y="218" type="curve"/>
      <point x="317" y="288"/>
      <point x="285" y="326"/>
      <point x="247" y="326" type="curve" smooth="yes"/>
      <point x="216" y="326"/>
      <point x="172" y="313"/>
      <point x="107" y="213" type="curve"/>
      <point x="109" y="163" type="line"/>
      <point x="139" y="231"/>
      <point x="192" y="275"/>
      <point x="214" y="275" type="curve" smooth="yes"/>
      <point x="235" y="275"/>
      <point x="255" y="244"/>
      <point x="255" y="184" type="curve" smooth="yes"/>
      <point x="255" y="154"/>
      <point x="253" y="112"/>
      <point x="238" y="79" type="curve" smooth="yes"/>
      <point x="227" y="57"/>
      <point x="209" y="43"/>
      <point x="186" y="43" type="curve" smooth="yes"/>
      <point x="151" y="43"/>
      <point x="111" y="84"/>
      <point x="99" y="110" type="curve"/>
      <point x="84" y="76" type="line"/>
      <point x="111" y="32"/>
      <point x="147" y="-14"/>
      <point x="179" y="-14" type="curve" smooth="yes"/>
      <point x="218" y="-14"/>
      <point x="253" y="26"/>
      <point x="274" y="62" type="curve" smooth="yes"/>
      <point x="302" y="112"/>
      <point x="317" y="169"/>
    </contour>
    <contour>
      <point x="130" y="303" type="curve"/>
      <point x="130" y="321"/>
      <point x="123" y="326"/>
      <point x="112" y="326" type="curve" smooth="yes"/>
      <point x="99" y="326"/>
      <point x="47" y="307"/>
      <point x="7" y="289" type="curve"/>
      <point x="13" y="273" type="line"/>
      <point x="21" y="275"/>
      <point x="40" y="281"/>
      <point x="47" y="281" type="curve" smooth="yes"/>
      <point x="55" y="281"/>
      <point x="63" y="279"/>
      <point x="63" y="258" type="curve" smooth="yes"/>
      <point x="63" y="198"/>
      <point x="3" y="-110"/>
      <point x="-3" y="-163" type="curve"/>
      <point x="8" y="-174" type="line"/>
      <point x="20" y="-168"/>
      <point x="56" y="-155"/>
      <point x="70" y="-151" type="curve"/>
      <point x="65" y="-138"/>
      <point x="68" y="-93"/>
      <point x="83" y="2" type="curve" smooth="yes"/>
      <point x="114" y="195"/>
      <point x="130" y="273"/>
    </contour>
  </outline>
</glyph>
<glyph name="q" format="2">
  <advance width="336"/>
  <unicode hex="0071"/>
  <anchor x="192" y="366" name="U"/>
  <outline>
    <contour>
      <point x="303" y="310" type="curve"/>
      <point x="287" y="312"/>
      <point x="257" y="342"/>
      <point x="224" y="342" type="curve" smooth="yes"/>
      <point x="193" y="342"/>
      <point x="156" y="326"/>
      <point x="129" y="308" type="curve" smooth="yes"/>
      <point x="60" y="263"/>
      <point x="19" y="188"/>
      <point x="19" y="111" type="curve" smooth="yes"/>
      <point x="19" y="20"/>
      <point x="68" y="-15"/>
      <point x="101" y="-15" type="curve" smooth="yes"/>
      <point x="140" y="-15"/>
      <point x="186" y="38"/>
      <point x="221" y="95" type="curve"/>
      <point x="234" y="164" type="line"/>
      <point x="200" y="102"/>
      <point x="153" y="35"/>
      <point x="127" y="35" type="curve" smooth="yes"/>
      <point x="98" y="35"/>
      <point x="66" y="75"/>
      <point x="66" y="138" type="curve" smooth="yes"/>
      <point x="66" y="196"/>
      <point x="120" y="304"/>
      <point x="187" y="304" type="curve" smooth="yes"/>
      <point x="231" y="304"/>
      <point x="261" y="264"/>
      <point x="273" y="264" type="curve" smooth="yes"/>
      <point x="285" y="264"/>
      <point x="282" y="296"/>
    </contour>
    <contour>
      <point x="327" y="329" type="curve"/>
      <point x="319" y="342" type="line"/>
      <point x="286" y="327"/>
      <point x="254" y="304"/>
      <point x="251" y="281" type="curve" smooth="yes"/>
      <point x="222" y="110"/>
      <point x="186" y="-116"/>
      <point x="178" y="-172" type="curve"/>
      <point x="191" y="-183" type="line"/>
      <point x="203" y="-177"/>
      <point x="232" y="-167"/>
      <point x="246" y="-163" type="curve"/>
      <point x="243" y="-158"/>
      <point x="242" y="-148"/>
      <point x="242" y="-134" type="curve" smooth="yes"/>
      <point x="242" y="-67"/>
      <point x="273" y="115"/>
      <point x="300" y="278" type="curve" smooth="yes"/>
      <point x="306" y="311"/>
      <point x="311" y="316"/>
    </contour>
  </outline>
</glyph>
<glyph name="r" format="2">
  <advance width="266"/>
  <unicode hex="0072"/>
  <anchor x="62" y="0" name="H"/>
  <anchor x="166" y="348" name="U"/>
  <outline>
    <contour>
      <point x="282" y="296" type="curve"/>
      <point x="261" y="304"/>
      <point x="247" y="326"/>
      <point x="230" y="326" type="curve" smooth="yes"/>
      <point x="200" y="326"/>
      <point x="167" y="308"/>
      <point x="122" y="222" type="curve"/>
      <point x="125" y="239"/>
      <point x="130" y="278"/>
      <point x="130" y="288" type="curve" smooth="yes"/>
      <point x="130" y="319"/>
      <point x="128" y="326"/>
      <point x="116" y="326" type="curve" smooth="yes"/>
      <point x="102" y="326"/>
      <point x="51" y="307"/>
      <point x="12" y="289" type="curve"/>
      <point x="17" y="273" type="line"/>
      <point x="25" y="275"/>
      <point x="45" y="281"/>
      <point x="52" y="281" type="curve" smooth="yes"/>
      <point x="60" y="281"/>
      <point x="67" y="279"/>
      <point x="67" y="258" type="curve" smooth="yes"/>
      <point x="67" y="215"/>
      <point x="49" y="96"/>
      <point x="28" y="-2" type="curve"/>
      <point x="41" y="-14" type="line"/>
      <point x="52" y="-8"/>
      <point x="88" y="7"/>
      <point x="100" y="13" type="curve"/>
      <point x="99" y="50"/>
      <point x="106" y="98"/>
      <point x="116" y="133" type="curve" smooth="yes"/>
      <point x="135" y="200"/>
      <point x="176" y="265"/>
      <point x="200" y="265" type="curve" smooth="yes"/>
      <point x="214" y="265"/>
      <point x="223" y="240"/>
      <point x="240" y="240" type="curve" smooth="yes"/>
      <point x="249" y="240"/>
      <point x="270" y="281"/>
    </contour>
  </outline>
</glyph>
<glyph name="s" format="2">
  <advance width="260"/>
  <unicode hex="0073"/>
  <anchor x="106" y="0" name="H"/>
  <anchor x="160" y="366" name="U"/>
  <outline>
    <contour>
      <point x="255" y="309" type="curve"/>
      <point x="235" y="314"/>
      <point x="218" y="342"/>
      <point x="169" y="342" type="curve" smooth="yes"/>
      <point x="111" y="342"/>
      <point x="45" y="300"/>
      <point x="45" y="239" type="curve" smooth="yes"/>
      <point x="45" y="207"/>
      <point x="62" y="183"/>
      <point x="113" y="159" type="curve" smooth="yes"/>
      <point x="150" y="142"/>
      <point x="184" y="119"/>
      <point x="184" y="81" type="curve" smooth="yes"/>
      <point x="184" y="47"/>
      <point x="156" y="20"/>
      <point x="121" y="20" type="curve" smooth="yes"/>
      <point x="57" y="20"/>
      <point x="45" y="81"/>
      <point x="35" y="81" type="curve" smooth="yes"/>
      <point x="25" y="81"/>
      <point x="-1" y="46"/>
      <point x="-1" y="35" type="curve" smooth="yes"/>
      <point x="-1" y="15"/>
      <point x="46" y="-15"/>
      <point x="92" y="-15" type="curve" smooth="yes"/>
      <point x="156" y="-15"/>
      <point x="232" y="38"/>
      <point x="232" y="105" type="curve" smooth="yes"/>
      <point x="232" y="157"/>
      <point x="188" y="186"/>
      <point x="148" y="204" type="curve" smooth="yes"/>
      <point x="109" y="223"/>
      <point x="94" y="242"/>
      <point x="94" y="259" type="curve" smooth="yes"/>
      <point x="94" y="291"/>
      <point x="123" y="312"/>
      <point x="150" y="312" type="curve" smooth="yes"/>
      <point x="182" y="312"/>
      <point x="196" y="271"/>
      <point x="209" y="271" type="curve" smooth="yes"/>
      <point x="216" y="271"/>
      <point x="236" y="287"/>
    </contour>
  </outline>
</glyph>
<glyph name="t" format="2">
  <advance width="230"/>
  <unicode hex="0074"/>
  <anchor x="92" y="0" name="H"/>
  <anchor x="155" y="450" name="U"/>
  <outline>
    <contour>
      <point x="236" y="321" type="curve"/>
      <point x="228" y="331" type="line"/>
      <point x="58" y="331" type="line"/>
      <point x="21" y="309" type="line"/>
      <point x="27" y="298" type="line"/>
      <point x="133" y="298" type="line" smooth="yes"/>
      <point x="170" y="298"/>
      <point x="183" y="295"/>
      <point x="189" y="281" type="curve"/>
      <point x="198" y="287"/>
      <point x="226" y="307"/>
    </contour>
    <contour>
      <point x="212" y="42" type="curve"/>
      <point x="206" y="56" type="line"/>
      <point x="169" y="39"/>
      <point x="146" y="32"/>
      <point x="128" y="32" type="curve" smooth="yes"/>
      <point x="115" y="32"/>
      <point x="102" y="47"/>
      <point x="102" y="77" type="curve" smooth="yes"/>
      <point x="102" y="87"/>
      <point x="103" y="111"/>
      <point x="106" y="130" type="curve" smooth="yes"/>
      <point x="140" y="352" type="line" smooth="yes"/>
      <point x="147" y="396"/>
      <point x="156" y="417"/>
      <point x="159" y="421" type="curve"/>
      <point x="149" y="430" type="line"/>
      <point x="112" y="404" type="line" smooth="yes"/>
      <point x="99" y="394"/>
      <point x="93" y="383"/>
      <point x="87" y="344" type="curve" smooth="yes"/>
      <point x="51" y="121" type="line" smooth="yes"/>
      <point x="47" y="94"/>
      <point x="46" y="77"/>
      <point x="46" y="58" type="curve" smooth="yes"/>
      <point x="46" y="15"/>
      <point x="68" y="-15"/>
      <point x="92" y="-15" type="curve" smooth="yes"/>
      <point x="113" y="-15"/>
      <point x="164" y="5"/>
    </contour>
  </outline>
</glyph>
<glyph name="u" format="2">
  <advance width="374"/>
  <unicode hex="0075"/>
  <anchor x="149" y="0" name="H"/>
  <anchor x="212" y="366" name="U"/>
  <outline>
    <contour>
      <point x="357" y="24" type="curve"/>
      <point x="351" y="38" type="line"/>
      <point x="334" y="30"/>
      <point x="322" y="27"/>
      <point x="309" y="27" type="curve" smooth="yes"/>
      <point x="297" y="27"/>
      <point x="291" y="48"/>
      <point x="291" y="93" type="curve" smooth="yes"/>
      <point x="291" y="140"/>
      <point x="321" y="269"/>
      <point x="321" y="312" type="curve" smooth="yes"/>
      <point x="321" y="334"/>
      <point x="317" y="342"/>
      <point x="304" y="342" type="curve" smooth="yes"/>
      <point x="291" y="342"/>
      <point x="251" y="326"/>
      <point x="209" y="307" type="curve"/>
      <point x="215" y="294" type="line"/>
      <point x="226" y="297"/>
      <point x="243" y="302"/>
      <point x="249" y="302" type="curve" smooth="yes"/>
      <point x="258" y="302"/>
      <point x="263" y="300"/>
      <point x="263" y="278" type="curve" smooth="yes"/>
      <point x="263" y="242"/>
      <point x="247" y="183"/>
      <point x="242" y="131" type="curve" smooth="yes"/>
      <point x="230" y="21"/>
      <point x="251" y="-15"/>
      <point x="272" y="-15" type="curve" smooth="yes"/>
      <point x="290" y="-15"/>
      <point x="317" y="-1"/>
    </contour>
    <contour>
      <point x="249" y="168" type="line"/>
      <point x="196" y="65"/>
      <point x="148" y="29"/>
      <point x="128" y="29" type="curve" smooth="yes"/>
      <point x="110" y="29"/>
      <point x="100" y="49"/>
      <point x="100" y="95" type="curve" smooth="yes"/>
      <point x="100" y="138"/>
      <point x="129" y="269"/>
      <point x="129" y="312" type="curve" smooth="yes"/>
      <point x="129" y="334"/>
      <point x="125" y="342"/>
      <point x="111" y="342" type="curve" smooth="yes"/>
      <point x="99" y="342"/>
      <point x="55" y="326"/>
      <point x="14" y="307" type="curve"/>
      <point x="18" y="294" type="line"/>
      <point x="31" y="297"/>
      <point x="50" y="302"/>
      <point x="56" y="302" type="curve" smooth="yes"/>
      <point x="65" y="302"/>
      <point x="71" y="300"/>
      <point x="71" y="278" type="curve" smooth="yes"/>
      <point x="71" y="242"/>
      <point x="44" y="118"/>
      <point x="44" y="75" type="curve" smooth="yes"/>
      <point x="44" y="15"/>
      <point x="78" y="-15"/>
      <point x="98" y="-15" type="curve" smooth="yes"/>
      <point x="151" y="-15"/>
      <point x="201" y="38"/>
      <point x="242" y="111" type="curve"/>
    </contour>
  </outline>
</glyph>
<glyph name="v" format="2">
  <advance width="334"/>
  <unicode hex="0076"/>
  <anchor x="146" y="0" name="H"/>
  <anchor x="192" y="366" name="U"/>
  <outline>
    <contour>
      <point x="327" y="312" type="curve"/>
      <point x="327" y="335"/>
      <point x="317" y="342"/>
      <point x="299" y="342" type="curve" smooth="yes"/>
      <point x="283" y="342"/>
      <point x="245" y="328"/>
      <point x="217" y="314" type="curve"/>
      <point x="224" y="301" type="line"/>
      <point x="234" y="305"/>
      <point x="245" y="306"/>
      <point x="253" y="306" type="curve" smooth="yes"/>
      <point x="266" y="306"/>
      <point x="276" y="301"/>
      <point x="276" y="291" type="curve" smooth="yes"/>
      <point x="276" y="266"/>
      <point x="239" y="172"/>
      <point x="166" y="54" type="curve"/>
      <point x="166" y="73"/>
      <point x="135" y="258"/>
      <point x="124" y="296" type="curve" smooth="yes"/>
      <point x="114" y="330"/>
      <point x="109" y="342"/>
      <point x="95" y="342" type="curve" smooth="yes"/>
      <point x="83" y="342"/>
      <point x="46" y="326"/>
      <point x="5" y="307" type="curve"/>
      <point x="10" y="294" type="line"/>
      <point x="21" y="297"/>
      <point x="39" y="302"/>
      <point x="46" y="302" type="curve" smooth="yes"/>
      <point x="54" y="302"/>
      <point x="65" y="299"/>
      <point x="72" y="272" type="curve" smooth="yes"/>
      <point x="84" y="228"/>
      <point x="110" y="78"/>
      <point x="120" y="-3" type="curve"/>
      <point x="132" y="-15" type="line"/>
      <point x="142" y="-10"/>
      <point x="158" y="-3"/>
      <point x="167" y="0" type="curve"/>
      <point x="287" y="193"/>
      <point x="327" y="280"/>
    </contour>
  </outline>
</glyph>
<glyph name="w" format="2">
  <advance width="461"/>
  <unicode hex="0077"/>
  <anchor x="268" y="348" name="U"/>
  <outline>
    <contour>
      <point x="458" y="299" type="curve"/>
      <point x="458" y="322"/>
      <point x="445" y="326"/>
      <point x="429" y="326" type="curve" smooth="yes"/>
      <point x="418" y="326"/>
      <point x="387" y="318"/>
      <point x="354" y="298" type="curve"/>
      <point x="361" y="282" type="line"/>
      <point x="371" y="285"/>
      <point x="382" y="287"/>
      <point x="388" y="287" type="curve" smooth="yes"/>
      <point x="400" y="287"/>
      <point x="407" y="281"/>
      <point x="407" y="271" type="curve" smooth="yes"/>
      <point x="407" y="238"/>
      <point x="389" y="177"/>
      <point x="326" y="62" type="curve"/>
      <point x="322" y="106"/>
      <point x="311" y="165"/>
      <point x="304" y="209" type="curve" smooth="yes"/>
      <point x="297" y="251"/>
      <point x="282" y="326"/>
      <point x="276" y="326" type="curve" smooth="yes"/>
      <point x="265" y="326"/>
      <point x="239" y="310"/>
      <point x="224" y="296" type="curve"/>
      <point x="220" y="238"/>
      <point x="181" y="140"/>
      <point x="143" y="68" type="curve"/>
      <point x="141" y="103"/>
      <point x="125" y="242"/>
      <point x="117" y="278" type="curve" smooth="yes"/>
      <point x="109" y="312"/>
      <point x="104" y="326"/>
      <point x="92" y="326" type="curve" smooth="yes"/>
      <point x="78" y="326"/>
      <point x="39" y="307"/>
      <point x="0" y="288" type="curve"/>
      <point x="5" y="272" type="line"/>
      <point x="5" y="272"/>
      <point x="31" y="280"/>
      <point x="39" y="280" type="curve" smooth="yes"/>
      <point x="48" y="280"/>
      <point x="59" y="277"/>
      <point x="64" y="251" type="curve"/>
      <point x="75" y="211"/>
      <point x="86" y="76"/>
      <point x="96" y="-2" type="curve"/>
      <point x="108" y="-14" type="line"/>
      <point x="117" y="-10"/>
      <point x="144" y="4"/>
      <point x="152" y="8" type="curve"/>
      <point x="197" y="87"/>
      <point x="240" y="196"/>
      <point x="244" y="226" type="curve"/>
      <point x="256" y="183"/>
      <point x="271" y="75"/>
      <point x="281" y="-2" type="curve"/>
      <point x="293" y="-14" type="line"/>
      <point x="302" y="-10"/>
      <point x="326" y="1"/>
      <point x="334" y="5" type="curve"/>
      <point x="439" y="199"/>
      <point x="458" y="262"/>
    </contour>
  </outline>
</glyph>
<glyph name="x" format="2">
  <advance width="329"/>
  <unicode hex="0078"/>
  <anchor x="241" y="0" name="H"/>
  <anchor x="201" y="366" name="U"/>
  <outline>
    <contour>
      <point x="327" y="323" type="curve" smooth="yes"/>
      <point x="327" y="333"/>
      <point x="318" y="342"/>
      <point x="295" y="342" type="curve" smooth="yes"/>
      <point x="283" y="342"/>
      <point x="257" y="340"/>
      <point x="224" y="333" type="curve"/>
      <point x="225" y="318" type="line"/>
      <point x="232" y="319"/>
      <point x="237" y="319"/>
      <point x="242" y="319" type="curve" smooth="yes"/>
      <point x="258" y="319"/>
      <point x="261" y="314"/>
      <point x="261" y="306" type="curve" smooth="yes"/>
      <point x="261" y="299"/>
      <point x="213" y="231"/>
      <point x="170" y="181" type="curve"/>
      <point x="183" y="150" type="line"/>
      <point x="276" y="250"/>
      <point x="327" y="305"/>
    </contour>
    <contour>
      <point x="321" y="26" type="curve"/>
      <point x="314" y="39" type="line"/>
      <point x="296" y="30"/>
      <point x="281" y="27"/>
      <point x="270" y="27" type="curve" smooth="yes"/>
      <point x="221" y="27"/>
      <point x="151" y="342"/>
      <point x="97" y="342" type="curve" smooth="yes"/>
      <point x="87" y="342"/>
      <point x="36" y="319"/>
      <point x="9" y="307" type="curve"/>
      <point x="15" y="293" type="line"/>
      <point x="26" y="296"/>
      <point x="54" y="302"/>
      <point x="60" y="302" type="curve" smooth="yes"/>
      <point x="111" y="302"/>
      <point x="174" y="-15"/>
      <point x="239" y="-15" type="curve" smooth="yes"/>
      <point x="258" y="-15"/>
      <point x="279" y="-2"/>
    </contour>
    <contour>
      <point x="160" y="135" type="curve"/>
      <point x="148" y="168" type="line"/>
      <point x="105" y="114"/>
      <point x="37" y="39"/>
      <point x="-10" y="-2" type="curve"/>
      <point x="-2" y="-15" type="line"/>
      <point x="15" y="-9"/>
      <point x="40" y="-5"/>
      <point x="58" y="-3" type="curve"/>
      <point x="97" y="54"/>
      <point x="140" y="106"/>
    </contour>
  </outline>
</glyph>
<glyph name="y" format="2">
  <advance width="339"/>
  <unicode hex="0079"/>
  <anchor x="206" y="366" name="U"/>
  <outline>
    <contour>
      <point x="187" y="17" type="line"/>
      <point x="170" y="115"/>
      <point x="137" y="234"/>
      <point x="116" y="296" type="curve" smooth="yes"/>
      <point x="104" y="329"/>
      <point x="98" y="342"/>
      <point x="84" y="342" type="curve" smooth="yes"/>
      <point x="72" y="342"/>
      <point x="35" y="326"/>
      <point x="-2" y="307" type="curve"/>
      <point x="2" y="294" type="line"/>
      <point x="13" y="297"/>
      <point x="31" y="302"/>
      <point x="38" y="302" type="curve" smooth="yes"/>
      <point x="46" y="302"/>
      <point x="53" y="297"/>
      <point x="64" y="272" type="curve" smooth="yes"/>
      <point x="86" y="226"/>
      <point x="124" y="63"/>
      <point x="138" y="-20" type="curve"/>
      <point x="150" y="-31" type="line"/>
    </contour>
    <contour>
      <point x="327" y="314" type="curve"/>
      <point x="327" y="339"/>
      <point x="313" y="342"/>
      <point x="296" y="342" type="curve" smooth="yes"/>
      <point x="280" y="342"/>
      <point x="253" y="334"/>
      <point x="218" y="314" type="curve"/>
      <point x="224" y="300" type="line"/>
      <point x="239" y="306"/>
      <point x="249" y="309"/>
      <point x="258" y="309" type="curve" smooth="yes"/>
      <point x="270" y="309"/>
      <point x="277" y="301"/>
      <point x="277" y="289" type="curve" smooth="yes"/>
      <point x="277" y="260"/>
      <point x="212" y="123"/>
      <point x="161" y="27" type="curve" smooth="yes"/>
      <point x="111" y="-69"/>
      <point x="67" y="-125"/>
      <point x="20" y="-125" type="curve" smooth="yes"/>
      <point x="2" y="-125"/>
      <point x="-8" y="-125"/>
      <point x="-31" y="-110" type="curve"/>
      <point x="-45" y="-117"/>
      <point x="-66" y="-153"/>
      <point x="-66" y="-164" type="curve" smooth="yes"/>
      <point x="-66" y="-172"/>
      <point x="-42" y="-183"/>
      <point x="-13" y="-183" type="curve" smooth="yes"/>
      <point x="70" y="-183"/>
      <point x="132" y="-97"/>
      <point x="198" y="30" type="curve" smooth="yes"/>
      <point x="294" y="217"/>
      <point x="327" y="281"/>
    </contour>
  </outline>
</glyph>
<glyph name="z" format="2">
  <advance width="284"/>
  <unicode hex="007A"/>
  <anchor x="139" y="0" name="H"/>
  <anchor x="178" y="366" name="U"/>
  <outline>
    <contour>
      <point x="284" y="324" type="curve"/>
      <point x="276" y="335" type="line"/>
      <point x="98" y="335" type="line" smooth="yes"/>
      <point x="85" y="335"/>
      <point x="71" y="339"/>
      <point x="62" y="342" type="curve"/>
      <point x="58" y="321"/>
      <point x="47" y="290"/>
      <point x="38" y="246" type="curve"/>
      <point x="53" y="243" type="line"/>
      <point x="67" y="284"/>
      <point x="75" y="291"/>
      <point x="98" y="291" type="curve" smooth="yes"/>
      <point x="208" y="291" type="line"/>
      <point x="165" y="240"/>
      <point x="71" y="88"/>
      <point x="-1" y="0" type="curve"/>
      <point x="6" y="-11" type="line"/>
      <point x="42" y="9"/>
      <point x="62" y="17"/>
      <point x="75" y="17" type="curve" smooth="yes"/>
      <point x="105" y="17"/>
      <point x="143" y="-7"/>
      <point x="191" y="-7" type="curve" smooth="yes"/>
      <point x="239" y="-7"/>
      <point x="249" y="9"/>
      <point x="276" y="70" type="curve"/>
      <point x="263" y="78" type="line"/>
      <point x="243" y="40"/>
      <point x="228" y="38"/>
      <point x="218" y="38" type="curve" smooth="yes"/>
      <point x="183" y="38"/>
      <point x="133" y="60"/>
      <point x="113" y="60" type="curve" smooth="yes"/>
      <point x="102" y="60"/>
      <point x="90" y="57"/>
      <point x="83" y="54" type="curve"/>
      <point x="161" y="153"/>
      <point x="203" y="237"/>
    </contour>
  </outline>
</glyph>
<glyph name="braceleft" format="2">
  <advance width="234"/>
  <unicode hex="007B"/>
  <outline>
    <contour>
      <point x="271" y="568" type="curve"/>
      <point x="264" y="585" type="line"/>
      <point x="191" y="552"/>
      <point x="143" y="503"/>
      <point x="133" y="437" type="curve" smooth="yes"/>
      <point x="125" y="377"/>
      <point x="138" y="375"/>
      <point x="130" y="315" type="curve" smooth="yes"/>
      <point x="125" y="279"/>
      <point x="93" y="246"/>
      <point x="37" y="231" type="curve"/>
      <point x="40" y="212" type="line"/>
      <point x="53" y="214"/>
      <point x="50" y="214"/>
      <point x="62" y="214" type="curve" smooth="yes"/>
      <point x="96" y="214"/>
      <point x="113" y="194"/>
      <point x="108" y="154" type="curve" smooth="yes"/>
      <point x="98" y="93"/>
      <point x="83" y="83"/>
      <point x="75" y="26" type="curve" smooth="yes"/>
      <point x="65" y="-44"/>
      <point x="93" y="-82"/>
      <point x="164" y="-115" type="curve"/>
      <point x="174" y="-93" type="line"/>
      <point x="131" y="-64"/>
      <point x="123" y="-38"/>
      <point x="130" y="15" type="curve" smooth="yes"/>
      <point x="137" y="64"/>
      <point x="153" y="82"/>
      <point x="161" y="140" type="curve" smooth="yes"/>
      <point x="169" y="194"/>
      <point x="158" y="230"/>
      <point x="114" y="239" type="curve"/>
      <point x="156" y="257"/>
      <point x="183" y="296"/>
      <point x="189" y="337" type="curve" smooth="yes"/>
      <point x="198" y="394"/>
      <point x="185" y="401"/>
      <point x="192" y="458" type="curve"/>
      <point x="200" y="508"/>
      <point x="232" y="544"/>
    </contour>
  </outline>
</glyph>
<glyph name="bar" format="2">
  <advance width="176"/>
  <unicode hex="007C"/>
  <outline>
    <contour>
      <point x="169" y="549" type="line"/>
      <point x="158" y="557" type="line"/>
      <point x="144" y="554"/>
      <point x="129" y="547"/>
      <point x="116" y="539" type="curve"/>
      <point x="20" y="-150" type="line"/>
      <point x="31" y="-160" type="line"/>
      <point x="42" y="-156"/>
      <point x="63" y="-147"/>
      <point x="72" y="-140" type="curve"/>
    </contour>
  </outline>
</glyph>
<glyph name="braceright" format="2">
  <advance width="228"/>
  <unicode hex="007D"/>
  <outline>
    <contour>
      <point x="199" y="225" type="curve"/>
      <point x="197" y="248" type="line"/>
      <point x="183" y="245"/>
      <point x="187" y="245"/>
      <point x="175" y="245" type="curve" smooth="yes"/>
      <point x="145" y="245"/>
      <point x="130" y="263"/>
      <point x="135" y="301" type="curve" smooth="yes"/>
      <point x="143" y="356"/>
      <point x="158" y="371"/>
      <point x="165" y="424" type="curve" smooth="yes"/>
      <point x="175" y="491"/>
      <point x="145" y="526"/>
      <point x="74" y="557" type="curve"/>
      <point x="61" y="532" type="line"/>
      <point x="103" y="506"/>
      <point x="110" y="482"/>
      <point x="103" y="434" type="curve" smooth="yes"/>
      <point x="97" y="390"/>
      <point x="81" y="367"/>
      <point x="73" y="314" type="curve" smooth="yes"/>
      <point x="66" y="262"/>
      <point x="78" y="228"/>
      <point x="120" y="220" type="curve"/>
      <point x="81" y="202"/>
      <point x="53" y="165"/>
      <point x="47" y="126" type="curve"/>
      <point x="40" y="73"/>
      <point x="51" y="62"/>
      <point x="43" y="10" type="curve" smooth="yes"/>
      <point x="38" y="-33"/>
      <point x="8" y="-66"/>
      <point x="-28" y="-89" type="curve"/>
      <point x="-21" y="-109" type="line"/>
      <point x="49" y="-78"/>
      <point x="101" y="-32"/>
      <point x="110" y="30" type="curve" smooth="yes"/>
      <point x="118" y="85"/>
      <point x="106" y="92"/>
      <point x="113" y="147" type="curve" smooth="yes"/>
      <point x="118" y="182"/>
      <point x="147" y="211"/>
    </contour>
  </outline>
</glyph>
<glyph name="asciitilde" format="2">
  <advance width="359"/>
  <unicode hex="007E"/>
  <outline>
    <contour>
      <point x="353" y="283" type="curve"/>
      <point x="336" y="292" type="line"/>
      <point x="312" y="252"/>
      <point x="290" y="234"/>
      <point x="268" y="234" type="curve" smooth="yes"/>
      <point x="231" y="234"/>
      <point x="192" y="292"/>
      <point x="150" y="292" type="curve" smooth="yes"/>
      <point x="108" y="292"/>
      <point x="58" y="231"/>
      <point x="32" y="183" type="curve"/>
      <point x="49" y="173" type="line"/>
      <point x="73" y="214"/>
      <point x="94" y="233"/>
      <point x="116" y="233" type="curve" smooth="yes"/>
      <point x="156" y="233"/>
      <point x="196" y="174"/>
      <point x="235" y="174" type="curve" smooth="yes"/>
      <point x="278" y="174"/>
      <point x="327" y="235"/>
    </contour>
  </outline>
</glyph>
<glyph name="exclamdown" format="2">
  <advance width="150"/>
  <unicode hex="00A1"/>
  <outline>
    <contour>
      <point x="88" y="193" type="line"/>
      <point x="79" y="201" type="line"/>
      <point x="68" y="197"/>
      <point x="62" y="193"/>
      <point x="52" y="186" type="curve"/>
      <point x="-18" y="-187" type="line"/>
      <point x="-5" y="-196" type="line"/>
      <point x="14" y="-191"/>
      <point x="42" y="-171"/>
      <point x="57" y="-161" type="curve"/>
    </contour>
    <contour>
      <point x="40" y="273" type="curve"/>
      <point x="40" y="253"/>
      <point x="52" y="239"/>
      <point x="71" y="239" type="curve" smooth="yes"/>
      <point x="102" y="239"/>
      <point x="125" y="276"/>
      <point x="125" y="304" type="curve" smooth="yes"/>
      <point x="125" y="326"/>
      <point x="113" y="340"/>
      <point x="94" y="340" type="curve" smooth="yes"/>
      <point x="62" y="340"/>
      <point x="40" y="303"/>
    </contour>
  </outline>
</glyph>
<glyph name="cent" format="2">
  <advance width="299"/>
  <unicode hex="00A2"/>
  <outline>
    <contour>
      <point x="311" y="326" type="curve"/>
      <point x="295" y="331"/>
      <point x="268" y="367"/>
      <point x="227" y="367" type="curve" smooth="yes"/>
      <point x="194" y="367"/>
      <point x="156" y="355"/>
      <point x="131" y="339" type="curve" smooth="yes"/>
      <point x="62" y="293"/>
      <point x="34" y="227"/>
      <point x="34" y="164" type="curve" smooth="yes"/>
      <point x="34" y="66"/>
      <point x="97" y="38"/>
      <point x="131" y="38" type="curve" smooth="yes"/>
      <point x="170" y="38"/>
      <point x="203" y="52"/>
      <point x="276" y="119" type="curve"/>
      <point x="274" y="123"/>
      <point x="267" y="131"/>
      <point x="263" y="137" type="curve"/>
      <point x="213" y="95"/>
      <point x="186" y="82"/>
      <point x="165" y="82" type="curve" smooth="yes"/>
      <point x="129" y="82"/>
      <point x="95" y="117"/>
      <point x="95" y="177" type="curve" smooth="yes"/>
      <point x="95" y="242"/>
      <point x="131" y="328"/>
      <point x="191" y="328" type="curve" smooth="yes"/>
      <point x="232" y="328"/>
      <point x="243" y="281"/>
      <point x="254" y="281" type="curve" smooth="yes"/>
      <point x="267" y="281"/>
      <point x="292" y="312"/>
    </contour>
    <contour>
      <point x="217" y="416" type="line"/>
      <point x="210" y="424" type="line"/>
      <point x="197" y="420"/>
      <point x="197" y="419"/>
      <point x="184" y="411" type="curve"/>
      <point x="127" y="-9" type="line"/>
      <point x="133" y="-17" type="line"/>
      <point x="144" y="-13"/>
      <point x="151" y="-10"/>
      <point x="159" y="-3" type="curve"/>
    </contour>
  </outline>
</glyph>
<glyph name="sterling" format="2">
  <advance width="299"/>
  <unicode hex="00A3"/>
  <outline>
    <contour>
      <point x="301" y="406" type="curve"/>
      <point x="265" y="428"/>
      <point x="243" y="430"/>
      <point x="221" y="430" type="curve" smooth="yes"/>
      <point x="120" y="430"/>
      <point x="61" y="341"/>
      <point x="51" y="201" type="curve" smooth="yes"/>
      <point x="41" y="59"/>
      <point x="28" y="45"/>
      <point x="-17" y="9" type="curve"/>
      <point x="-11" y="-10" type="line"/>
      <point x="57" y="33"/>
      <point x="181" y="-34"/>
      <point x="243" y="0" type="curve"/>
      <point x="248" y="13"/>
      <point x="261" y="54"/>
      <point x="270" y="94" type="curve"/>
      <point x="254" y="101" type="line"/>
      <point x="228" y="47"/>
      <point x="213" y="40"/>
      <point x="174" y="39" type="curve" smooth="yes"/>
      <point x="127" y="38"/>
      <point x="118" y="44"/>
      <point x="59" y="39" type="curve"/>
      <point x="90" y="78"/>
      <point x="114" y="137"/>
      <point x="117" y="207" type="curve" smooth="yes"/>
      <point x="123" y="379"/>
      <point x="166" y="393"/>
      <point x="197" y="393" type="curve" smooth="yes"/>
      <point x="238" y="393"/>
      <point x="259" y="365"/>
      <point x="257" y="307" type="curve"/>
      <point x="275" y="307" type="line"/>
      <point x="283" y="325"/>
      <point x="297" y="382"/>
    </contour>
    <contour>
      <point x="208" y="211" type="line"/>
      <point x="200" y="220" type="line"/>
      <point x="19" y="220" type="line"/>
      <point x="16" y="213"/>
      <point x="10" y="202"/>
      <point x="8" y="195" type="curve"/>
      <point x="14" y="185" type="line"/>
      <point x="194" y="185" type="line"/>
    </contour>
  </outline>
</glyph>
<glyph name="currency" format="2">
  <advance width="301"/>
  <unicode hex="00A4"/>
  <outline>
    <contour>
      <point x="166" y="281" type="curve" smooth="yes"/>
      <point x="198" y="281"/>
      <point x="217" y="250"/>
      <point x="213" y="220" type="curve" smooth="yes"/>
      <point x="208" y="187"/>
      <point x="183" y="158"/>
      <point x="149" y="158" type="curve" smooth="yes"/>
      <point x="117" y="158"/>
      <point x="98" y="189"/>
      <point x="102" y="220" type="curve" smooth="yes"/>
      <point x="106" y="254"/>
      <point x="132" y="281"/>
    </contour>
    <contour>
      <point x="70" y="219" type="curve"/>
      <point x="64" y="171"/>
      <point x="93" y="124"/>
      <point x="144" y="124" type="curve" smooth="yes"/>
      <point x="195" y="124"/>
      <point x="237" y="166"/>
      <point x="244" y="219" type="curve" smooth="yes"/>
      <point x="250" y="267"/>
      <point x="221" y="317"/>
      <point x="171" y="317" type="curve" smooth="yes"/>
      <point x="136" y="317"/>
      <point x="78" y="288"/>
    </contour>
    <contour>
      <point x="105" y="180" type="line"/>
      <point x="94" y="179" type="line"/>
      <point x="38" y="126" type="line"/>
      <point x="40" y="118"/>
      <point x="43" y="110"/>
      <point x="45" y="103" type="curve"/>
      <point x="56" y="102" type="line"/>
      <point x="112" y="156" type="line"/>
    </contour>
    <contour>
      <point x="127" y="274" type="line"/>
      <point x="128" y="286" type="line"/>
      <point x="88" y="338" type="line"/>
      <point x="81" y="335"/>
      <point x="70" y="333"/>
      <point x="64" y="329" type="curve"/>
      <point x="61" y="317" type="line"/>
      <point x="103" y="262" type="line"/>
    </contour>
    <contour>
      <point x="251" y="110" type="line"/>
      <point x="253" y="122" type="line"/>
      <point x="210" y="177" type="line"/>
      <point x="203" y="174"/>
      <point x="195" y="170"/>
      <point x="188" y="166" type="curve"/>
      <point x="186" y="154" type="line"/>
      <point x="225" y="102" type="line"/>
    </contour>
    <contour>
      <point x="269" y="337" type="line"/>
      <point x="257" y="337" type="line"/>
      <point x="201" y="283" type="line"/>
      <point x="203" y="276"/>
      <point x="206" y="267"/>
      <point x="209" y="260" type="curve"/>
      <point x="220" y="260" type="line"/>
      <point x="275" y="313" type="line"/>
    </contour>
  </outline>
</glyph>
<glyph name="yen" format="2">
  <advance width="301"/>
  <unicode hex="00A5"/>
  <outline>
    <contour>
      <point x="357" y="447" type="line"/>
      <point x="243" y="447" type="line"/>
      <point x="241" y="431" type="line"/>
      <point x="270" y="427"/>
      <point x="279" y="421"/>
      <point x="272" y="408" type="curve" smooth="yes"/>
      <point x="173" y="240" type="line"/>
      <point x="164" y="287"/>
      <point x="125" y="391"/>
      <point x="97" y="439" type="curve" smooth="yes"/>
      <point x="92" y="447"/>
      <point x="86" y="452"/>
      <point x="81" y="452" type="curve" smooth="yes"/>
      <point x="65" y="452"/>
      <point x="30" y="444"/>
      <point x="8" y="438" type="curve"/>
      <point x="10" y="422" type="line"/>
      <point x="40" y="427"/>
      <point x="49" y="423"/>
      <point x="58" y="409" type="curve" smooth="yes"/>
      <point x="86" y="362"/>
      <point x="122" y="264"/>
      <point x="138" y="195" type="curve"/>
      <point x="137" y="187" type="line"/>
      <point x="59" y="187" type="line"/>
      <point x="56" y="179"/>
      <point x="53" y="171"/>
      <point x="50" y="163" type="curve"/>
      <point x="55" y="154" type="line"/>
      <point x="133" y="154" type="line"/>
      <point x="119" y="40" type="line" smooth="yes"/>
      <point x="118" y="34"/>
      <point x="105" y="24"/>
      <point x="68" y="15" type="curve"/>
      <point x="66" y="0" type="line"/>
      <point x="208" y="0" type="line"/>
      <point x="210" y="15" type="line"/>
      <point x="175" y="24"/>
      <point x="164" y="34"/>
      <point x="165" y="40" type="curve" smooth="yes"/>
      <point x="179" y="154" type="line"/>
      <point x="256" y="154" type="line"/>
      <point x="266" y="178" type="line"/>
      <point x="260" y="187" type="line"/>
      <point x="183" y="187" type="line"/>
      <point x="183" y="191" type="line"/>
      <point x="307" y="408" type="line" smooth="yes"/>
      <point x="314" y="420"/>
      <point x="329" y="425"/>
      <point x="355" y="431" type="curve"/>
    </contour>
  </outline>
</glyph>
<glyph name="brokenbar" format="2">
  <advance width="192"/>
  <unicode hex="00A6"/>
  <outline>
    <contour>
      <point x="181" y="577" type="line"/>
      <point x="170" y="585" type="line"/>
      <point x="156" y="582"/>
      <point x="143" y="576"/>
      <point x="128" y="567" type="curve"/>
      <point x="84" y="251" type="line"/>
      <point x="95" y="243" type="line"/>
      <point x="108" y="247"/>
      <point x="128" y="254"/>
      <point x="138" y="262" type="curve"/>
    </contour>
    <contour>
      <point x="121" y="147" type="line"/>
      <point x="109" y="156" type="line"/>
      <point x="95" y="151"/>
      <point x="82" y="145"/>
      <point x="69" y="137" type="curve"/>
      <point x="25" y="-173" type="line"/>
      <point x="36" y="-183" type="line"/>
      <point x="47" y="-179"/>
      <point x="68" y="-171"/>
      <point x="77" y="-164" type="curve"/>
    </contour>
  </outline>
</glyph>
<glyph name="section" format="2">
  <advance width="308"/>
  <unicode hex="00A7"/>
  <outline>
    <contour>
      <point x="124" y="-10" type="curve" smooth="yes"/>
      <point x="153" y="-10"/>
      <point x="239" y="-5"/>
      <point x="252" y="93" type="curve"/>
      <point x="260" y="145"/>
      <point x="219" y="167"/>
      <point x="185" y="187" type="curve"/>
      <point x="130" y="226"/>
      <point x="105" y="245"/>
      <point x="111" y="287" type="curve" smooth="yes"/>
      <point x="114" y="308"/>
      <point x="134" y="342"/>
      <point x="157" y="334" type="curve"/>
      <point x="155" y="337"/>
      <point x="161" y="364"/>
      <point x="160" y="367" type="curve"/>
      <point x="124" y="371"/>
      <point x="66" y="324"/>
      <point x="59" y="270" type="curve" smooth="yes"/>
      <point x="50" y="209"/>
      <point x="84" y="177"/>
      <point x="130" y="147" type="curve" smooth="yes"/>
      <point x="165" y="124"/>
      <point x="204" y="108"/>
      <point x="199" y="71" type="curve" smooth="yes"/>
      <point x="195" y="40"/>
      <point x="174" y="26"/>
      <point x="144" y="26" type="curve" smooth="yes"/>
      <point x="103" y="26"/>
      <point x="75" y="61"/>
      <point x="77" y="103" type="curve"/>
      <point x="59" y="107" type="line"/>
      <point x="49" y="82"/>
      <point x="40" y="20"/>
      <point x="45" y="17" type="curve"/>
      <point x="71" y="0"/>
      <point x="102" y="-10"/>
    </contour>
    <contour>
      <point x="208" y="125" type="curve"/>
      <point x="235" y="129"/>
      <point x="281" y="167"/>
      <point x="290" y="230" type="curve"/>
      <point x="299" y="296"/>
      <point x="260" y="322"/>
      <point x="214" y="354" type="curve" smooth="yes"/>
      <point x="172" y="383"/>
      <point x="148" y="400"/>
      <point x="152" y="432" type="curve" smooth="yes"/>
      <point x="155" y="455"/>
      <point x="173" y="469"/>
      <point x="200" y="469" type="curve" smooth="yes"/>
      <point x="223" y="469"/>
      <point x="242" y="451"/>
      <point x="254" y="415" type="curve"/>
      <point x="269" y="412" type="line"/>
      <point x="277" y="422"/>
      <point x="298" y="467"/>
      <point x="293" y="472" type="curve" smooth="yes"/>
      <point x="278" y="489"/>
      <point x="241" y="502"/>
      <point x="211" y="502" type="curve" smooth="yes"/>
      <point x="161" y="502"/>
      <point x="108" y="473"/>
      <point x="100" y="415" type="curve" smooth="yes"/>
      <point x="93" y="369"/>
      <point x="122" y="337"/>
      <point x="159" y="313" type="curve" smooth="yes"/>
      <point x="217" y="275"/>
      <point x="243" y="252"/>
      <point x="237" y="208" type="curve"/>
      <point x="233" y="180"/>
      <point x="209" y="156"/>
      <point x="181" y="155" type="curve"/>
      <point x="183" y="152"/>
      <point x="204" y="129"/>
    </contour>
  </outline>
</glyph>
<glyph name="dieresis" format="2">
  <advance width="381"/>
  <unicode hex="00A8"/>
  <anchor x="227" y="495" name="U"/>
  <outline>
    <contour>
      <point x="324" y="462" type="curve"/>
      <point x="324" y="478"/>
      <point x="314" y="488"/>
      <point x="299" y="488" type="curve" smooth="yes"/>
      <point x="271" y="488"/>
      <point x="253" y="456"/>
      <point x="253" y="430" type="curve" smooth="yes"/>
      <point x="253" y="414"/>
      <point x="262" y="405"/>
      <point x="277" y="405" type="curve" smooth="yes"/>
      <point x="306" y="405"/>
      <point x="324" y="435"/>
    </contour>
    <contour>
      <point x="187" y="462" type="curve"/>
      <point x="187" y="478"/>
      <point x="178" y="488"/>
      <point x="163" y="488" type="curve" smooth="yes"/>
      <point x="136" y="488"/>
      <point x="117" y="456"/>
      <point x="117" y="430" type="curve" smooth="yes"/>
      <point x="117" y="414"/>
      <point x="126" y="405"/>
      <point x="142" y="405" type="curve" smooth="yes"/>
      <point x="169" y="405"/>
      <point x="187" y="435"/>
    </contour>
  </outline>
</glyph>
<glyph name="copyright" format="2">
  <advance width="498"/>
  <unicode hex="00A9"/>
  <outline>
    <contour>
      <point x="468" y="275" type="curve"/>
      <point x="468" y="387"/>
      <point x="395" y="472"/>
      <point x="284" y="472" type="curve" smooth="yes"/>
      <point x="139" y="472"/>
      <point x="34" y="329"/>
      <point x="34" y="192" type="curve" smooth="yes"/>
      <point x="34" y="78"/>
      <point x="105" y="-11"/>
      <point x="217" y="-11" type="curve" smooth="yes"/>
      <point x="368" y="-11"/>
      <point x="468" y="135"/>
    </contour>
    <contour>
      <point x="439" y="263" type="curve"/>
      <point x="439" y="144"/>
      <point x="347" y="20"/>
      <point x="221" y="20" type="curve" smooth="yes"/>
      <point x="123" y="20"/>
      <point x="62" y="100"/>
      <point x="62" y="199" type="curve" smooth="yes"/>
      <point x="62" y="317"/>
      <point x="156" y="440"/>
      <point x="281" y="440" type="curve" smooth="yes"/>
      <point x="378" y="440"/>
      <point x="439" y="362"/>
    </contour>
    <contour>
      <point x="371" y="344" type="curve"/>
      <point x="357" y="349"/>
      <point x="336" y="382"/>
      <point x="296" y="382" type="curve" smooth="yes"/>
      <point x="268" y="382"/>
      <point x="228" y="370"/>
      <point x="205" y="353" type="curve" smooth="yes"/>
      <point x="142" y="305"/>
      <point x="123" y="248"/>
      <point x="123" y="192" type="curve" smooth="yes"/>
      <point x="123" y="106"/>
      <point x="182" y="81"/>
      <point x="212" y="81" type="curve" smooth="yes"/>
      <point x="245" y="81"/>
      <point x="276" y="90"/>
      <point x="346" y="149" type="curve"/>
      <point x="344" y="153"/>
      <point x="340" y="158"/>
      <point x="336" y="162" type="curve"/>
      <point x="287" y="125"/>
      <point x="261" y="115"/>
      <point x="246" y="115" type="curve" smooth="yes"/>
      <point x="204" y="115"/>
      <point x="168" y="151"/>
      <point x="168" y="204" type="curve" smooth="yes"/>
      <point x="168" y="261"/>
      <point x="203" y="352"/>
      <point x="265" y="352" type="curve" smooth="yes"/>
      <point x="298" y="352"/>
      <point x="314" y="319"/>
      <point x="324" y="319" type="curve" smooth="yes"/>
      <point x="335" y="319"/>
      <point x="354" y="332"/>
    </contour>
  </outline>
</glyph>
<glyph name="ordfeminine" format="2">
  <advance width="214"/>
  <unicode hex="00AA"/>
  <outline>
    <contour>
      <point x="206" y="281" type="curve"/>
      <point x="203" y="288" type="line"/>
      <point x="192" y="284"/>
      <point x="186" y="283"/>
      <point x="180" y="283" type="curve" smooth="yes"/>
      <point x="174" y="283"/>
      <point x="171" y="293"/>
      <point x="171" y="323" type="curve" smooth="yes"/>
      <point x="171" y="335"/>
      <point x="176" y="380"/>
      <point x="185" y="418" type="curve" smooth="yes"/>
      <point x="188" y="435"/>
      <point x="191" y="438"/>
      <point x="200" y="445" type="curve"/>
      <point x="196" y="453" type="line"/>
      <point x="178" y="444"/>
      <point x="161" y="430"/>
      <point x="158" y="418" type="curve" smooth="yes"/>
      <point x="155" y="402"/>
      <point x="143" y="339"/>
      <point x="143" y="324" type="curve" smooth="yes"/>
      <point x="143" y="271"/>
      <point x="152" y="261"/>
      <point x="161" y="261" type="curve" smooth="yes"/>
      <point x="169" y="261"/>
      <point x="183" y="266"/>
    </contour>
    <contour>
      <point x="189" y="434" type="curve"/>
      <point x="180" y="435"/>
      <point x="165" y="453"/>
      <point x="146" y="453" type="curve" smooth="yes"/>
      <point x="131" y="453"/>
      <point x="110" y="443"/>
      <point x="95" y="434" type="curve" smooth="yes"/>
      <point x="58" y="408"/>
      <point x="38" y="370"/>
      <point x="38" y="328" type="curve" smooth="yes"/>
      <point x="38" y="279"/>
      <point x="63" y="261"/>
      <point x="80" y="261" type="curve" smooth="yes"/>
      <point x="103" y="261"/>
      <point x="131" y="299"/>
      <point x="144" y="323" type="curve"/>
      <point x="150" y="358" type="line"/>
      <point x="135" y="327"/>
      <point x="107" y="287"/>
      <point x="93" y="287" type="curve" smooth="yes"/>
      <point x="78" y="287"/>
      <point x="65" y="309"/>
      <point x="65" y="343" type="curve" smooth="yes"/>
      <point x="65" y="374"/>
      <point x="90" y="432"/>
      <point x="126" y="432" type="curve" smooth="yes"/>
      <point x="148" y="432"/>
      <point x="164" y="410"/>
      <point x="171" y="410" type="curve" smooth="yes"/>
      <point x="177" y="410"/>
      <point x="178" y="426"/>
    </contour>
    <contour>
      <point x="201" y="232" type="curve"/>
      <point x="194" y="241" type="line"/>
      <point x="30" y="241" type="line"/>
      <point x="27" y="234"/>
      <point x="24" y="229"/>
      <point x="21" y="221" type="curve"/>
      <point x="27" y="214" type="line"/>
      <point x="192" y="214" type="line"/>
      <point x="194" y="221"/>
      <point x="198" y="224"/>
    </contour>
  </outline>
</glyph>
<glyph name="guillemetleft" format="2">
  <advance width="322"/>
  <unicode hex="00AB"/>
  <outline>
    <contour>
      <point x="238" y="2" type="line"/>
      <point x="253" y="13" type="line"/>
      <point x="199" y="164" type="line"/>
      <point x="198" y="164"/>
      <point x="294" y="314"/>
      <point x="294" y="314" type="curve"/>
      <point x="281" y="325" type="line"/>
      <point x="145" y="177" type="line"/>
      <point x="144" y="176"/>
      <point x="141" y="151"/>
      <point x="141" y="151" type="curve"/>
    </contour>
    <contour>
      <point x="118" y="2" type="line"/>
      <point x="133" y="13" type="line"/>
      <point x="79" y="164" type="line"/>
      <point x="78" y="164"/>
      <point x="174" y="314"/>
      <point x="174" y="314" type="curve"/>
      <point x="161" y="325" type="line"/>
      <point x="25" y="177" type="line"/>
      <point x="24" y="176"/>
      <point x="21" y="151"/>
      <point x="21" y="151" type="curve"/>
    </contour>
  </outline>
</glyph>
<glyph name="guillemotleft" format="2">
  <advance width="317"/>
  <unicode hex="00AB"/>
  <outline>
    <contour>
      <point x="236" y="1" type="line"/>
      <point x="253" y="13" type="line"/>
      <point x="204" y="158" type="line"/>
      <point x="210" y="170"/>
      <point x="285" y="289"/>
      <point x="292" y="301" type="curve"/>
      <point x="279" y="313" type="line"/>
      <point x="143" y="170" type="line"/>
      <point x="142" y="167"/>
      <point x="139" y="147"/>
      <point x="139" y="145" type="curve"/>
    </contour>
    <contour>
      <point x="116" y="1" type="line"/>
      <point x="133" y="13" type="line"/>
      <point x="84" y="158" type="line"/>
      <point x="90" y="170"/>
      <point x="165" y="289"/>
      <point x="172" y="301" type="curve"/>
      <point x="159" y="313" type="line"/>
      <point x="23" y="170" type="line"/>
      <point x="22" y="167"/>
      <point x="19" y="147"/>
      <point x="19" y="145" type="curve"/>
    </contour>
  </outline>
</glyph>
<glyph name="logicalnot" format="2">
  <advance width="301"/>
  <unicode hex="00AC"/>
  <outline>
    <contour>
      <point x="279" y="218" type="line"/>
      <point x="270" y="226" type="line"/>
      <point x="270" y="226"/>
      <point x="300" y="226"/>
      <point x="33" y="226" type="curve"/>
      <point x="28" y="216"/>
      <point x="22" y="203"/>
      <point x="18" y="194" type="curve"/>
      <point x="25" y="185" type="line"/>
      <point x="233" y="185" type="line"/>
      <point x="221" y="108" type="line"/>
      <point x="229" y="99" type="line"/>
      <point x="241" y="103"/>
      <point x="255" y="110"/>
      <point x="265" y="118" type="curve"/>
    </contour>
  </outline>
</glyph>
<glyph name="registered" format="2">
  <advance width="257"/>
  <unicode hex="00AE"/>
  <outline>
    <contour>
      <point x="269" y="396" type="curve"/>
      <point x="279" y="466"/>
      <point x="241" y="523"/>
      <point x="178" y="523" type="curve" smooth="yes"/>
      <point x="115" y="523"/>
      <point x="61" y="466"/>
      <point x="51" y="396" type="curve" smooth="yes"/>
      <point x="42" y="327"/>
      <point x="79" y="270"/>
      <point x="142" y="270" type="curve" smooth="yes"/>
      <point x="205" y="270"/>
      <point x="260" y="327"/>
    </contour>
    <contour>
      <point x="250" y="396" type="curve"/>
      <point x="242" y="338"/>
      <point x="199" y="290"/>
      <point x="146" y="290" type="curve" smooth="yes"/>
      <point x="94" y="290"/>
      <point x="62" y="338"/>
      <point x="71" y="396" type="curve" smooth="yes"/>
      <point x="79" y="454"/>
      <point x="121" y="503"/>
      <point x="173" y="503" type="curve" smooth="yes"/>
      <point x="225" y="503"/>
      <point x="258" y="454"/>
    </contour>
    <contour>
      <point x="210" y="434" type="curve"/>
      <point x="213" y="454"/>
      <point x="198" y="472"/>
      <point x="165" y="472" type="curve" smooth="yes"/>
      <point x="147" y="472"/>
      <point x="133" y="469"/>
      <point x="120" y="466" type="curve"/>
      <point x="119" y="455" type="line"/>
      <point x="133" y="457"/>
      <point x="147" y="459"/>
      <point x="159" y="459" type="curve" smooth="yes"/>
      <point x="184" y="459"/>
      <point x="191" y="445"/>
      <point x="190" y="431" type="curve" smooth="yes"/>
      <point x="187" y="412"/>
      <point x="175" y="405"/>
      <point x="153" y="405" type="curve" smooth="yes"/>
      <point x="149" y="405"/>
      <point x="146" y="405"/>
      <point x="142" y="406" type="curve"/>
      <point x="140" y="393" type="line"/>
      <point x="145" y="392"/>
      <point x="149" y="391"/>
      <point x="153" y="391" type="curve" smooth="yes"/>
      <point x="180" y="391"/>
      <point x="206" y="405"/>
    </contour>
    <contour>
      <point x="215" y="333" type="line"/>
      <point x="214" y="339" type="line"/>
      <point x="205" y="336"/>
      <point x="200" y="336"/>
      <point x="198" y="342" type="curve" smooth="yes"/>
      <point x="167" y="402" type="line"/>
      <point x="152" y="395" type="line"/>
      <point x="179" y="329" type="line" smooth="yes"/>
      <point x="180" y="326"/>
      <point x="184" y="322"/>
      <point x="188" y="322" type="curve" smooth="yes"/>
      <point x="193" y="322"/>
      <point x="206" y="328"/>
      <point x="214" y="332" type="curve"/>
    </contour>
    <contour>
      <point x="147" y="324" type="line"/>
      <point x="148" y="331" type="line"/>
      <point x="138" y="333"/>
      <point x="135" y="336"/>
      <point x="135" y="338" type="curve" smooth="yes"/>
      <point x="153" y="464" type="line"/>
      <point x="134" y="464" type="line"/>
      <point x="117" y="338" type="line" smooth="yes"/>
      <point x="116" y="336"/>
      <point x="111" y="333"/>
      <point x="101" y="331" type="curve"/>
      <point x="101" y="324" type="line"/>
    </contour>
  </outline>
</glyph>
<glyph name="macron" format="2">
  <advance width="291"/>
  <unicode hex="00AF"/>
  <outline>
    <contour>
      <point x="305" y="441" type="curve"/>
      <point x="298" y="450" type="line"/>
      <point x="89" y="450" type="line"/>
      <point x="83" y="441"/>
      <point x="73" y="422"/>
      <point x="70" y="412" type="curve"/>
      <point x="76" y="403" type="line"/>
      <point x="286" y="403" type="line"/>
      <point x="291" y="411"/>
      <point x="302" y="431"/>
    </contour>
  </outline>
</glyph>
<glyph name="degree" format="2">
  <advance width="223"/>
  <unicode hex="00B0"/>
  <outline>
    <contour>
      <point x="220" y="374" type="curve" smooth="yes"/>
      <point x="220" y="406"/>
      <point x="198" y="433"/>
      <point x="166" y="433" type="curve" smooth="yes"/>
      <point x="123" y="433"/>
      <point x="62" y="382"/>
      <point x="62" y="320" type="curve" smooth="yes"/>
      <point x="62" y="289"/>
      <point x="82" y="262"/>
      <point x="116" y="262" type="curve" smooth="yes"/>
      <point x="155" y="262"/>
      <point x="220" y="307"/>
    </contour>
    <contour>
      <point x="131" y="299" type="curve" smooth="yes"/>
      <point x="114" y="299"/>
      <point x="104" y="316"/>
      <point x="104" y="337" type="curve" smooth="yes"/>
      <point x="104" y="369"/>
      <point x="128" y="395"/>
      <point x="151" y="395" type="curve" smooth="yes"/>
      <point x="169" y="395"/>
      <point x="179" y="378"/>
      <point x="179" y="357" type="curve" smooth="yes"/>
      <point x="179" y="332"/>
      <point x="161" y="299"/>
    </contour>
  </outline>
</glyph>
<glyph name="plusminus" format="2">
  <advance width="281"/>
  <unicode hex="00B1"/>
  <outline>
    <contour>
      <point x="189" y="355" type="line"/>
      <point x="181" y="364" type="line"/>
      <point x="171" y="361"/>
      <point x="153" y="356"/>
      <point x="145" y="353" type="curve"/>
      <point x="114" y="132" type="line"/>
      <point x="122" y="124" type="line"/>
      <point x="132" y="126"/>
      <point x="149" y="131"/>
      <point x="158" y="135" type="curve"/>
    </contour>
    <contour>
      <point x="246" y="93" type="curve"/>
      <point x="239" y="102" type="line"/>
      <point x="24" y="102" type="line"/>
      <point x="19" y="93"/>
      <point x="13" y="79"/>
      <point x="9" y="69" type="curve"/>
      <point x="16" y="60" type="line"/>
      <point x="231" y="60" type="line"/>
      <point x="236" y="68"/>
      <point x="243" y="83"/>
    </contour>
    <contour>
      <point x="268" y="256" type="curve"/>
      <point x="262" y="265" type="line"/>
      <point x="47" y="265" type="line"/>
      <point x="42" y="255"/>
      <point x="36" y="242"/>
      <point x="32" y="232" type="curve"/>
      <point x="39" y="223" type="line"/>
      <point x="254" y="223" type="line"/>
      <point x="258" y="231"/>
      <point x="265" y="246"/>
    </contour>
  </outline>
</glyph>
<glyph name="twosuperior" format="2">
  <advance width="209"/>
  <unicode hex="00B2"/>
  <anchor x="145" y="488" name="U"/>
  <outline>
    <contour>
      <point x="218" y="423" type="curve"/>
      <point x="218" y="456"/>
      <point x="189" y="471"/>
      <point x="152" y="470" type="curve" smooth="yes"/>
      <point x="100" y="469"/>
      <point x="53" y="433"/>
      <point x="49" y="404" type="curve"/>
      <point x="54" y="395" type="line"/>
      <point x="67" y="396"/>
      <point x="86" y="401"/>
      <point x="96" y="406" type="curve"/>
      <point x="98" y="426"/>
      <point x="111" y="446"/>
      <point x="135" y="446" type="curve" smooth="yes"/>
      <point x="157" y="446"/>
      <point x="170" y="436"/>
      <point x="170" y="416" type="curve" smooth="yes"/>
      <point x="170" y="381"/>
      <point x="132" y="331"/>
      <point x="15" y="230" type="curve"/>
      <point x="18" y="212" type="line"/>
      <point x="184" y="212" type="line"/>
      <point x="198" y="276" type="line"/>
      <point x="182" y="279" type="line"/>
      <point x="182" y="279"/>
      <point x="173" y="242"/>
      <point x="153" y="242" type="curve" smooth="yes"/>
      <point x="65" y="242" type="line"/>
      <point x="187" y="348"/>
      <point x="218" y="388"/>
    </contour>
  </outline>
</glyph>
<glyph name="threesuperior" format="2">
  <advance width="210"/>
  <unicode hex="00B3"/>
  <anchor x="147" y="512" name="U"/>
  <outline>
    <contour>
      <point x="208" y="442" type="curve"/>
      <point x="208" y="469"/>
      <point x="188" y="494"/>
      <point x="143" y="494" type="curve" smooth="yes"/>
      <point x="96" y="494"/>
      <point x="51" y="459"/>
      <point x="47" y="434" type="curve"/>
      <point x="52" y="427" type="line"/>
      <point x="65" y="428"/>
      <point x="82" y="431"/>
      <point x="93" y="436" type="curve"/>
      <point x="93" y="456"/>
      <point x="108" y="469"/>
      <point x="129" y="469" type="curve" smooth="yes"/>
      <point x="153" y="469"/>
      <point x="164" y="454"/>
      <point x="164" y="436" type="curve" smooth="yes"/>
      <point x="164" y="397"/>
      <point x="132" y="383"/>
      <point x="92" y="373" type="curve"/>
      <point x="94" y="356" type="line"/>
      <point x="103" y="357"/>
      <point x="101" y="357"/>
      <point x="109" y="357" type="curve" smooth="yes"/>
      <point x="134" y="357"/>
      <point x="156" y="344"/>
      <point x="156" y="310" type="curve" smooth="yes"/>
      <point x="156" y="272"/>
      <point x="131" y="242"/>
      <point x="86" y="242" type="curve" smooth="yes"/>
      <point x="66" y="242"/>
      <point x="49" y="247"/>
      <point x="23" y="267" type="curve"/>
      <point x="13" y="248" type="line"/>
      <point x="39" y="225"/>
      <point x="65" y="215"/>
      <point x="89" y="215" type="curve" smooth="yes"/>
      <point x="158" y="215"/>
      <point x="201" y="261"/>
      <point x="201" y="316" type="curve" smooth="yes"/>
      <point x="201" y="346"/>
      <point x="182" y="372"/>
      <point x="151" y="376" type="curve"/>
      <point x="184" y="387"/>
      <point x="208" y="410"/>
    </contour>
  </outline>
</glyph>
<glyph name="acute" format="2">
  <advance width="221"/>
  <unicode hex="00B4"/>
  <anchor x="112" y="501" name="U"/>
  <outline>
    <contour>
      <point x="203" y="519" type="line"/>
      <point x="195" y="524"/>
      <point x="172" y="531"/>
      <point x="162" y="534" type="curve"/>
      <point x="62" y="388" type="line"/>
      <point x="69" y="380"/>
      <point x="71" y="377"/>
      <point x="79" y="375" type="curve"/>
      <point x="209" y="503" type="line"/>
    </contour>
  </outline>
</glyph>
<glyph name="mu" format="2">
  <advance width="373"/>
  <unicode hex="00B5"/>
  <outline>
    <contour>
      <point x="365" y="74" type="curve"/>
      <point x="352" y="88" type="line"/>
      <point x="328" y="51"/>
      <point x="319" y="47"/>
      <point x="310" y="47" type="curve" smooth="yes"/>
      <point x="303" y="47"/>
      <point x="297" y="54"/>
      <point x="297" y="92" type="curve" smooth="yes"/>
      <point x="297" y="137"/>
      <point x="324" y="271"/>
      <point x="333" y="311" type="curve"/>
      <point x="331" y="316"/>
      <point x="328" y="321"/>
      <point x="324" y="326" type="curve"/>
      <point x="305" y="321"/>
      <point x="270" y="308"/>
      <point x="253" y="302" type="curve"/>
      <point x="258" y="293"/>
      <point x="259" y="276"/>
      <point x="259" y="261" type="curve" smooth="yes"/>
      <point x="259" y="227"/>
      <point x="235" y="118"/>
      <point x="235" y="88" type="curve" smooth="yes"/>
      <point x="235" y="24"/>
      <point x="248" y="-14"/>
      <point x="270" y="-14" type="curve" smooth="yes"/>
      <point x="298" y="-14"/>
      <point x="325" y="3"/>
    </contour>
    <contour>
      <point x="267" y="199" type="line"/>
      <point x="218" y="89"/>
      <point x="178" y="48"/>
      <point x="148" y="48" type="curve" smooth="yes"/>
      <point x="127" y="48"/>
      <point x="111" y="79"/>
      <point x="111" y="126" type="curve" smooth="yes"/>
      <point x="111" y="163"/>
      <point x="133" y="256"/>
      <point x="133" y="297" type="curve" smooth="yes"/>
      <point x="133" y="318"/>
      <point x="129" y="326"/>
      <point x="116" y="326" type="curve" smooth="yes"/>
      <point x="105" y="326"/>
      <point x="51" y="307"/>
      <point x="12" y="289" type="curve"/>
      <point x="17" y="273" type="line"/>
      <point x="17" y="273"/>
      <point x="43" y="281"/>
      <point x="52" y="281" type="curve" smooth="yes"/>
      <point x="60" y="281"/>
      <point x="66" y="279"/>
      <point x="66" y="258" type="curve" smooth="yes"/>
      <point x="66" y="223"/>
      <point x="52" y="169"/>
      <point x="52" y="128" type="curve" smooth="yes"/>
      <point x="52" y="49"/>
      <point x="86" y="-14"/>
      <point x="132" y="-14" type="curve" smooth="yes"/>
      <point x="181" y="-14"/>
      <point x="224" y="50"/>
      <point x="265" y="140" type="curve"/>
    </contour>
    <contour>
      <point x="83" y="154" type="curve"/>
      <point x="83" y="172"/>
      <point x="61" y="207"/>
      <point x="61" y="207" type="curve"/>
      <point x="51" y="128"/>
      <point x="12" y="-69"/>
      <point x="0" y="-163" type="curve"/>
      <point x="13" y="-174" type="line"/>
      <point x="24" y="-168"/>
      <point x="71" y="-148"/>
      <point x="85" y="-142" type="curve"/>
      <point x="80" y="-130"/>
      <point x="51" y="-59"/>
      <point x="64" y="36" type="curve"/>
      <point x="72" y="89"/>
      <point x="74" y="112"/>
    </contour>
  </outline>
</glyph>
<glyph name="paragraph" format="2">
  <advance width="366"/>
  <unicode hex="00B6"/>
  <outline>
    <contour>
      <point x="374" y="439" type="line"/>
      <point x="353" y="439" type="line"/>
      <point x="353" y="439"/>
      <point x="238" y="449"/>
      <point x="200" y="449" type="curve" smooth="yes"/>
      <point x="110" y="449"/>
      <point x="41" y="394"/>
      <point x="30" y="314" type="curve"/>
      <point x="18" y="227"/>
      <point x="78" y="182"/>
      <point x="162" y="182" type="curve" smooth="yes"/>
      <point x="174" y="182"/>
      <point x="183" y="183"/>
      <point x="191" y="184" type="curve"/>
      <point x="158" y="-47" type="line"/>
      <point x="157" y="-53"/>
      <point x="139" y="-62"/>
      <point x="109" y="-68" type="curve"/>
      <point x="107" y="-87" type="line"/>
      <point x="301" y="-87" type="line"/>
      <point x="304" y="-68" type="line"/>
      <point x="274" y="-62"/>
      <point x="260" y="-53"/>
      <point x="261" y="-47" type="curve" smooth="yes"/>
      <point x="323" y="399" type="line"/>
      <point x="324" y="405"/>
      <point x="342" y="414"/>
      <point x="372" y="420" type="curve"/>
    </contour>
    <contour>
      <point x="180" y="215" type="line"/>
      <point x="110" y="215"/>
      <point x="88" y="276"/>
      <point x="95" y="327" type="curve"/>
      <point x="102" y="379"/>
      <point x="146" y="417"/>
      <point x="194" y="417" type="curve" smooth="yes"/>
      <point x="202" y="417"/>
      <point x="212" y="416"/>
      <point x="223" y="415" type="curve"/>
      <point x="195" y="215" type="line"/>
    </contour>
    <contour>
      <point x="285" y="402" type="curve"/>
      <point x="222" y="-47" type="line" smooth="yes"/>
      <point x="221" y="-52"/>
      <point x="213" y="-56"/>
      <point x="208" y="-57" type="curve"/>
      <point x="204" y="-56"/>
      <point x="196" y="-52"/>
      <point x="197" y="-47" type="curve" smooth="yes"/>
      <point x="260" y="409" type="line"/>
      <point x="268" y="407"/>
      <point x="277" y="405"/>
    </contour>
  </outline>
</glyph>
<glyph name="periodcentered" format="2">
  <advance width="150"/>
  <unicode hex="00B7"/>
  <outline>
    <contour>
      <point x="124" y="236" type="curve"/>
      <point x="124" y="256"/>
      <point x="112" y="270"/>
      <point x="91" y="270" type="curve" smooth="yes"/>
      <point x="58" y="270"/>
      <point x="34" y="235"/>
      <point x="34" y="207" type="curve" smooth="yes"/>
      <point x="34" y="186"/>
      <point x="46" y="171"/>
      <point x="68" y="171" type="curve" smooth="yes"/>
      <point x="103" y="171"/>
      <point x="124" y="207"/>
    </contour>
  </outline>
</glyph>
<glyph name="cedilla" format="2">
  <advance width="118"/>
  <unicode hex="00B8"/>
  <outline>
    <contour>
      <point x="80" y="-80" type="curve"/>
      <point x="80" y="-57"/>
      <point x="63" y="-42"/>
      <point x="38" y="-41" type="curve"/>
      <point x="42" y="-29"/>
      <point x="47" y="-1"/>
      <point x="52" y="18" type="curve"/>
      <point x="27" y="19" type="line"/>
      <point x="21" y="-8"/>
      <point x="13" y="-42"/>
      <point x="0" y="-78" type="curve"/>
      <point x="22" y="-78"/>
      <point x="34" y="-85"/>
      <point x="34" y="-98" type="curve" smooth="yes"/>
      <point x="34" y="-121"/>
      <point x="4" y="-146"/>
      <point x="-46" y="-123" type="curve"/>
      <point x="-45" y="-137" type="line"/>
      <point x="13" y="-171"/>
      <point x="80" y="-132"/>
    </contour>
  </outline>
</glyph>
<glyph name="onesuperior" format="2">
  <advance width="210"/>
  <unicode hex="00B9"/>
  <anchor x="147" y="512" name="U"/>
  <outline>
    <contour>
      <point x="190" y="238" type="line"/>
      <point x="144" y="243"/>
      <point x="138" y="251"/>
      <point x="139" y="257" type="curve" smooth="yes"/>
      <point x="175" y="488" type="line"/>
      <point x="168" y="496" type="line"/>
      <point x="146" y="485"/>
      <point x="89" y="465"/>
      <point x="62" y="458" type="curve"/>
      <point x="65" y="443" type="line"/>
      <point x="107" y="452"/>
      <point x="120" y="450"/>
      <point x="123" y="447" type="curve" smooth="yes"/>
      <point x="126" y="443"/>
      <point x="125" y="437"/>
      <point x="123" y="425" type="curve" smooth="yes"/>
      <point x="97" y="257" type="line" smooth="yes"/>
      <point x="95" y="251"/>
      <point x="84" y="243"/>
      <point x="35" y="238" type="curve"/>
      <point x="32" y="222" type="line"/>
      <point x="187" y="222" type="line"/>
    </contour>
  </outline>
</glyph>
<glyph name="ordmasculine" format="2">
  <advance width="177"/>
  <unicode hex="00BA"/>
  <outline>
    <contour>
      <point x="184" y="362" type="curve"/>
      <point x="184" y="403"/>
      <point x="168" y="433"/>
      <point x="126" y="433" type="curve" smooth="yes"/>
      <point x="110" y="433"/>
      <point x="93" y="425"/>
      <point x="79" y="414" type="curve" smooth="yes"/>
      <point x="46" y="388"/>
      <point x="35" y="358"/>
      <point x="35" y="322" type="curve" smooth="yes"/>
      <point x="35" y="281"/>
      <point x="56" y="250"/>
      <point x="93" y="250" type="curve" smooth="yes"/>
      <point x="110" y="250"/>
      <point x="126" y="259"/>
      <point x="140" y="270" type="curve" smooth="yes"/>
      <point x="168" y="293"/>
      <point x="184" y="328"/>
    </contour>
    <contour>
      <point x="168" y="222" type="curve"/>
      <point x="161" y="231" type="line"/>
      <point x="24" y="231" type="line"/>
      <point x="21" y="224"/>
      <point x="18" y="219"/>
      <point x="16" y="212" type="curve"/>
      <point x="23" y="204" type="line"/>
      <point x="159" y="204" type="line"/>
      <point x="162" y="210"/>
      <point x="166" y="215"/>
    </contour>
    <contour>
      <point x="149" y="351" type="curve"/>
      <point x="149" y="321"/>
      <point x="138" y="273"/>
      <point x="106" y="273" type="curve" smooth="yes"/>
      <point x="85" y="273"/>
      <point x="68" y="301"/>
      <point x="68" y="333" type="curve" smooth="yes"/>
      <point x="68" y="365"/>
      <point x="78" y="409"/>
      <point x="112" y="409" type="curve" smooth="yes"/>
      <point x="134" y="409"/>
      <point x="149" y="388"/>
    </contour>
  </outline>
</glyph>
<glyph name="guillemetright" format="2">
  <advance width="322"/>
  <unicode hex="00BB"/>
  <outline>
    <contour>
      <point x="175" y="177" type="curve"/>
      <point x="78" y="325" type="line"/>
      <point x="62" y="314" type="line"/>
      <point x="62" y="314"/>
      <point x="118" y="164"/>
      <point x="117" y="164" type="curve"/>
      <point x="21" y="13" type="line"/>
      <point x="34" y="2" type="line"/>
      <point x="172" y="151" type="line"/>
      <point x="172" y="151"/>
      <point x="175" y="176"/>
    </contour>
    <contour>
      <point x="295" y="177" type="curve"/>
      <point x="198" y="325" type="line"/>
      <point x="183" y="314" type="line"/>
      <point x="182" y="314"/>
      <point x="238" y="164"/>
      <point x="237" y="164" type="curve"/>
      <point x="142" y="13" type="line"/>
      <point x="154" y="2" type="line"/>
      <point x="292" y="151" type="line"/>
      <point x="292" y="151"/>
      <point x="295" y="176"/>
    </contour>
  </outline>
</glyph>
<glyph name="guillemotright" format="2">
  <advance width="317"/>
  <unicode hex="00BB"/>
  <outline>
    <contour>
      <point x="172" y="170" type="curve"/>
      <point x="75" y="313" type="line"/>
      <point x="58" y="301" type="line"/>
      <point x="61" y="289"/>
      <point x="105" y="169"/>
      <point x="107" y="158" type="curve"/>
      <point x="19" y="13" type="line"/>
      <point x="32" y="1" type="line"/>
      <point x="169" y="145" type="line"/>
      <point x="169" y="147"/>
      <point x="172" y="167"/>
    </contour>
    <contour>
      <point x="292" y="170" type="curve"/>
      <point x="194" y="313" type="line"/>
      <point x="178" y="301" type="line"/>
      <point x="181" y="289"/>
      <point x="225" y="169"/>
      <point x="227" y="158" type="curve"/>
      <point x="139" y="13" type="line"/>
      <point x="152" y="1" type="line"/>
      <point x="289" y="145" type="line"/>
      <point x="289" y="147"/>
      <point x="292" y="167"/>
    </contour>
  </outline>
</glyph>
<glyph name="onequarter" format="2">
  <advance width="395"/>
  <unicode hex="00BC"/>
  <outline>
    <contour>
      <point x="392" y="420" type="line"/>
      <point x="385" y="430" type="line"/>
      <point x="376" y="428"/>
      <point x="360" y="423"/>
      <point x="352" y="419" type="curve"/>
      <point x="37" y="0" type="line"/>
      <point x="44" y="-10" type="line"/>
      <point x="55" y="-7"/>
      <point x="68" y="-4"/>
      <point x="79" y="1" type="curve"/>
    </contour>
    <contour>
      <point x="354" y="73" type="curve"/>
      <point x="349" y="79" type="line"/>
      <point x="328" y="79" type="line"/>
      <point x="346" y="202" type="line"/>
      <point x="341" y="208" type="line"/>
      <point x="331" y="204"/>
      <point x="316" y="200"/>
      <point x="306" y="196" type="curve"/>
      <point x="198" y="62" type="line"/>
      <point x="204" y="56" type="line"/>
      <point x="291" y="56" type="line"/>
      <point x="286" y="22" type="line"/>
      <point x="285" y="19"/>
      <point x="280" y="15"/>
      <point x="249" y="11" type="curve"/>
      <point x="247" y="0" type="line"/>
      <point x="340" y="0" type="line"/>
      <point x="342" y="11" type="line"/>
      <point x="322" y="15"/>
      <point x="319" y="17"/>
      <point x="320" y="21" type="curve" smooth="yes"/>
      <point x="325" y="56" type="line"/>
      <point x="335" y="56" type="line"/>
      <point x="341" y="60"/>
      <point x="347" y="66"/>
    </contour>
    <contour>
      <point x="294" y="79" type="line"/>
      <point x="234" y="79" type="line"/>
      <point x="307" y="168" type="line"/>
    </contour>
    <contour>
      <point x="166" y="222" type="line"/>
      <point x="168" y="234" type="line"/>
      <point x="133" y="239"/>
      <point x="127" y="245"/>
      <point x="128" y="249" type="curve" smooth="yes"/>
      <point x="153" y="424" type="line"/>
      <point x="147" y="430" type="line"/>
      <point x="130" y="422"/>
      <point x="83" y="407"/>
      <point x="62" y="402" type="curve"/>
      <point x="64" y="389" type="line"/>
      <point x="97" y="396"/>
      <point x="106" y="394"/>
      <point x="109" y="392" type="curve" smooth="yes"/>
      <point x="112" y="389"/>
      <point x="111" y="384"/>
      <point x="110" y="375" type="curve" smooth="yes"/>
      <point x="91" y="249" type="line" smooth="yes"/>
      <point x="91" y="245"/>
      <point x="81" y="239"/>
      <point x="43" y="234" type="curve"/>
      <point x="41" y="222" type="line"/>
    </contour>
  </outline>
</glyph>
<glyph name="onehalf" format="2">
  <advance width="406"/>
  <unicode hex="00BD"/>
  <outline>
    <contour>
      <point x="399" y="442" type="line"/>
      <point x="392" y="452" type="line"/>
      <point x="382" y="450"/>
      <point x="370" y="444"/>
      <point x="361" y="440" type="curve"/>
      <point x="46" y="0" type="line"/>
      <point x="53" y="-10" type="line"/>
      <point x="65" y="-7"/>
      <point x="75" y="-4"/>
      <point x="86" y="1" type="curve"/>
    </contour>
    <contour>
      <point x="172" y="233" type="line"/>
      <point x="174" y="245" type="line"/>
      <point x="138" y="250"/>
      <point x="132" y="256"/>
      <point x="133" y="261" type="curve" smooth="yes"/>
      <point x="159" y="446" type="line"/>
      <point x="153" y="452" type="line"/>
      <point x="135" y="443"/>
      <point x="91" y="427"/>
      <point x="69" y="422" type="curve"/>
      <point x="71" y="410" type="line"/>
      <point x="105" y="417"/>
      <point x="115" y="415"/>
      <point x="117" y="412" type="curve" smooth="yes"/>
      <point x="120" y="409"/>
      <point x="120" y="405"/>
      <point x="118" y="395" type="curve" smooth="yes"/>
      <point x="99" y="261" type="line" smooth="yes"/>
      <point x="99" y="256"/>
      <point x="89" y="250"/>
      <point x="50" y="245" type="curve"/>
      <point x="48" y="233" type="line"/>
    </contour>
    <contour>
      <point x="362" y="50" type="line"/>
      <point x="350" y="52" type="line"/>
      <point x="350" y="52"/>
      <point x="344" y="24"/>
      <point x="327" y="24" type="curve" smooth="yes"/>
      <point x="255" y="24" type="line"/>
      <point x="342" y="108"/>
      <point x="371" y="135"/>
      <point x="375" y="167" type="curve" smooth="yes"/>
      <point x="380" y="201"/>
      <point x="359" y="217"/>
      <point x="327" y="217" type="curve" smooth="yes"/>
      <point x="286" y="217"/>
      <point x="243" y="185"/>
      <point x="240" y="160" type="curve"/>
      <point x="244" y="155" type="line"/>
      <point x="255" y="156"/>
      <point x="266" y="159"/>
      <point x="275" y="164" type="curve"/>
      <point x="277" y="180"/>
      <point x="292" y="197"/>
      <point x="311" y="197" type="curve" smooth="yes"/>
      <point x="336" y="197"/>
      <point x="344" y="183"/>
      <point x="341" y="162" type="curve" smooth="yes"/>
      <point x="337" y="135"/>
      <point x="316" y="109"/>
      <point x="214" y="12" type="curve"/>
      <point x="218" y="0" type="line"/>
      <point x="352" y="0" type="line"/>
    </contour>
  </outline>
</glyph>
<glyph name="threequarters" format="2">
  <advance width="406"/>
  <unicode hex="00BE"/>
  <outline>
    <contour>
      <point x="399" y="442" type="line"/>
      <point x="392" y="452" type="line"/>
      <point x="382" y="450"/>
      <point x="370" y="444"/>
      <point x="361" y="440" type="curve"/>
      <point x="46" y="0" type="line"/>
      <point x="53" y="-10" type="line"/>
      <point x="65" y="-7"/>
      <point x="75" y="-4"/>
      <point x="86" y="1" type="curve"/>
    </contour>
    <contour>
      <point x="195" y="300" type="curve" smooth="yes"/>
      <point x="199" y="328"/>
      <point x="181" y="353"/>
      <point x="153" y="356" type="curve"/>
      <point x="178" y="364"/>
      <point x="196" y="384"/>
      <point x="198" y="401" type="curve" smooth="yes"/>
      <point x="202" y="425"/>
      <point x="188" y="450"/>
      <point x="150" y="450" type="curve" smooth="yes"/>
      <point x="111" y="450"/>
      <point x="73" y="422"/>
      <point x="70" y="403" type="curve"/>
      <point x="75" y="397" type="line"/>
      <point x="85" y="398"/>
      <point x="98" y="400"/>
      <point x="107" y="404" type="curve"/>
      <point x="106" y="420"/>
      <point x="118" y="431"/>
      <point x="137" y="431" type="curve" smooth="yes"/>
      <point x="159" y="431"/>
      <point x="166" y="414"/>
      <point x="164" y="398" type="curve" smooth="yes"/>
      <point x="161" y="384"/>
      <point x="153" y="365"/>
      <point x="108" y="353" type="curve"/>
      <point x="108" y="340" type="line"/>
      <point x="116" y="341"/>
      <point x="114" y="341"/>
      <point x="121" y="341" type="curve" smooth="yes"/>
      <point x="142" y="341"/>
      <point x="164" y="329"/>
      <point x="160" y="294" type="curve" smooth="yes"/>
      <point x="155" y="264"/>
      <point x="134" y="249"/>
      <point x="105" y="249" type="curve" smooth="yes"/>
      <point x="87" y="249"/>
      <point x="71" y="253"/>
      <point x="51" y="269" type="curve"/>
      <point x="43" y="257" type="line"/>
      <point x="62" y="236"/>
      <point x="85" y="228"/>
      <point x="107" y="228" type="curve" smooth="yes"/>
      <point x="155" y="228"/>
      <point x="190" y="261"/>
    </contour>
    <contour>
      <point x="363" y="76" type="curve"/>
      <point x="358" y="82" type="line"/>
      <point x="338" y="82" type="line"/>
      <point x="357" y="212" type="line"/>
      <point x="351" y="218" type="line"/>
      <point x="343" y="215"/>
      <point x="329" y="210"/>
      <point x="319" y="206" type="curve"/>
      <point x="206" y="65" type="line"/>
      <point x="212" y="60" type="line"/>
      <point x="304" y="60" type="line"/>
      <point x="299" y="23" type="line"/>
      <point x="298" y="19"/>
      <point x="293" y="15"/>
      <point x="261" y="10" type="curve"/>
      <point x="259" y="0" type="line"/>
      <point x="350" y="0" type="line"/>
      <point x="351" y="10" type="line"/>
      <point x="331" y="15"/>
      <point x="329" y="17"/>
      <point x="330" y="21" type="curve" smooth="yes"/>
      <point x="335" y="60" type="line"/>
      <point x="346" y="60" type="line"/>
      <point x="351" y="64"/>
      <point x="356" y="69"/>
    </contour>
    <contour>
      <point x="307" y="82" type="line"/>
      <point x="240" y="82" type="line"/>
      <point x="321" y="179" type="line"/>
    </contour>
  </outline>
</glyph>
<glyph name="questiondown" format="2">
  <advance width="291"/>
  <unicode hex="00BF"/>
  <outline>
    <contour>
      <point x="229" y="-63" type="curve"/>
      <point x="221" y="-52" type="line"/>
      <point x="201" y="-54"/>
      <point x="181" y="-59"/>
      <point x="161" y="-68" type="curve"/>
      <point x="169" y="-112"/>
      <point x="150" y="-149"/>
      <point x="114" y="-149" type="curve" smooth="yes"/>
      <point x="77" y="-149"/>
      <point x="58" y="-123"/>
      <point x="58" y="-79" type="curve" smooth="yes"/>
      <point x="58" y="5"/>
      <point x="167" y="50"/>
      <point x="170" y="141" type="curve"/>
      <point x="171" y="183" type="line"/>
      <point x="164" y="190" type="line"/>
      <point x="152" y="187"/>
      <point x="143" y="182"/>
      <point x="134" y="175" type="curve"/>
      <point x="130" y="142" type="line" smooth="yes"/>
      <point x="116" y="45"/>
      <point x="-7" y="21"/>
      <point x="-7" y="-99" type="curve" smooth="yes"/>
      <point x="-7" y="-146"/>
      <point x="22" y="-184"/>
      <point x="83" y="-184" type="curve" smooth="yes"/>
      <point x="172" y="-184"/>
      <point x="229" y="-123"/>
    </contour>
    <contour>
      <point x="121" y="259" type="curve"/>
      <point x="121" y="238"/>
      <point x="134" y="224"/>
      <point x="154" y="224" type="curve" smooth="yes"/>
      <point x="187" y="224"/>
      <point x="211" y="260"/>
      <point x="211" y="288" type="curve" smooth="yes"/>
      <point x="211" y="309"/>
      <point x="199" y="324"/>
      <point x="177" y="324" type="curve" smooth="yes"/>
      <point x="142" y="324"/>
      <point x="121" y="288"/>
    </contour>
  </outline>
</glyph>
